<?xml version="1.0" encoding="UTF-8" standalone="no"?><svg xmlns="http://www.w3.org/2000/svg" xmlns:xlink="http://www.w3.org/1999/xlink" contentScriptType="application/ecmascript" contentStyleType="text/css" height="1487px" preserveAspectRatio="none" style="width:1447px;height:1487px;" version="1.1" viewBox="0 0 1447 1487" width="1447px" zoomAndPan="magnify"><defs><filter height="300%" id="f50rhhsvq0uqb" width="300%" x="-1" y="-1"><feGaussianBlur result="blurOut" stdDeviation="2.0"/><feColorMatrix in="blurOut" result="blurOut2" type="matrix" values="0 0 0 0 0 0 0 0 0 0 0 0 0 0 0 0 0 0 .4 0"/><feOffset dx="4.0" dy="4.0" in="blurOut2" result="blurOut3"/><feBlend in="SourceGraphic" in2="blurOut3" mode="normal"/></filter></defs><g><!--MD5=[7d8b2569dccd48716c7f24c5a59b6de2]
class Draughts--><rect fill="#FEFECE" filter="url(#f50rhhsvq0uqb)" height="60.8047" id="Draughts" style="stroke: #A80036; stroke-width: 1.5;" width="75" x="918" y="8"/><ellipse cx="933" cy="24" fill="#ADD1B2" rx="11" ry="11" style="stroke: #A80036; stroke-width: 1.0;"/><path d="M935.3438,19.6719 L935.5156,19.75 C935.7344,19.4375 935.9375,19.3438 936.2344,19.3438 C936.5313,19.3438 936.8125,19.4844 936.9688,19.75 C937.0625,19.9063 937.0781,20.0313 937.0781,20.4688 L937.0781,21.8906 C937.0781,22.3125 937.0469,22.5 936.9375,22.6563 C936.7656,22.875 936.5,23.0156 936.2344,23.0156 C936.0156,23.0156 935.7813,22.9063 935.6406,22.7656 C935.5,22.6406 935.4688,22.5156 935.4063,22.1094 C935.3125,21.7031 935.1406,21.4844 934.6563,21.2031 C934.1875,20.9531 933.5781,20.7969 933,20.7969 C931.2656,20.7969 930.0156,22.1094 930.0156,23.8906 L930.0156,24.9844 C930.0156,26.6875 931.3125,27.7813 933.3594,27.7813 C934.125,27.7813 934.8125,27.6563 935.2344,27.3906 C935.4219,27.2969 935.4219,27.2969 935.875,26.8125 C936.0625,26.625 936.2656,26.5469 936.4844,26.5469 C936.9531,26.5469 937.3438,26.9375 937.3438,27.3906 C937.3438,27.7813 937.0156,28.2344 936.4375,28.6406 C935.6875,29.1875 934.5313,29.4844 933.3125,29.4844 C930.4219,29.4844 928.3125,27.5938 928.3125,25.0156 L928.3125,23.8906 C928.3125,21.1719 930.3125,19.0938 932.9375,19.0938 C933.8125,19.0938 934.4063,19.2344 935.3438,19.6719 Z "/><text fill="#000000" font-family="sans-serif" font-size="12" lengthAdjust="spacingAndGlyphs" textLength="43" x="947" y="28.1543">Draughts</text><line style="stroke: #A80036; stroke-width: 1.5;" x1="919" x2="992" y1="40" y2="40"/><line style="stroke: #A80036; stroke-width: 1.5;" x1="919" x2="992" y1="48" y2="48"/><ellipse cx="929" cy="59" fill="#84BE84" rx="3" ry="3" style="stroke: #038048; stroke-width: 1.0;"/><text fill="#000000" font-family="sans-serif" font-size="11" lengthAdjust="spacingAndGlyphs" textLength="31" x="938" y="62.2104">play()</text><!--MD5=[42fa18dda7351a0ae87d9497de925436]
class Logic--><rect fill="#FEFECE" filter="url(#f50rhhsvq0uqb)" height="60.8047" id="Logic" style="stroke: #A80036; stroke-width: 1.5;" width="108" x="1050.5" y="129"/><ellipse cx="1085.3" cy="145" fill="#ADD1B2" rx="11" ry="11" style="stroke: #A80036; stroke-width: 1.0;"/><path d="M1087.6438,140.6719 L1087.8156,140.75 C1088.0344,140.4375 1088.2375,140.3438 1088.5344,140.3438 C1088.8313,140.3438 1089.1125,140.4844 1089.2688,140.75 C1089.3625,140.9063 1089.3781,141.0313 1089.3781,141.4688 L1089.3781,142.8906 C1089.3781,143.3125 1089.3469,143.5 1089.2375,143.6563 C1089.0656,143.875 1088.8,144.0156 1088.5344,144.0156 C1088.3156,144.0156 1088.0813,143.9063 1087.9406,143.7656 C1087.8,143.6406 1087.7688,143.5156 1087.7063,143.1094 C1087.6125,142.7031 1087.4406,142.4844 1086.9563,142.2031 C1086.4875,141.9531 1085.8781,141.7969 1085.3,141.7969 C1083.5656,141.7969 1082.3156,143.1094 1082.3156,144.8906 L1082.3156,145.9844 C1082.3156,147.6875 1083.6125,148.7813 1085.6594,148.7813 C1086.425,148.7813 1087.1125,148.6563 1087.5344,148.3906 C1087.7219,148.2969 1087.7219,148.2969 1088.175,147.8125 C1088.3625,147.625 1088.5656,147.5469 1088.7844,147.5469 C1089.2531,147.5469 1089.6438,147.9375 1089.6438,148.3906 C1089.6438,148.7813 1089.3156,149.2344 1088.7375,149.6406 C1087.9875,150.1875 1086.8313,150.4844 1085.6125,150.4844 C1082.7219,150.4844 1080.6125,148.5938 1080.6125,146.0156 L1080.6125,144.8906 C1080.6125,142.1719 1082.6125,140.0938 1085.2375,140.0938 C1086.1125,140.0938 1086.7063,140.2344 1087.6438,140.6719 Z "/><text fill="#000000" font-family="sans-serif" font-size="12" lengthAdjust="spacingAndGlyphs" textLength="32" x="1103.7" y="149.1543">Logic</text><line style="stroke: #A80036; stroke-width: 1.5;" x1="1051.5" x2="1157.5" y1="161" y2="161"/><line style="stroke: #A80036; stroke-width: 1.5;" x1="1051.5" x2="1157.5" y1="169" y2="169"/><ellipse cx="1061.5" cy="180" fill="#84BE84" rx="3" ry="3" style="stroke: #038048; stroke-width: 1.0;"/><text fill="#000000" font-family="sans-serif" font-size="11" lengthAdjust="spacingAndGlyphs" textLength="82" x="1070.5" y="183.2104">getController()</text><!--MD5=[c045e12321b83266d36d22b9096c24ea]
class View--><rect fill="#FEFECE" filter="url(#f50rhhsvq0uqb)" height="60.8047" id="View" style="stroke: #A80036; stroke-width: 1.5;" width="133" x="819" y="415"/><ellipse cx="866.75" cy="431" fill="#B4A7E5" rx="11" ry="11" style="stroke: #A80036; stroke-width: 1.0;"/><path d="M867.7031,427.7813 L867.7031,434.2969 L869.4219,434.2969 C869.875,434.2969 870.0156,434.3281 870.1875,434.4531 C870.4219,434.625 870.5313,434.875 870.5313,435.1563 C870.5313,435.7188 870.1719,436 869.4219,436 L864.2813,436 C863.875,436 863.6719,435.9531 863.5156,435.8281 C863.2969,435.6719 863.1563,435.4063 863.1563,435.1563 C863.1563,434.8594 863.3125,434.5781 863.5625,434.4219 C863.7188,434.3125 863.8438,434.2969 864.2813,434.2969 L866,434.2969 L866,427.7813 L864.2813,427.7813 C863.8594,427.7813 863.6719,427.75 863.5156,427.6406 C863.2969,427.4688 863.1563,427.2188 863.1563,426.9375 C863.1563,426.6563 863.3125,426.3594 863.5625,426.2031 C863.7188,426.1094 863.8438,426.0938 864.2813,426.0938 L869.4219,426.0938 C869.875,426.0938 870.0156,426.125 870.1875,426.2344 C870.4219,426.4063 870.5313,426.6719 870.5313,426.9375 C870.5313,427.2344 870.3906,427.5156 870.125,427.6719 C870,427.75 869.8125,427.7813 869.4219,427.7813 Z "/><text fill="#000000" font-family="sans-serif" font-size="12" font-style="italic" lengthAdjust="spacingAndGlyphs" textLength="29" x="887.25" y="435.1543">View</text><line style="stroke: #A80036; stroke-width: 1.5;" x1="820" x2="951" y1="447" y2="447"/><line style="stroke: #A80036; stroke-width: 1.5;" x1="820" x2="951" y1="455" y2="455"/><ellipse cx="830" cy="466" fill="#84BE84" rx="3" ry="3" style="stroke: #038048; stroke-width: 1.0;"/><text fill="#000000" font-family="sans-serif" font-size="11" lengthAdjust="spacingAndGlyphs" textLength="107" x="839" y="469.2104">interact(Controller)</text><!--MD5=[51d729737bd84a4c43136dd336c2eea1]
class ConsoleView--><rect fill="#FFA500" filter="url(#f50rhhsvq0uqb)" height="99.2188" id="ConsoleView" style="stroke: #A80036; stroke-width: 1.5;" width="290" x="245.5" y="555"/><rect fill="#FFA500" height="32" style="stroke: #A80036; stroke-width: 1.5;" width="290" x="245.5" y="555"/><ellipse cx="347.25" cy="571" fill="#ADD1B2" rx="11" ry="11" style="stroke: #A80036; stroke-width: 1.0;"/><path d="M349.5938,566.6719 L349.7656,566.75 C349.9844,566.4375 350.1875,566.3438 350.4844,566.3438 C350.7813,566.3438 351.0625,566.4844 351.2188,566.75 C351.3125,566.9063 351.3281,567.0313 351.3281,567.4688 L351.3281,568.8906 C351.3281,569.3125 351.2969,569.5 351.1875,569.6563 C351.0156,569.875 350.75,570.0156 350.4844,570.0156 C350.2656,570.0156 350.0313,569.9063 349.8906,569.7656 C349.75,569.6406 349.7188,569.5156 349.6563,569.1094 C349.5625,568.7031 349.3906,568.4844 348.9063,568.2031 C348.4375,567.9531 347.8281,567.7969 347.25,567.7969 C345.5156,567.7969 344.2656,569.1094 344.2656,570.8906 L344.2656,571.9844 C344.2656,573.6875 345.5625,574.7813 347.6094,574.7813 C348.375,574.7813 349.0625,574.6563 349.4844,574.3906 C349.6719,574.2969 349.6719,574.2969 350.125,573.8125 C350.3125,573.625 350.5156,573.5469 350.7344,573.5469 C351.2031,573.5469 351.5938,573.9375 351.5938,574.3906 C351.5938,574.7813 351.2656,575.2344 350.6875,575.6406 C349.9375,576.1875 348.7813,576.4844 347.5625,576.4844 C344.6719,576.4844 342.5625,574.5938 342.5625,572.0156 L342.5625,570.8906 C342.5625,568.1719 344.5625,566.0938 347.1875,566.0938 C348.0625,566.0938 348.6563,566.2344 349.5938,566.6719 Z "/><text fill="#000000" font-family="sans-serif" font-size="12" lengthAdjust="spacingAndGlyphs" textLength="78" x="367.75" y="575.1543">ConsoleView</text><line style="stroke: #A80036; stroke-width: 1.5;" x1="246.5" x2="534.5" y1="587" y2="587"/><line style="stroke: #A80036; stroke-width: 1.5;" x1="246.5" x2="534.5" y1="595" y2="595"/><ellipse cx="256.5" cy="606" fill="#84BE84" rx="3" ry="3" style="stroke: #038048; stroke-width: 1.0;"/><text fill="#000000" font-family="sans-serif" font-size="11" lengthAdjust="spacingAndGlyphs" textLength="107" x="265.5" y="609.2104">interact(Controller)</text><ellipse cx="256.5" cy="618.8047" fill="#84BE84" rx="3" ry="3" style="stroke: #038048; stroke-width: 1.0;"/><text fill="#000000" font-family="sans-serif" font-size="11" lengthAdjust="spacingAndGlyphs" textLength="229" x="265.5" y="622.0151">visit(StartController startController):void</text><ellipse cx="256.5" cy="631.6094" fill="#84BE84" rx="3" ry="3" style="stroke: #038048; stroke-width: 1.0;"/><text fill="#000000" font-family="sans-serif" font-size="11" lengthAdjust="spacingAndGlyphs" textLength="220" x="265.5" y="634.8198">visit(PlayController playController):void</text><ellipse cx="256.5" cy="644.4141" fill="#84BE84" rx="3" ry="3" style="stroke: #038048; stroke-width: 1.0;"/><text fill="#000000" font-family="sans-serif" font-size="11" lengthAdjust="spacingAndGlyphs" textLength="264" x="265.5" y="647.6245">visit(ResumeController resumeController):void</text><ellipse cx="390.5" cy="445.5" fill="#FEFECE" filter="url(#f50rhhsvq0uqb)" rx="5" ry="5" style="stroke: #A80036; stroke-width: 1.5;"/><text fill="#000000" font-family="sans-serif" font-size="12" lengthAdjust="spacingAndGlyphs" textLength="28" x="376.5" y="461.6387">View</text><!--MD5=[47c371471411cfedeee61b1a5bdaee47]
class StartController--><rect fill="#FEFECE" filter="url(#f50rhhsvq0uqb)" height="60.8047" id="StartController" style="stroke: #A80036; stroke-width: 1.5;" width="124" x="398.5" y="746"/><ellipse cx="413.5" cy="762" fill="#ADD1B2" rx="11" ry="11" style="stroke: #A80036; stroke-width: 1.0;"/><path d="M415.8438,757.6719 L416.0156,757.75 C416.2344,757.4375 416.4375,757.3438 416.7344,757.3438 C417.0313,757.3438 417.3125,757.4844 417.4688,757.75 C417.5625,757.9063 417.5781,758.0313 417.5781,758.4688 L417.5781,759.8906 C417.5781,760.3125 417.5469,760.5 417.4375,760.6563 C417.2656,760.875 417,761.0156 416.7344,761.0156 C416.5156,761.0156 416.2813,760.9063 416.1406,760.7656 C416,760.6406 415.9688,760.5156 415.9063,760.1094 C415.8125,759.7031 415.6406,759.4844 415.1563,759.2031 C414.6875,758.9531 414.0781,758.7969 413.5,758.7969 C411.7656,758.7969 410.5156,760.1094 410.5156,761.8906 L410.5156,762.9844 C410.5156,764.6875 411.8125,765.7813 413.8594,765.7813 C414.625,765.7813 415.3125,765.6563 415.7344,765.3906 C415.9219,765.2969 415.9219,765.2969 416.375,764.8125 C416.5625,764.625 416.7656,764.5469 416.9844,764.5469 C417.4531,764.5469 417.8438,764.9375 417.8438,765.3906 C417.8438,765.7813 417.5156,766.2344 416.9375,766.6406 C416.1875,767.1875 415.0313,767.4844 413.8125,767.4844 C410.9219,767.4844 408.8125,765.5938 408.8125,763.0156 L408.8125,761.8906 C408.8125,759.1719 410.8125,757.0938 413.4375,757.0938 C414.3125,757.0938 414.9063,757.2344 415.8438,757.6719 Z "/><text fill="#000000" font-family="sans-serif" font-size="12" lengthAdjust="spacingAndGlyphs" textLength="92" x="427.5" y="766.1543">StartController</text><line style="stroke: #A80036; stroke-width: 1.5;" x1="399.5" x2="521.5" y1="778" y2="778"/><line style="stroke: #A80036; stroke-width: 1.5;" x1="399.5" x2="521.5" y1="786" y2="786"/><ellipse cx="409.5" cy="797" fill="#84BE84" rx="3" ry="3" style="stroke: #038048; stroke-width: 1.0;"/><text fill="#000000" font-family="sans-serif" font-size="11" lengthAdjust="spacingAndGlyphs" textLength="62" x="418.5" y="800.2104">start():void</text><!--MD5=[cc8600b868f8dfab2c8d497bce62f90a]
class PlayController--><rect fill="#FEFECE" filter="url(#f50rhhsvq0uqb)" height="99.2188" id="PlayController" style="stroke: #A80036; stroke-width: 1.5;" width="243" x="558" y="727"/><ellipse cx="632.25" cy="743" fill="#ADD1B2" rx="11" ry="11" style="stroke: #A80036; stroke-width: 1.0;"/><path d="M634.5938,738.6719 L634.7656,738.75 C634.9844,738.4375 635.1875,738.3438 635.4844,738.3438 C635.7813,738.3438 636.0625,738.4844 636.2188,738.75 C636.3125,738.9063 636.3281,739.0313 636.3281,739.4688 L636.3281,740.8906 C636.3281,741.3125 636.2969,741.5 636.1875,741.6563 C636.0156,741.875 635.75,742.0156 635.4844,742.0156 C635.2656,742.0156 635.0313,741.9063 634.8906,741.7656 C634.75,741.6406 634.7188,741.5156 634.6563,741.1094 C634.5625,740.7031 634.3906,740.4844 633.9063,740.2031 C633.4375,739.9531 632.8281,739.7969 632.25,739.7969 C630.5156,739.7969 629.2656,741.1094 629.2656,742.8906 L629.2656,743.9844 C629.2656,745.6875 630.5625,746.7813 632.6094,746.7813 C633.375,746.7813 634.0625,746.6563 634.4844,746.3906 C634.6719,746.2969 634.6719,746.2969 635.125,745.8125 C635.3125,745.625 635.5156,745.5469 635.7344,745.5469 C636.2031,745.5469 636.5938,745.9375 636.5938,746.3906 C636.5938,746.7813 636.2656,747.2344 635.6875,747.6406 C634.9375,748.1875 633.7813,748.4844 632.5625,748.4844 C629.6719,748.4844 627.5625,746.5938 627.5625,744.0156 L627.5625,742.8906 C627.5625,740.1719 629.5625,738.0938 632.1875,738.0938 C633.0625,738.0938 633.6563,738.2344 634.5938,738.6719 Z "/><text fill="#000000" font-family="sans-serif" font-size="12" lengthAdjust="spacingAndGlyphs" textLength="86" x="652.75" y="747.1543">PlayController</text><line style="stroke: #A80036; stroke-width: 1.5;" x1="559" x2="800" y1="759" y2="759"/><line style="stroke: #A80036; stroke-width: 1.5;" x1="559" x2="800" y1="767" y2="767"/><ellipse cx="569" cy="778" fill="#84BE84" rx="3" ry="3" style="stroke: #038048; stroke-width: 1.0;"/><text fill="#000000" font-family="sans-serif" font-size="11" lengthAdjust="spacingAndGlyphs" textLength="217" x="578" y="781.2104">move(Coordinate... coordinates):Error</text><ellipse cx="569" cy="790.8047" fill="#84BE84" rx="3" ry="3" style="stroke: #038048; stroke-width: 1.0;"/><text fill="#000000" font-family="sans-serif" font-size="11" lengthAdjust="spacingAndGlyphs" textLength="188" x="578" y="794.0151">getPiece(Coordinate origin):Piece</text><ellipse cx="569" cy="803.6094" fill="#84BE84" rx="3" ry="3" style="stroke: #038048; stroke-width: 1.0;"/><text fill="#000000" font-family="sans-serif" font-size="11" lengthAdjust="spacingAndGlyphs" textLength="82" x="578" y="806.8198">getTurn():Turn</text><ellipse cx="569" cy="816.4141" fill="#84BE84" rx="3" ry="3" style="stroke: #038048; stroke-width: 1.0;"/><text fill="#000000" font-family="sans-serif" font-size="11" lengthAdjust="spacingAndGlyphs" textLength="71" x="578" y="819.6245">cancel():void</text><!--MD5=[1a47bbf44ccee225df9b18c5b6629853]
class ResumeController--><rect fill="#FEFECE" filter="url(#f50rhhsvq0uqb)" height="60.8047" id="ResumeController" style="stroke: #A80036; stroke-width: 1.5;" width="211" x="836" y="746"/><ellipse cx="881.75" cy="762" fill="#ADD1B2" rx="11" ry="11" style="stroke: #A80036; stroke-width: 1.0;"/><path d="M884.0938,757.6719 L884.2656,757.75 C884.4844,757.4375 884.6875,757.3438 884.9844,757.3438 C885.2813,757.3438 885.5625,757.4844 885.7188,757.75 C885.8125,757.9063 885.8281,758.0313 885.8281,758.4688 L885.8281,759.8906 C885.8281,760.3125 885.7969,760.5 885.6875,760.6563 C885.5156,760.875 885.25,761.0156 884.9844,761.0156 C884.7656,761.0156 884.5313,760.9063 884.3906,760.7656 C884.25,760.6406 884.2188,760.5156 884.1563,760.1094 C884.0625,759.7031 883.8906,759.4844 883.4063,759.2031 C882.9375,758.9531 882.3281,758.7969 881.75,758.7969 C880.0156,758.7969 878.7656,760.1094 878.7656,761.8906 L878.7656,762.9844 C878.7656,764.6875 880.0625,765.7813 882.1094,765.7813 C882.875,765.7813 883.5625,765.6563 883.9844,765.3906 C884.1719,765.2969 884.1719,765.2969 884.625,764.8125 C884.8125,764.625 885.0156,764.5469 885.2344,764.5469 C885.7031,764.5469 886.0938,764.9375 886.0938,765.3906 C886.0938,765.7813 885.7656,766.2344 885.1875,766.6406 C884.4375,767.1875 883.2813,767.4844 882.0625,767.4844 C879.1719,767.4844 877.0625,765.5938 877.0625,763.0156 L877.0625,761.8906 C877.0625,759.1719 879.0625,757.0938 881.6875,757.0938 C882.5625,757.0938 883.1563,757.2344 884.0938,757.6719 Z "/><text fill="#000000" font-family="sans-serif" font-size="12" lengthAdjust="spacingAndGlyphs" textLength="111" x="902.25" y="766.1543">ResumeController</text><line style="stroke: #A80036; stroke-width: 1.5;" x1="837" x2="1046" y1="778" y2="778"/><line style="stroke: #A80036; stroke-width: 1.5;" x1="837" x2="1046" y1="786" y2="786"/><ellipse cx="847" cy="797" fill="#84BE84" rx="3" ry="3" style="stroke: #038048; stroke-width: 1.0;"/><text fill="#000000" font-family="sans-serif" font-size="11" lengthAdjust="spacingAndGlyphs" textLength="185" x="856" y="800.2104">resume(boolean newGame):void</text><!--MD5=[443c52daef265809fdf31be84fc8ae4a]
class StartView--><rect fill="#FEFECE" filter="url(#f50rhhsvq0uqb)" height="48" id="StartView" style="stroke: #A80036; stroke-width: 1.5;" width="91" x="6" y="752.5"/><ellipse cx="21" cy="768.5" fill="#ADD1B2" rx="11" ry="11" style="stroke: #A80036; stroke-width: 1.0;"/><path d="M23.3438,764.1719 L23.5156,764.25 C23.7344,763.9375 23.9375,763.8438 24.2344,763.8438 C24.5313,763.8438 24.8125,763.9844 24.9688,764.25 C25.0625,764.4063 25.0781,764.5313 25.0781,764.9688 L25.0781,766.3906 C25.0781,766.8125 25.0469,767 24.9375,767.1563 C24.7656,767.375 24.5,767.5156 24.2344,767.5156 C24.0156,767.5156 23.7813,767.4063 23.6406,767.2656 C23.5,767.1406 23.4688,767.0156 23.4063,766.6094 C23.3125,766.2031 23.1406,765.9844 22.6563,765.7031 C22.1875,765.4531 21.5781,765.2969 21,765.2969 C19.2656,765.2969 18.0156,766.6094 18.0156,768.3906 L18.0156,769.4844 C18.0156,771.1875 19.3125,772.2813 21.3594,772.2813 C22.125,772.2813 22.8125,772.1563 23.2344,771.8906 C23.4219,771.7969 23.4219,771.7969 23.875,771.3125 C24.0625,771.125 24.2656,771.0469 24.4844,771.0469 C24.9531,771.0469 25.3438,771.4375 25.3438,771.8906 C25.3438,772.2813 25.0156,772.7344 24.4375,773.1406 C23.6875,773.6875 22.5313,773.9844 21.3125,773.9844 C18.4219,773.9844 16.3125,772.0938 16.3125,769.5156 L16.3125,768.3906 C16.3125,765.6719 18.3125,763.5938 20.9375,763.5938 C21.8125,763.5938 22.4063,763.7344 23.3438,764.1719 Z "/><text fill="#000000" font-family="sans-serif" font-size="12" lengthAdjust="spacingAndGlyphs" textLength="59" x="35" y="772.6543">StartView</text><line style="stroke: #A80036; stroke-width: 1.5;" x1="7" x2="96" y1="784.5" y2="784.5"/><line style="stroke: #A80036; stroke-width: 1.5;" x1="7" x2="96" y1="792.5" y2="792.5"/><!--MD5=[7d098cfea779bb374973991beab6ed3b]
class PlayView--><rect fill="#FEFECE" filter="url(#f50rhhsvq0uqb)" height="48" id="PlayView" style="stroke: #A80036; stroke-width: 1.5;" width="85" x="278" y="752.5"/><ellipse cx="293" cy="768.5" fill="#ADD1B2" rx="11" ry="11" style="stroke: #A80036; stroke-width: 1.0;"/><path d="M295.3438,764.1719 L295.5156,764.25 C295.7344,763.9375 295.9375,763.8438 296.2344,763.8438 C296.5313,763.8438 296.8125,763.9844 296.9688,764.25 C297.0625,764.4063 297.0781,764.5313 297.0781,764.9688 L297.0781,766.3906 C297.0781,766.8125 297.0469,767 296.9375,767.1563 C296.7656,767.375 296.5,767.5156 296.2344,767.5156 C296.0156,767.5156 295.7813,767.4063 295.6406,767.2656 C295.5,767.1406 295.4688,767.0156 295.4063,766.6094 C295.3125,766.2031 295.1406,765.9844 294.6563,765.7031 C294.1875,765.4531 293.5781,765.2969 293,765.2969 C291.2656,765.2969 290.0156,766.6094 290.0156,768.3906 L290.0156,769.4844 C290.0156,771.1875 291.3125,772.2813 293.3594,772.2813 C294.125,772.2813 294.8125,772.1563 295.2344,771.8906 C295.4219,771.7969 295.4219,771.7969 295.875,771.3125 C296.0625,771.125 296.2656,771.0469 296.4844,771.0469 C296.9531,771.0469 297.3438,771.4375 297.3438,771.8906 C297.3438,772.2813 297.0156,772.7344 296.4375,773.1406 C295.6875,773.6875 294.5313,773.9844 293.3125,773.9844 C290.4219,773.9844 288.3125,772.0938 288.3125,769.5156 L288.3125,768.3906 C288.3125,765.6719 290.3125,763.5938 292.9375,763.5938 C293.8125,763.5938 294.4063,763.7344 295.3438,764.1719 Z "/><text fill="#000000" font-family="sans-serif" font-size="12" lengthAdjust="spacingAndGlyphs" textLength="53" x="307" y="772.6543">PlayView</text><line style="stroke: #A80036; stroke-width: 1.5;" x1="279" x2="362" y1="784.5" y2="784.5"/><line style="stroke: #A80036; stroke-width: 1.5;" x1="279" x2="362" y1="792.5" y2="792.5"/><!--MD5=[19088a99a8c1f36e582d33ac2f8fc6dd]
class ResumeView--><rect fill="#FEFECE" filter="url(#f50rhhsvq0uqb)" height="48" id="ResumeView" style="stroke: #A80036; stroke-width: 1.5;" width="110" x="132.5" y="752.5"/><ellipse cx="147.5" cy="768.5" fill="#ADD1B2" rx="11" ry="11" style="stroke: #A80036; stroke-width: 1.0;"/><path d="M149.8438,764.1719 L150.0156,764.25 C150.2344,763.9375 150.4375,763.8438 150.7344,763.8438 C151.0313,763.8438 151.3125,763.9844 151.4688,764.25 C151.5625,764.4063 151.5781,764.5313 151.5781,764.9688 L151.5781,766.3906 C151.5781,766.8125 151.5469,767 151.4375,767.1563 C151.2656,767.375 151,767.5156 150.7344,767.5156 C150.5156,767.5156 150.2813,767.4063 150.1406,767.2656 C150,767.1406 149.9688,767.0156 149.9063,766.6094 C149.8125,766.2031 149.6406,765.9844 149.1563,765.7031 C148.6875,765.4531 148.0781,765.2969 147.5,765.2969 C145.7656,765.2969 144.5156,766.6094 144.5156,768.3906 L144.5156,769.4844 C144.5156,771.1875 145.8125,772.2813 147.8594,772.2813 C148.625,772.2813 149.3125,772.1563 149.7344,771.8906 C149.9219,771.7969 149.9219,771.7969 150.375,771.3125 C150.5625,771.125 150.7656,771.0469 150.9844,771.0469 C151.4531,771.0469 151.8438,771.4375 151.8438,771.8906 C151.8438,772.2813 151.5156,772.7344 150.9375,773.1406 C150.1875,773.6875 149.0313,773.9844 147.8125,773.9844 C144.9219,773.9844 142.8125,772.0938 142.8125,769.5156 L142.8125,768.3906 C142.8125,765.6719 144.8125,763.5938 147.4375,763.5938 C148.3125,763.5938 148.9063,763.7344 149.8438,764.1719 Z "/><text fill="#000000" font-family="sans-serif" font-size="12" lengthAdjust="spacingAndGlyphs" textLength="78" x="161.5" y="772.6543">ResumeView</text><line style="stroke: #A80036; stroke-width: 1.5;" x1="133.5" x2="241.5" y1="784.5" y2="784.5"/><line style="stroke: #A80036; stroke-width: 1.5;" x1="133.5" x2="241.5" y1="792.5" y2="792.5"/><!--MD5=[9b237e88d697a058bd530d6510c96c00]
class BoardView--><rect fill="#FEFECE" filter="url(#f50rhhsvq0uqb)" height="48" id="BoardView" style="stroke: #A80036; stroke-width: 1.5;" width="97" x="138" y="931"/><ellipse cx="153" cy="947" fill="#ADD1B2" rx="11" ry="11" style="stroke: #A80036; stroke-width: 1.0;"/><path d="M155.3438,942.6719 L155.5156,942.75 C155.7344,942.4375 155.9375,942.3438 156.2344,942.3438 C156.5313,942.3438 156.8125,942.4844 156.9688,942.75 C157.0625,942.9063 157.0781,943.0313 157.0781,943.4688 L157.0781,944.8906 C157.0781,945.3125 157.0469,945.5 156.9375,945.6563 C156.7656,945.875 156.5,946.0156 156.2344,946.0156 C156.0156,946.0156 155.7813,945.9063 155.6406,945.7656 C155.5,945.6406 155.4688,945.5156 155.4063,945.1094 C155.3125,944.7031 155.1406,944.4844 154.6563,944.2031 C154.1875,943.9531 153.5781,943.7969 153,943.7969 C151.2656,943.7969 150.0156,945.1094 150.0156,946.8906 L150.0156,947.9844 C150.0156,949.6875 151.3125,950.7813 153.3594,950.7813 C154.125,950.7813 154.8125,950.6563 155.2344,950.3906 C155.4219,950.2969 155.4219,950.2969 155.875,949.8125 C156.0625,949.625 156.2656,949.5469 156.4844,949.5469 C156.9531,949.5469 157.3438,949.9375 157.3438,950.3906 C157.3438,950.7813 157.0156,951.2344 156.4375,951.6406 C155.6875,952.1875 154.5313,952.4844 153.3125,952.4844 C150.4219,952.4844 148.3125,950.5938 148.3125,948.0156 L148.3125,946.8906 C148.3125,944.1719 150.3125,942.0938 152.9375,942.0938 C153.8125,942.0938 154.4063,942.2344 155.3438,942.6719 Z "/><text fill="#000000" font-family="sans-serif" font-size="12" lengthAdjust="spacingAndGlyphs" textLength="65" x="167" y="951.1543">BoardView</text><line style="stroke: #A80036; stroke-width: 1.5;" x1="139" x2="234" y1="963" y2="963"/><line style="stroke: #A80036; stroke-width: 1.5;" x1="139" x2="234" y1="971" y2="971"/><!--MD5=[eb428b1f4a6ffc2a6f427996736c8f30]
class SquareView--><rect fill="#FEFECE" filter="url(#f50rhhsvq0uqb)" height="48" id="SquareView" style="stroke: #A80036; stroke-width: 1.5;" width="105" x="134" y="1116"/><ellipse cx="149" cy="1132" fill="#ADD1B2" rx="11" ry="11" style="stroke: #A80036; stroke-width: 1.0;"/><path d="M151.3438,1127.6719 L151.5156,1127.75 C151.7344,1127.4375 151.9375,1127.3438 152.2344,1127.3438 C152.5313,1127.3438 152.8125,1127.4844 152.9688,1127.75 C153.0625,1127.9063 153.0781,1128.0313 153.0781,1128.4688 L153.0781,1129.8906 C153.0781,1130.3125 153.0469,1130.5 152.9375,1130.6563 C152.7656,1130.875 152.5,1131.0156 152.2344,1131.0156 C152.0156,1131.0156 151.7813,1130.9063 151.6406,1130.7656 C151.5,1130.6406 151.4688,1130.5156 151.4063,1130.1094 C151.3125,1129.7031 151.1406,1129.4844 150.6563,1129.2031 C150.1875,1128.9531 149.5781,1128.7969 149,1128.7969 C147.2656,1128.7969 146.0156,1130.1094 146.0156,1131.8906 L146.0156,1132.9844 C146.0156,1134.6875 147.3125,1135.7813 149.3594,1135.7813 C150.125,1135.7813 150.8125,1135.6563 151.2344,1135.3906 C151.4219,1135.2969 151.4219,1135.2969 151.875,1134.8125 C152.0625,1134.625 152.2656,1134.5469 152.4844,1134.5469 C152.9531,1134.5469 153.3438,1134.9375 153.3438,1135.3906 C153.3438,1135.7813 153.0156,1136.2344 152.4375,1136.6406 C151.6875,1137.1875 150.5313,1137.4844 149.3125,1137.4844 C146.4219,1137.4844 144.3125,1135.5938 144.3125,1133.0156 L144.3125,1131.8906 C144.3125,1129.1719 146.3125,1127.0938 148.9375,1127.0938 C149.8125,1127.0938 150.4063,1127.2344 151.3438,1127.6719 Z "/><text fill="#000000" font-family="sans-serif" font-size="12" lengthAdjust="spacingAndGlyphs" textLength="73" x="163" y="1136.1543">SquareView</text><line style="stroke: #A80036; stroke-width: 1.5;" x1="135" x2="238" y1="1148" y2="1148"/><line style="stroke: #A80036; stroke-width: 1.5;" x1="135" x2="238" y1="1156" y2="1156"/><!--MD5=[05d96c3fedda0ccf334e81bcb4fb7713]
class PieceView--><rect fill="#FEFECE" filter="url(#f50rhhsvq0uqb)" height="48" id="PieceView" style="stroke: #A80036; stroke-width: 1.5;" width="94" x="139.5" y="1282"/><ellipse cx="154.5" cy="1298" fill="#ADD1B2" rx="11" ry="11" style="stroke: #A80036; stroke-width: 1.0;"/><path d="M156.8438,1293.6719 L157.0156,1293.75 C157.2344,1293.4375 157.4375,1293.3438 157.7344,1293.3438 C158.0313,1293.3438 158.3125,1293.4844 158.4688,1293.75 C158.5625,1293.9063 158.5781,1294.0313 158.5781,1294.4688 L158.5781,1295.8906 C158.5781,1296.3125 158.5469,1296.5 158.4375,1296.6563 C158.2656,1296.875 158,1297.0156 157.7344,1297.0156 C157.5156,1297.0156 157.2813,1296.9063 157.1406,1296.7656 C157,1296.6406 156.9688,1296.5156 156.9063,1296.1094 C156.8125,1295.7031 156.6406,1295.4844 156.1563,1295.2031 C155.6875,1294.9531 155.0781,1294.7969 154.5,1294.7969 C152.7656,1294.7969 151.5156,1296.1094 151.5156,1297.8906 L151.5156,1298.9844 C151.5156,1300.6875 152.8125,1301.7813 154.8594,1301.7813 C155.625,1301.7813 156.3125,1301.6563 156.7344,1301.3906 C156.9219,1301.2969 156.9219,1301.2969 157.375,1300.8125 C157.5625,1300.625 157.7656,1300.5469 157.9844,1300.5469 C158.4531,1300.5469 158.8438,1300.9375 158.8438,1301.3906 C158.8438,1301.7813 158.5156,1302.2344 157.9375,1302.6406 C157.1875,1303.1875 156.0313,1303.4844 154.8125,1303.4844 C151.9219,1303.4844 149.8125,1301.5938 149.8125,1299.0156 L149.8125,1297.8906 C149.8125,1295.1719 151.8125,1293.0938 154.4375,1293.0938 C155.3125,1293.0938 155.9063,1293.2344 156.8438,1293.6719 Z "/><text fill="#000000" font-family="sans-serif" font-size="12" lengthAdjust="spacingAndGlyphs" textLength="62" x="168.5" y="1302.1543">PieceView</text><line style="stroke: #A80036; stroke-width: 1.5;" x1="140.5" x2="232.5" y1="1314" y2="1314"/><line style="stroke: #A80036; stroke-width: 1.5;" x1="140.5" x2="232.5" y1="1322" y2="1322"/><!--MD5=[1d7ba1c7002d54515419844fbd155368]
class Controller--><rect fill="#FEFECE" filter="url(#f50rhhsvq0uqb)" height="60.8047" id="Controller" style="stroke: #A80036; stroke-width: 1.5;" width="193" x="817" y="574"/><ellipse cx="878.75" cy="590" fill="#A9DCDF" rx="11" ry="11" style="stroke: #A80036; stroke-width: 1.0;"/><path d="M880.3281,591.8125 L876.2813,591.8125 L875.8906,592.7969 L876.2813,592.7969 C876.7344,592.7969 876.875,592.8281 877.0469,592.9531 C877.2656,593.125 877.3906,593.375 877.3906,593.6563 C877.3906,593.9375 877.25,594.2344 876.9844,594.375 C876.8594,594.4688 876.6406,594.5 876.2813,594.5 L874.0156,594.5 C873.2656,594.5 872.8906,594.2188 872.8906,593.6563 C872.8906,593.3594 873.0469,593.0781 873.2969,592.9219 C873.4531,592.8125 873.6094,592.7969 874.0313,592.7969 L876.6719,586.2813 L875.5938,586.2813 C875.1563,586.2813 874.9844,586.25 874.8125,586.1406 C874.5938,585.9688 874.4531,585.7188 874.4531,585.4375 C874.4531,585.1563 874.6094,584.875 874.8594,584.7031 C875.0156,584.6094 875.1406,584.5938 875.5938,584.5938 L879.2656,584.5938 L882.6563,592.7969 C883.125,592.7969 883.2813,592.8281 883.4531,592.9688 C883.6719,593.125 883.8125,593.375 883.8125,593.6563 C883.8125,593.9375 883.6563,594.2344 883.4063,594.375 C883.2656,594.4688 883.0469,594.5 882.6875,594.5 L880.3281,594.5 C879.9063,594.5 879.7031,594.4531 879.5625,594.3281 C879.3438,594.1719 879.2031,593.9219 879.2031,593.6563 C879.2031,593.3594 879.3594,593.0781 879.6094,592.9219 C879.7656,592.8125 879.875,592.7969 880.3281,592.7969 L880.7188,592.7969 Z M879.625,590.1094 L878.2969,586.8438 L876.9531,590.1094 Z "/><text fill="#000000" font-family="sans-serif" font-size="12" font-style="italic" lengthAdjust="spacingAndGlyphs" textLength="61" x="899.25" y="594.1543">Controller</text><line style="stroke: #A80036; stroke-width: 1.5;" x1="818" x2="1009" y1="606" y2="606"/><line style="stroke: #A80036; stroke-width: 1.5;" x1="818" x2="1009" y1="614" y2="614"/><ellipse cx="828" cy="625" fill="#84BE84" rx="3" ry="3" style="stroke: #038048; stroke-width: 1.0;"/><text fill="#000000" font-family="sans-serif" font-size="11" font-style="italic" lengthAdjust="spacingAndGlyphs" textLength="167" x="837" y="628.2104">accept(AcceptController):void</text><!--MD5=[b33739c3e536261369b4ffef6d5359a5]
class AcceptController--><rect fill="#FEFECE" filter="url(#f50rhhsvq0uqb)" height="86.4141" id="AcceptController" style="stroke: #A80036; stroke-width: 1.5;" width="290" x="860.5" y="250"/><ellipse cx="949.25" cy="266" fill="#B4A7E5" rx="11" ry="11" style="stroke: #A80036; stroke-width: 1.0;"/><path d="M950.2031,262.7813 L950.2031,269.2969 L951.9219,269.2969 C952.375,269.2969 952.5156,269.3281 952.6875,269.4531 C952.9219,269.625 953.0313,269.875 953.0313,270.1563 C953.0313,270.7188 952.6719,271 951.9219,271 L946.7813,271 C946.375,271 946.1719,270.9531 946.0156,270.8281 C945.7969,270.6719 945.6563,270.4063 945.6563,270.1563 C945.6563,269.8594 945.8125,269.5781 946.0625,269.4219 C946.2188,269.3125 946.3438,269.2969 946.7813,269.2969 L948.5,269.2969 L948.5,262.7813 L946.7813,262.7813 C946.3594,262.7813 946.1719,262.75 946.0156,262.6406 C945.7969,262.4688 945.6563,262.2188 945.6563,261.9375 C945.6563,261.6563 945.8125,261.3594 946.0625,261.2031 C946.2188,261.1094 946.3438,261.0938 946.7813,261.0938 L951.9219,261.0938 C952.375,261.0938 952.5156,261.125 952.6875,261.2344 C952.9219,261.4063 953.0313,261.6719 953.0313,261.9375 C953.0313,262.2344 952.8906,262.5156 952.625,262.6719 C952.5,262.75 952.3125,262.7813 951.9219,262.7813 Z "/><text fill="#000000" font-family="sans-serif" font-size="12" font-style="italic" lengthAdjust="spacingAndGlyphs" textLength="104" x="969.75" y="270.1543">AcceptController</text><line style="stroke: #A80036; stroke-width: 1.5;" x1="861.5" x2="1149.5" y1="282" y2="282"/><line style="stroke: #A80036; stroke-width: 1.5;" x1="861.5" x2="1149.5" y1="290" y2="290"/><ellipse cx="871.5" cy="301" fill="#84BE84" rx="3" ry="3" style="stroke: #038048; stroke-width: 1.0;"/><text fill="#000000" font-family="sans-serif" font-size="11" lengthAdjust="spacingAndGlyphs" textLength="229" x="880.5" y="304.2104">visit(StartController startController):void</text><ellipse cx="871.5" cy="313.8047" fill="#84BE84" rx="3" ry="3" style="stroke: #038048; stroke-width: 1.0;"/><text fill="#000000" font-family="sans-serif" font-size="11" lengthAdjust="spacingAndGlyphs" textLength="220" x="880.5" y="317.0151">visit(PlayController playController):void</text><ellipse cx="871.5" cy="326.6094" fill="#84BE84" rx="3" ry="3" style="stroke: #038048; stroke-width: 1.0;"/><text fill="#000000" font-family="sans-serif" font-size="11" lengthAdjust="spacingAndGlyphs" textLength="264" x="880.5" y="329.8198">visit(ResumeController resumeController):void</text><!--MD5=[60d6b92408f98aed8df94d5c6e04aa63]
class State--><rect fill="#FEFECE" filter="url(#f50rhhsvq0uqb)" height="86.4141" id="State" style="stroke: #A80036; stroke-width: 1.5;" width="178" x="1256.5" y="250"/><ellipse cx="1324.25" cy="266" fill="#ADD1B2" rx="11" ry="11" style="stroke: #A80036; stroke-width: 1.0;"/><path d="M1326.5938,261.6719 L1326.7656,261.75 C1326.9844,261.4375 1327.1875,261.3438 1327.4844,261.3438 C1327.7813,261.3438 1328.0625,261.4844 1328.2188,261.75 C1328.3125,261.9063 1328.3281,262.0313 1328.3281,262.4688 L1328.3281,263.8906 C1328.3281,264.3125 1328.2969,264.5 1328.1875,264.6563 C1328.0156,264.875 1327.75,265.0156 1327.4844,265.0156 C1327.2656,265.0156 1327.0313,264.9063 1326.8906,264.7656 C1326.75,264.6406 1326.7188,264.5156 1326.6563,264.1094 C1326.5625,263.7031 1326.3906,263.4844 1325.9063,263.2031 C1325.4375,262.9531 1324.8281,262.7969 1324.25,262.7969 C1322.5156,262.7969 1321.2656,264.1094 1321.2656,265.8906 L1321.2656,266.9844 C1321.2656,268.6875 1322.5625,269.7813 1324.6094,269.7813 C1325.375,269.7813 1326.0625,269.6563 1326.4844,269.3906 C1326.6719,269.2969 1326.6719,269.2969 1327.125,268.8125 C1327.3125,268.625 1327.5156,268.5469 1327.7344,268.5469 C1328.2031,268.5469 1328.5938,268.9375 1328.5938,269.3906 C1328.5938,269.7813 1328.2656,270.2344 1327.6875,270.6406 C1326.9375,271.1875 1325.7813,271.4844 1324.5625,271.4844 C1321.6719,271.4844 1319.5625,269.5938 1319.5625,267.0156 L1319.5625,265.8906 C1319.5625,263.1719 1321.5625,261.0938 1324.1875,261.0938 C1325.0625,261.0938 1325.6563,261.2344 1326.5938,261.6719 Z "/><text fill="#000000" font-family="sans-serif" font-size="12" lengthAdjust="spacingAndGlyphs" textLength="34" x="1344.75" y="270.1543">State</text><line style="stroke: #A80036; stroke-width: 1.5;" x1="1257.5" x2="1433.5" y1="282" y2="282"/><line style="stroke: #A80036; stroke-width: 1.5;" x1="1257.5" x2="1433.5" y1="290" y2="290"/><ellipse cx="1267.5" cy="301" fill="#84BE84" rx="3" ry="3" style="stroke: #038048; stroke-width: 1.0;"/><text fill="#000000" font-family="sans-serif" font-size="11" lengthAdjust="spacingAndGlyphs" textLength="59" x="1276.5" y="304.2104">next():void</text><ellipse cx="1267.5" cy="313.8047" fill="#84BE84" rx="3" ry="3" style="stroke: #038048; stroke-width: 1.0;"/><text fill="#000000" font-family="sans-serif" font-size="11" lengthAdjust="spacingAndGlyphs" textLength="65" x="1276.5" y="317.0151">reset():void</text><ellipse cx="1267.5" cy="326.6094" fill="#84BE84" rx="3" ry="3" style="stroke: #038048; stroke-width: 1.0;"/><text fill="#000000" font-family="sans-serif" font-size="11" lengthAdjust="spacingAndGlyphs" textLength="152" x="1276.5" y="329.8198">getValueState():StateValue</text><!--MD5=[b6dcce5e5ef3c84b0b048d11301373dd]
class Game--><rect fill="#FEFECE" filter="url(#f50rhhsvq0uqb)" height="124.8281" id="Game" style="stroke: #A80036; stroke-width: 1.5;" width="243" x="1082" y="714"/><ellipse cx="1181.25" cy="730" fill="#ADD1B2" rx="11" ry="11" style="stroke: #A80036; stroke-width: 1.0;"/><path d="M1183.5938,725.6719 L1183.7656,725.75 C1183.9844,725.4375 1184.1875,725.3438 1184.4844,725.3438 C1184.7813,725.3438 1185.0625,725.4844 1185.2188,725.75 C1185.3125,725.9063 1185.3281,726.0313 1185.3281,726.4688 L1185.3281,727.8906 C1185.3281,728.3125 1185.2969,728.5 1185.1875,728.6563 C1185.0156,728.875 1184.75,729.0156 1184.4844,729.0156 C1184.2656,729.0156 1184.0313,728.9063 1183.8906,728.7656 C1183.75,728.6406 1183.7188,728.5156 1183.6563,728.1094 C1183.5625,727.7031 1183.3906,727.4844 1182.9063,727.2031 C1182.4375,726.9531 1181.8281,726.7969 1181.25,726.7969 C1179.5156,726.7969 1178.2656,728.1094 1178.2656,729.8906 L1178.2656,730.9844 C1178.2656,732.6875 1179.5625,733.7813 1181.6094,733.7813 C1182.375,733.7813 1183.0625,733.6563 1183.4844,733.3906 C1183.6719,733.2969 1183.6719,733.2969 1184.125,732.8125 C1184.3125,732.625 1184.5156,732.5469 1184.7344,732.5469 C1185.2031,732.5469 1185.5938,732.9375 1185.5938,733.3906 C1185.5938,733.7813 1185.2656,734.2344 1184.6875,734.6406 C1183.9375,735.1875 1182.7813,735.4844 1181.5625,735.4844 C1178.6719,735.4844 1176.5625,733.5938 1176.5625,731.0156 L1176.5625,729.8906 C1176.5625,727.1719 1178.5625,725.0938 1181.1875,725.0938 C1182.0625,725.0938 1182.6563,725.2344 1183.5938,725.6719 Z "/><text fill="#000000" font-family="sans-serif" font-size="12" lengthAdjust="spacingAndGlyphs" textLength="36" x="1201.75" y="734.1543">Game</text><line style="stroke: #A80036; stroke-width: 1.5;" x1="1083" x2="1324" y1="746" y2="746"/><line style="stroke: #A80036; stroke-width: 1.5;" x1="1083" x2="1324" y1="754" y2="754"/><ellipse cx="1093" cy="765" fill="#84BE84" rx="3" ry="3" style="stroke: #038048; stroke-width: 1.0;"/><text fill="#000000" font-family="sans-serif" font-size="11" lengthAdjust="spacingAndGlyphs" textLength="217" x="1102" y="768.2104">move(Coordinate... coordinates):Error</text><ellipse cx="1093" cy="777.8047" fill="#84BE84" rx="3" ry="3" style="stroke: #038048; stroke-width: 1.0;"/><text fill="#000000" font-family="sans-serif" font-size="11" lengthAdjust="spacingAndGlyphs" textLength="188" x="1102" y="781.0151">getPiece(Coordinate origin):Piece</text><ellipse cx="1093" cy="790.6094" fill="#84BE84" rx="3" ry="3" style="stroke: #038048; stroke-width: 1.0;"/><text fill="#000000" font-family="sans-serif" font-size="11" lengthAdjust="spacingAndGlyphs" textLength="114" x="1102" y="793.8198">isFinished():boolean</text><ellipse cx="1093" cy="803.4141" fill="#84BE84" rx="3" ry="3" style="stroke: #038048; stroke-width: 1.0;"/><text fill="#000000" font-family="sans-serif" font-size="11" lengthAdjust="spacingAndGlyphs" textLength="105" x="1102" y="806.6245">isWinner():boolean</text><ellipse cx="1093" cy="816.2188" fill="#84BE84" rx="3" ry="3" style="stroke: #038048; stroke-width: 1.0;"/><text fill="#000000" font-family="sans-serif" font-size="11" lengthAdjust="spacingAndGlyphs" textLength="84" x="1102" y="819.4292">isTie():boolean</text><ellipse cx="1093" cy="829.0234" fill="#84BE84" rx="3" ry="3" style="stroke: #038048; stroke-width: 1.0;"/><text fill="#000000" font-family="sans-serif" font-size="11" lengthAdjust="spacingAndGlyphs" textLength="65" x="1102" y="832.2339">reset():void</text><!--MD5=[4a3d141f9685726a02b570c2e6e45719]
class MoveController--><rect fill="#FEFECE" filter="url(#f50rhhsvq0uqb)" height="60.8047" id="MoveController" style="stroke: #A80036; stroke-width: 1.5;" width="243" x="727" y="924.5"/><ellipse cx="797.75" cy="940.5" fill="#ADD1B2" rx="11" ry="11" style="stroke: #A80036; stroke-width: 1.0;"/><path d="M800.0938,936.1719 L800.2656,936.25 C800.4844,935.9375 800.6875,935.8438 800.9844,935.8438 C801.2813,935.8438 801.5625,935.9844 801.7188,936.25 C801.8125,936.4063 801.8281,936.5313 801.8281,936.9688 L801.8281,938.3906 C801.8281,938.8125 801.7969,939 801.6875,939.1563 C801.5156,939.375 801.25,939.5156 800.9844,939.5156 C800.7656,939.5156 800.5313,939.4063 800.3906,939.2656 C800.25,939.1406 800.2188,939.0156 800.1563,938.6094 C800.0625,938.2031 799.8906,937.9844 799.4063,937.7031 C798.9375,937.4531 798.3281,937.2969 797.75,937.2969 C796.0156,937.2969 794.7656,938.6094 794.7656,940.3906 L794.7656,941.4844 C794.7656,943.1875 796.0625,944.2813 798.1094,944.2813 C798.875,944.2813 799.5625,944.1563 799.9844,943.8906 C800.1719,943.7969 800.1719,943.7969 800.625,943.3125 C800.8125,943.125 801.0156,943.0469 801.2344,943.0469 C801.7031,943.0469 802.0938,943.4375 802.0938,943.8906 C802.0938,944.2813 801.7656,944.7344 801.1875,945.1406 C800.4375,945.6875 799.2813,945.9844 798.0625,945.9844 C795.1719,945.9844 793.0625,944.0938 793.0625,941.5156 L793.0625,940.3906 C793.0625,937.6719 795.0625,935.5938 797.6875,935.5938 C798.5625,935.5938 799.1563,935.7344 800.0938,936.1719 Z "/><text fill="#000000" font-family="sans-serif" font-size="12" lengthAdjust="spacingAndGlyphs" textLength="93" x="818.25" y="944.6543">MoveController</text><line style="stroke: #A80036; stroke-width: 1.5;" x1="728" x2="969" y1="956.5" y2="956.5"/><line style="stroke: #A80036; stroke-width: 1.5;" x1="728" x2="969" y1="964.5" y2="964.5"/><ellipse cx="738" cy="975.5" fill="#84BE84" rx="3" ry="3" style="stroke: #038048; stroke-width: 1.0;"/><text fill="#000000" font-family="sans-serif" font-size="11" lengthAdjust="spacingAndGlyphs" textLength="217" x="747" y="978.7104">move(Coordinate... coordinates):Error</text><!--MD5=[7afa4cdd2ff84f1dcb5e4f643f42ec7a]
class CancelController--><rect fill="#FEFECE" filter="url(#f50rhhsvq0uqb)" height="60.8047" id="CancelController" style="stroke: #A80036; stroke-width: 1.5;" width="135" x="557" y="924.5"/><ellipse cx="572" cy="940.5" fill="#ADD1B2" rx="11" ry="11" style="stroke: #A80036; stroke-width: 1.0;"/><path d="M574.3438,936.1719 L574.5156,936.25 C574.7344,935.9375 574.9375,935.8438 575.2344,935.8438 C575.5313,935.8438 575.8125,935.9844 575.9688,936.25 C576.0625,936.4063 576.0781,936.5313 576.0781,936.9688 L576.0781,938.3906 C576.0781,938.8125 576.0469,939 575.9375,939.1563 C575.7656,939.375 575.5,939.5156 575.2344,939.5156 C575.0156,939.5156 574.7813,939.4063 574.6406,939.2656 C574.5,939.1406 574.4688,939.0156 574.4063,938.6094 C574.3125,938.2031 574.1406,937.9844 573.6563,937.7031 C573.1875,937.4531 572.5781,937.2969 572,937.2969 C570.2656,937.2969 569.0156,938.6094 569.0156,940.3906 L569.0156,941.4844 C569.0156,943.1875 570.3125,944.2813 572.3594,944.2813 C573.125,944.2813 573.8125,944.1563 574.2344,943.8906 C574.4219,943.7969 574.4219,943.7969 574.875,943.3125 C575.0625,943.125 575.2656,943.0469 575.4844,943.0469 C575.9531,943.0469 576.3438,943.4375 576.3438,943.8906 C576.3438,944.2813 576.0156,944.7344 575.4375,945.1406 C574.6875,945.6875 573.5313,945.9844 572.3125,945.9844 C569.4219,945.9844 567.3125,944.0938 567.3125,941.5156 L567.3125,940.3906 C567.3125,937.6719 569.3125,935.5938 571.9375,935.5938 C572.8125,935.5938 573.4063,935.7344 574.3438,936.1719 Z "/><text fill="#000000" font-family="sans-serif" font-size="12" lengthAdjust="spacingAndGlyphs" textLength="103" x="586" y="944.6543">CancelController</text><line style="stroke: #A80036; stroke-width: 1.5;" x1="558" x2="691" y1="956.5" y2="956.5"/><line style="stroke: #A80036; stroke-width: 1.5;" x1="558" x2="691" y1="964.5" y2="964.5"/><ellipse cx="568" cy="975.5" fill="#84BE84" rx="3" ry="3" style="stroke: #038048; stroke-width: 1.0;"/><text fill="#000000" font-family="sans-serif" font-size="11" lengthAdjust="spacingAndGlyphs" textLength="71" x="577" y="978.7104">cancel():void</text><!--MD5=[8c7d7abc12e214c3cc12c9ab70edee11]
class Coordinate--><rect fill="#FEFECE" filter="url(#f50rhhsvq0uqb)" height="48" id="Coordinate" style="stroke: #A80036; stroke-width: 1.5;" width="101" x="410" y="931"/><ellipse cx="425" cy="947" fill="#ADD1B2" rx="11" ry="11" style="stroke: #A80036; stroke-width: 1.0;"/><path d="M427.3438,942.6719 L427.5156,942.75 C427.7344,942.4375 427.9375,942.3438 428.2344,942.3438 C428.5313,942.3438 428.8125,942.4844 428.9688,942.75 C429.0625,942.9063 429.0781,943.0313 429.0781,943.4688 L429.0781,944.8906 C429.0781,945.3125 429.0469,945.5 428.9375,945.6563 C428.7656,945.875 428.5,946.0156 428.2344,946.0156 C428.0156,946.0156 427.7813,945.9063 427.6406,945.7656 C427.5,945.6406 427.4688,945.5156 427.4063,945.1094 C427.3125,944.7031 427.1406,944.4844 426.6563,944.2031 C426.1875,943.9531 425.5781,943.7969 425,943.7969 C423.2656,943.7969 422.0156,945.1094 422.0156,946.8906 L422.0156,947.9844 C422.0156,949.6875 423.3125,950.7813 425.3594,950.7813 C426.125,950.7813 426.8125,950.6563 427.2344,950.3906 C427.4219,950.2969 427.4219,950.2969 427.875,949.8125 C428.0625,949.625 428.2656,949.5469 428.4844,949.5469 C428.9531,949.5469 429.3438,949.9375 429.3438,950.3906 C429.3438,950.7813 429.0156,951.2344 428.4375,951.6406 C427.6875,952.1875 426.5313,952.4844 425.3125,952.4844 C422.4219,952.4844 420.3125,950.5938 420.3125,948.0156 L420.3125,946.8906 C420.3125,944.1719 422.3125,942.0938 424.9375,942.0938 C425.8125,942.0938 426.4063,942.2344 427.3438,942.6719 Z "/><text fill="#000000" font-family="sans-serif" font-size="12" lengthAdjust="spacingAndGlyphs" textLength="69" x="439" y="951.1543">Coordinate</text><line style="stroke: #A80036; stroke-width: 1.5;" x1="411" x2="510" y1="963" y2="963"/><line style="stroke: #A80036; stroke-width: 1.5;" x1="411" x2="510" y1="971" y2="971"/><!--MD5=[9563755d011c5cec7ec66dc53565a59e]
class Board--><rect fill="#FEFECE" filter="url(#f50rhhsvq0uqb)" height="112.0234" id="Board" style="stroke: #A80036; stroke-width: 1.5;" width="243" x="1082" y="899"/><ellipse cx="1180.75" cy="915" fill="#ADD1B2" rx="11" ry="11" style="stroke: #A80036; stroke-width: 1.0;"/><path d="M1183.0938,910.6719 L1183.2656,910.75 C1183.4844,910.4375 1183.6875,910.3438 1183.9844,910.3438 C1184.2813,910.3438 1184.5625,910.4844 1184.7188,910.75 C1184.8125,910.9063 1184.8281,911.0313 1184.8281,911.4688 L1184.8281,912.8906 C1184.8281,913.3125 1184.7969,913.5 1184.6875,913.6563 C1184.5156,913.875 1184.25,914.0156 1183.9844,914.0156 C1183.7656,914.0156 1183.5313,913.9063 1183.3906,913.7656 C1183.25,913.6406 1183.2188,913.5156 1183.1563,913.1094 C1183.0625,912.7031 1182.8906,912.4844 1182.4063,912.2031 C1181.9375,911.9531 1181.3281,911.7969 1180.75,911.7969 C1179.0156,911.7969 1177.7656,913.1094 1177.7656,914.8906 L1177.7656,915.9844 C1177.7656,917.6875 1179.0625,918.7813 1181.1094,918.7813 C1181.875,918.7813 1182.5625,918.6563 1182.9844,918.3906 C1183.1719,918.2969 1183.1719,918.2969 1183.625,917.8125 C1183.8125,917.625 1184.0156,917.5469 1184.2344,917.5469 C1184.7031,917.5469 1185.0938,917.9375 1185.0938,918.3906 C1185.0938,918.7813 1184.7656,919.2344 1184.1875,919.6406 C1183.4375,920.1875 1182.2813,920.4844 1181.0625,920.4844 C1178.1719,920.4844 1176.0625,918.5938 1176.0625,916.0156 L1176.0625,914.8906 C1176.0625,912.1719 1178.0625,910.0938 1180.6875,910.0938 C1181.5625,910.0938 1182.1563,910.2344 1183.0938,910.6719 Z "/><text fill="#000000" font-family="sans-serif" font-size="12" lengthAdjust="spacingAndGlyphs" textLength="37" x="1201.25" y="919.1543">Board</text><line style="stroke: #A80036; stroke-width: 1.5;" x1="1083" x2="1324" y1="931" y2="931"/><line style="stroke: #A80036; stroke-width: 1.5;" x1="1083" x2="1324" y1="939" y2="939"/><ellipse cx="1093" cy="950" fill="#84BE84" rx="3" ry="3" style="stroke: #038048; stroke-width: 1.0;"/><text fill="#000000" font-family="sans-serif" font-size="11" lengthAdjust="spacingAndGlyphs" textLength="217" x="1102" y="953.2104">move(Coordinate... coordinates):Error</text><ellipse cx="1093" cy="962.8047" fill="#84BE84" rx="3" ry="3" style="stroke: #038048; stroke-width: 1.0;"/><text fill="#000000" font-family="sans-serif" font-size="11" lengthAdjust="spacingAndGlyphs" textLength="188" x="1102" y="966.0151">getPiece(Coordinate origin):Piece</text><ellipse cx="1093" cy="975.6094" fill="#84BE84" rx="3" ry="3" style="stroke: #038048; stroke-width: 1.0;"/><text fill="#000000" font-family="sans-serif" font-size="11" lengthAdjust="spacingAndGlyphs" textLength="175" x="1102" y="978.8198">isMovementsAllowed():boolean</text><ellipse cx="1093" cy="988.4141" fill="#84BE84" rx="3" ry="3" style="stroke: #038048; stroke-width: 1.0;"/><text fill="#000000" font-family="sans-serif" font-size="11" lengthAdjust="spacingAndGlyphs" textLength="205" x="1102" y="991.6245">isMovementsAllowed(Color):boolean</text><ellipse cx="1093" cy="1001.2188" fill="#84BE84" rx="3" ry="3" style="stroke: #038048; stroke-width: 1.0;"/><text fill="#000000" font-family="sans-serif" font-size="11" lengthAdjust="spacingAndGlyphs" textLength="137" x="1102" y="1004.4292">Contains(Color):boolean</text><!--MD5=[dd91eae41778c45e12552e5329e240e8]
class Turn--><rect fill="#FEFECE" filter="url(#f50rhhsvq0uqb)" height="73.6094" id="Turn" style="stroke: #A80036; stroke-width: 1.5;" width="116" x="1320.5" y="1269"/><ellipse cx="1360.7" cy="1285" fill="#ADD1B2" rx="11" ry="11" style="stroke: #A80036; stroke-width: 1.0;"/><path d="M1363.0438,1280.6719 L1363.2156,1280.75 C1363.4344,1280.4375 1363.6375,1280.3438 1363.9344,1280.3438 C1364.2313,1280.3438 1364.5125,1280.4844 1364.6688,1280.75 C1364.7625,1280.9063 1364.7781,1281.0313 1364.7781,1281.4688 L1364.7781,1282.8906 C1364.7781,1283.3125 1364.7469,1283.5 1364.6375,1283.6563 C1364.4656,1283.875 1364.2,1284.0156 1363.9344,1284.0156 C1363.7156,1284.0156 1363.4813,1283.9063 1363.3406,1283.7656 C1363.2,1283.6406 1363.1688,1283.5156 1363.1063,1283.1094 C1363.0125,1282.7031 1362.8406,1282.4844 1362.3563,1282.2031 C1361.8875,1281.9531 1361.2781,1281.7969 1360.7,1281.7969 C1358.9656,1281.7969 1357.7156,1283.1094 1357.7156,1284.8906 L1357.7156,1285.9844 C1357.7156,1287.6875 1359.0125,1288.7813 1361.0594,1288.7813 C1361.825,1288.7813 1362.5125,1288.6563 1362.9344,1288.3906 C1363.1219,1288.2969 1363.1219,1288.2969 1363.575,1287.8125 C1363.7625,1287.625 1363.9656,1287.5469 1364.1844,1287.5469 C1364.6531,1287.5469 1365.0438,1287.9375 1365.0438,1288.3906 C1365.0438,1288.7813 1364.7156,1289.2344 1364.1375,1289.6406 C1363.3875,1290.1875 1362.2313,1290.4844 1361.0125,1290.4844 C1358.1219,1290.4844 1356.0125,1288.5938 1356.0125,1286.0156 L1356.0125,1284.8906 C1356.0125,1282.1719 1358.0125,1280.0938 1360.6375,1280.0938 C1361.5125,1280.0938 1362.1063,1280.2344 1363.0438,1280.6719 Z "/><text fill="#000000" font-family="sans-serif" font-size="12" lengthAdjust="spacingAndGlyphs" textLength="28" x="1380.3" y="1289.1543">Turn</text><line style="stroke: #A80036; stroke-width: 1.5;" x1="1321.5" x2="1435.5" y1="1301" y2="1301"/><line style="stroke: #A80036; stroke-width: 1.5;" x1="1321.5" x2="1435.5" y1="1309" y2="1309"/><ellipse cx="1331.5" cy="1320" fill="#84BE84" rx="3" ry="3" style="stroke: #038048; stroke-width: 1.0;"/><text fill="#000000" font-family="sans-serif" font-size="11" lengthAdjust="spacingAndGlyphs" textLength="59" x="1340.5" y="1323.2104">next():void</text><ellipse cx="1331.5" cy="1332.8047" fill="#84BE84" rx="3" ry="3" style="stroke: #038048; stroke-width: 1.0;"/><text fill="#000000" font-family="sans-serif" font-size="11" lengthAdjust="spacingAndGlyphs" textLength="90" x="1340.5" y="1336.0151">getColor():Color</text><!--MD5=[b8cfd8c4119a3b0a7a46bfc5fc780f85]
class Error--><rect fill="#FEFECE" filter="url(#f50rhhsvq0uqb)" height="137.6328" id="Error" style="stroke: #A80036; stroke-width: 1.5;" width="110" x="978.5" y="1071"/><ellipse cx="1014.65" cy="1087" fill="#EB937F" rx="11" ry="11" style="stroke: #A80036; stroke-width: 1.0;"/><path d="M1012.9469,1087.875 L1012.9469,1090.2969 L1017.3063,1090.2969 L1017.3063,1089.4219 C1017.3063,1088.9375 1017.3375,1088.7969 1017.4469,1088.6406 C1017.6188,1088.3906 1017.8844,1088.2813 1018.15,1088.2813 C1018.4313,1088.2813 1018.7125,1088.4375 1018.8844,1088.6875 C1018.9625,1088.8438 1018.9938,1088.9844 1018.9938,1089.4219 L1018.9938,1092 L1010.9938,1092 C1010.6031,1092 1010.3688,1091.9531 1010.2281,1091.8281 C1010.0094,1091.6719 1009.8688,1091.4219 1009.8688,1091.1563 C1009.8688,1090.8594 1010.025,1090.5938 1010.275,1090.4219 C1010.4313,1090.3125 1010.5875,1090.2969 1010.9938,1090.2969 L1011.2438,1090.2969 L1011.2438,1083.7813 L1010.9938,1083.7813 C1010.5719,1083.7813 1010.3844,1083.75 1010.2281,1083.6406 C1010.0094,1083.4688 1009.8688,1083.2188 1009.8688,1082.9375 C1009.8688,1082.6563 1010.025,1082.3594 1010.275,1082.2031 C1010.4313,1082.1094 1010.5563,1082.0938 1010.9938,1082.0938 L1018.6188,1082.0938 L1018.6188,1084.6406 C1018.6188,1085.1094 1018.5875,1085.25 1018.4781,1085.4219 C1018.3063,1085.6406 1018.0406,1085.7813 1017.775,1085.7813 C1017.4938,1085.7813 1017.2125,1085.625 1017.0406,1085.375 C1016.9625,1085.2188 1016.9313,1085.0469 1016.9313,1084.6406 L1016.9313,1083.7813 L1012.9469,1083.7813 L1012.9469,1086.1875 L1014.4,1086.1875 L1014.4,1086.0625 C1014.4,1085.6094 1014.4313,1085.4531 1014.5406,1085.2813 C1014.7125,1085.0625 1014.9781,1084.9219 1015.2281,1084.9219 C1015.6813,1084.9219 1015.9938,1085.2344 1016.0563,1085.7031 C1016.0719,1085.8594 1016.0719,1085.9063 1016.0719,1086.0625 L1016.0719,1087.9844 C1016.0719,1088.4375 1016.0406,1088.5938 1015.9156,1088.75 C1015.7594,1088.9688 1015.4938,1089.1094 1015.2438,1089.1094 C1014.9469,1089.1094 1014.6656,1088.9531 1014.5094,1088.7031 C1014.4313,1088.5469 1014.4,1088.3906 1014.4,1087.9844 L1014.4,1087.875 Z "/><text fill="#000000" font-family="sans-serif" font-size="12" lengthAdjust="spacingAndGlyphs" textLength="31" x="1033.35" y="1091.1543">Error</text><line style="stroke: #A80036; stroke-width: 1.5;" x1="979.5" x2="1087.5" y1="1103" y2="1103"/><text fill="#000000" font-family="sans-serif" font-size="11" lengthAdjust="spacingAndGlyphs" textLength="60" x="984.5" y="1117.2104">DISTANCE,</text><text fill="#000000" font-family="sans-serif" font-size="11" lengthAdjust="spacingAndGlyphs" textLength="59" x="984.5" y="1130.0151">OCCUPED,</text><text fill="#000000" font-family="sans-serif" font-size="11" lengthAdjust="spacingAndGlyphs" textLength="59" x="984.5" y="1142.8198">NO_PIECE,</text><text fill="#000000" font-family="sans-serif" font-size="11" lengthAdjust="spacingAndGlyphs" textLength="85" x="984.5" y="1155.6245">COORDINATES,</text><text fill="#000000" font-family="sans-serif" font-size="11" lengthAdjust="spacingAndGlyphs" textLength="65" x="984.5" y="1168.4292">BAD_MOVE,</text><text fill="#000000" font-family="sans-serif" font-size="11" lengthAdjust="spacingAndGlyphs" textLength="98" x="984.5" y="1181.2339">CAPTURE_EXCED,</text><text fill="#000000" font-family="sans-serif" font-size="11" lengthAdjust="spacingAndGlyphs" textLength="53" x="984.5" y="1194.0386">NO_TURN</text><line style="stroke: #A80036; stroke-width: 1.5;" x1="979.5" x2="1087.5" y1="1200.6328" y2="1200.6328"/><!--MD5=[5655ee3e2a0d028d03fe20f829576392]
class Square--><rect fill="#FEFECE" filter="url(#f50rhhsvq0uqb)" height="60.8047" id="Square" style="stroke: #A80036; stroke-width: 1.5;" width="116" x="1199.5" y="1109.5"/><ellipse cx="1232.05" cy="1125.5" fill="#ADD1B2" rx="11" ry="11" style="stroke: #A80036; stroke-width: 1.0;"/><path d="M1234.3938,1121.1719 L1234.5656,1121.25 C1234.7844,1120.9375 1234.9875,1120.8438 1235.2844,1120.8438 C1235.5813,1120.8438 1235.8625,1120.9844 1236.0188,1121.25 C1236.1125,1121.4063 1236.1281,1121.5313 1236.1281,1121.9688 L1236.1281,1123.3906 C1236.1281,1123.8125 1236.0969,1124 1235.9875,1124.1563 C1235.8156,1124.375 1235.55,1124.5156 1235.2844,1124.5156 C1235.0656,1124.5156 1234.8313,1124.4063 1234.6906,1124.2656 C1234.55,1124.1406 1234.5188,1124.0156 1234.4563,1123.6094 C1234.3625,1123.2031 1234.1906,1122.9844 1233.7063,1122.7031 C1233.2375,1122.4531 1232.6281,1122.2969 1232.05,1122.2969 C1230.3156,1122.2969 1229.0656,1123.6094 1229.0656,1125.3906 L1229.0656,1126.4844 C1229.0656,1128.1875 1230.3625,1129.2813 1232.4094,1129.2813 C1233.175,1129.2813 1233.8625,1129.1563 1234.2844,1128.8906 C1234.4719,1128.7969 1234.4719,1128.7969 1234.925,1128.3125 C1235.1125,1128.125 1235.3156,1128.0469 1235.5344,1128.0469 C1236.0031,1128.0469 1236.3938,1128.4375 1236.3938,1128.8906 C1236.3938,1129.2813 1236.0656,1129.7344 1235.4875,1130.1406 C1234.7375,1130.6875 1233.5813,1130.9844 1232.3625,1130.9844 C1229.4719,1130.9844 1227.3625,1129.0938 1227.3625,1126.5156 L1227.3625,1125.3906 C1227.3625,1122.6719 1229.3625,1120.5938 1231.9875,1120.5938 C1232.8625,1120.5938 1233.4563,1120.7344 1234.3938,1121.1719 Z "/><text fill="#000000" font-family="sans-serif" font-size="12" lengthAdjust="spacingAndGlyphs" textLength="45" x="1249.95" y="1129.6543">Square</text><line style="stroke: #A80036; stroke-width: 1.5;" x1="1200.5" x2="1314.5" y1="1141.5" y2="1141.5"/><line style="stroke: #A80036; stroke-width: 1.5;" x1="1200.5" x2="1314.5" y1="1149.5" y2="1149.5"/><ellipse cx="1210.5" cy="1160.5" fill="#84BE84" rx="3" ry="3" style="stroke: #038048; stroke-width: 1.0;"/><text fill="#000000" font-family="sans-serif" font-size="11" lengthAdjust="spacingAndGlyphs" textLength="90" x="1219.5" y="1163.7104">getPiece():Piece</text><!--MD5=[e05bacf3ff4416a0580578814d41bbf6]
class Piece--><rect fill="#FEFECE" filter="url(#f50rhhsvq0uqb)" height="60.8047" id="Piece" style="stroke: #A80036; stroke-width: 1.5;" width="116" x="1169.5" y="1275.5"/><ellipse cx="1207.45" cy="1291.5" fill="#A9DCDF" rx="11" ry="11" style="stroke: #A80036; stroke-width: 1.0;"/><path d="M1209.0281,1293.3125 L1204.9813,1293.3125 L1204.5906,1294.2969 L1204.9813,1294.2969 C1205.4344,1294.2969 1205.575,1294.3281 1205.7469,1294.4531 C1205.9656,1294.625 1206.0906,1294.875 1206.0906,1295.1563 C1206.0906,1295.4375 1205.95,1295.7344 1205.6844,1295.875 C1205.5594,1295.9688 1205.3406,1296 1204.9813,1296 L1202.7156,1296 C1201.9656,1296 1201.5906,1295.7188 1201.5906,1295.1563 C1201.5906,1294.8594 1201.7469,1294.5781 1201.9969,1294.4219 C1202.1531,1294.3125 1202.3094,1294.2969 1202.7313,1294.2969 L1205.3719,1287.7813 L1204.2938,1287.7813 C1203.8563,1287.7813 1203.6844,1287.75 1203.5125,1287.6406 C1203.2938,1287.4688 1203.1531,1287.2188 1203.1531,1286.9375 C1203.1531,1286.6563 1203.3094,1286.375 1203.5594,1286.2031 C1203.7156,1286.1094 1203.8406,1286.0938 1204.2938,1286.0938 L1207.9656,1286.0938 L1211.3563,1294.2969 C1211.825,1294.2969 1211.9813,1294.3281 1212.1531,1294.4688 C1212.3719,1294.625 1212.5125,1294.875 1212.5125,1295.1563 C1212.5125,1295.4375 1212.3563,1295.7344 1212.1063,1295.875 C1211.9656,1295.9688 1211.7469,1296 1211.3875,1296 L1209.0281,1296 C1208.6063,1296 1208.4031,1295.9531 1208.2625,1295.8281 C1208.0438,1295.6719 1207.9031,1295.4219 1207.9031,1295.1563 C1207.9031,1294.8594 1208.0594,1294.5781 1208.3094,1294.4219 C1208.4656,1294.3125 1208.575,1294.2969 1209.0281,1294.2969 L1209.4188,1294.2969 Z M1208.325,1291.6094 L1206.9969,1288.3438 L1205.6531,1291.6094 Z "/><text fill="#000000" font-family="sans-serif" font-size="12" font-style="italic" lengthAdjust="spacingAndGlyphs" textLength="33" x="1226.55" y="1295.6543">Piece</text><line style="stroke: #A80036; stroke-width: 1.5;" x1="1170.5" x2="1284.5" y1="1307.5" y2="1307.5"/><line style="stroke: #A80036; stroke-width: 1.5;" x1="1170.5" x2="1284.5" y1="1315.5" y2="1315.5"/><ellipse cx="1180.5" cy="1326.5" fill="#84BE84" rx="3" ry="3" style="stroke: #038048; stroke-width: 1.0;"/><text fill="#000000" font-family="sans-serif" font-size="11" lengthAdjust="spacingAndGlyphs" textLength="90" x="1189.5" y="1329.7104">getColor():Color</text><!--MD5=[01ca3b4a98ffd2dcd7718d47c382f387]
class Peon--><rect fill="#FEFECE" filter="url(#f50rhhsvq0uqb)" height="48" id="Peon" style="stroke: #A80036; stroke-width: 1.5;" width="64" x="1107.5" y="1416"/><ellipse cx="1122.5" cy="1432" fill="#ADD1B2" rx="11" ry="11" style="stroke: #A80036; stroke-width: 1.0;"/><path d="M1124.8438,1427.6719 L1125.0156,1427.75 C1125.2344,1427.4375 1125.4375,1427.3438 1125.7344,1427.3438 C1126.0313,1427.3438 1126.3125,1427.4844 1126.4688,1427.75 C1126.5625,1427.9063 1126.5781,1428.0313 1126.5781,1428.4688 L1126.5781,1429.8906 C1126.5781,1430.3125 1126.5469,1430.5 1126.4375,1430.6563 C1126.2656,1430.875 1126,1431.0156 1125.7344,1431.0156 C1125.5156,1431.0156 1125.2813,1430.9063 1125.1406,1430.7656 C1125,1430.6406 1124.9688,1430.5156 1124.9063,1430.1094 C1124.8125,1429.7031 1124.6406,1429.4844 1124.1563,1429.2031 C1123.6875,1428.9531 1123.0781,1428.7969 1122.5,1428.7969 C1120.7656,1428.7969 1119.5156,1430.1094 1119.5156,1431.8906 L1119.5156,1432.9844 C1119.5156,1434.6875 1120.8125,1435.7813 1122.8594,1435.7813 C1123.625,1435.7813 1124.3125,1435.6563 1124.7344,1435.3906 C1124.9219,1435.2969 1124.9219,1435.2969 1125.375,1434.8125 C1125.5625,1434.625 1125.7656,1434.5469 1125.9844,1434.5469 C1126.4531,1434.5469 1126.8438,1434.9375 1126.8438,1435.3906 C1126.8438,1435.7813 1126.5156,1436.2344 1125.9375,1436.6406 C1125.1875,1437.1875 1124.0313,1437.4844 1122.8125,1437.4844 C1119.9219,1437.4844 1117.8125,1435.5938 1117.8125,1433.0156 L1117.8125,1431.8906 C1117.8125,1429.1719 1119.8125,1427.0938 1122.4375,1427.0938 C1123.3125,1427.0938 1123.9063,1427.2344 1124.8438,1427.6719 Z "/><text fill="#000000" font-family="sans-serif" font-size="12" lengthAdjust="spacingAndGlyphs" textLength="32" x="1136.5" y="1436.1543">Peon</text><line style="stroke: #A80036; stroke-width: 1.5;" x1="1108.5" x2="1170.5" y1="1448" y2="1448"/><line style="stroke: #A80036; stroke-width: 1.5;" x1="1108.5" x2="1170.5" y1="1456" y2="1456"/><!--MD5=[f999cc286deecd0f1a7c28edaec47660]
class Dama--><rect fill="#FEFECE" filter="url(#f50rhhsvq0uqb)" height="48" id="Dama" style="stroke: #A80036; stroke-width: 1.5;" width="68" x="1206.5" y="1416"/><ellipse cx="1221.5" cy="1432" fill="#ADD1B2" rx="11" ry="11" style="stroke: #A80036; stroke-width: 1.0;"/><path d="M1223.8438,1427.6719 L1224.0156,1427.75 C1224.2344,1427.4375 1224.4375,1427.3438 1224.7344,1427.3438 C1225.0313,1427.3438 1225.3125,1427.4844 1225.4688,1427.75 C1225.5625,1427.9063 1225.5781,1428.0313 1225.5781,1428.4688 L1225.5781,1429.8906 C1225.5781,1430.3125 1225.5469,1430.5 1225.4375,1430.6563 C1225.2656,1430.875 1225,1431.0156 1224.7344,1431.0156 C1224.5156,1431.0156 1224.2813,1430.9063 1224.1406,1430.7656 C1224,1430.6406 1223.9688,1430.5156 1223.9063,1430.1094 C1223.8125,1429.7031 1223.6406,1429.4844 1223.1563,1429.2031 C1222.6875,1428.9531 1222.0781,1428.7969 1221.5,1428.7969 C1219.7656,1428.7969 1218.5156,1430.1094 1218.5156,1431.8906 L1218.5156,1432.9844 C1218.5156,1434.6875 1219.8125,1435.7813 1221.8594,1435.7813 C1222.625,1435.7813 1223.3125,1435.6563 1223.7344,1435.3906 C1223.9219,1435.2969 1223.9219,1435.2969 1224.375,1434.8125 C1224.5625,1434.625 1224.7656,1434.5469 1224.9844,1434.5469 C1225.4531,1434.5469 1225.8438,1434.9375 1225.8438,1435.3906 C1225.8438,1435.7813 1225.5156,1436.2344 1224.9375,1436.6406 C1224.1875,1437.1875 1223.0313,1437.4844 1221.8125,1437.4844 C1218.9219,1437.4844 1216.8125,1435.5938 1216.8125,1433.0156 L1216.8125,1431.8906 C1216.8125,1429.1719 1218.8125,1427.0938 1221.4375,1427.0938 C1222.3125,1427.0938 1222.9063,1427.2344 1223.8438,1427.6719 Z "/><text fill="#000000" font-family="sans-serif" font-size="12" lengthAdjust="spacingAndGlyphs" textLength="36" x="1235.5" y="1436.1543">Dama</text><line style="stroke: #A80036; stroke-width: 1.5;" x1="1207.5" x2="1273.5" y1="1448" y2="1448"/><line style="stroke: #A80036; stroke-width: 1.5;" x1="1207.5" x2="1273.5" y1="1456" y2="1456"/><!--MD5=[18eee71c88ab61f27581b8cbdd3ef5ee]
class Color--><rect fill="#FEFECE" filter="url(#f50rhhsvq0uqb)" height="73.6094" id="Color" style="stroke: #A80036; stroke-width: 1.5;" width="64" x="1321.5" y="1403"/><ellipse cx="1336.5" cy="1419" fill="#EB937F" rx="11" ry="11" style="stroke: #A80036; stroke-width: 1.0;"/><path d="M1334.7969,1419.875 L1334.7969,1422.2969 L1339.1563,1422.2969 L1339.1563,1421.4219 C1339.1563,1420.9375 1339.1875,1420.7969 1339.2969,1420.6406 C1339.4688,1420.3906 1339.7344,1420.2813 1340,1420.2813 C1340.2813,1420.2813 1340.5625,1420.4375 1340.7344,1420.6875 C1340.8125,1420.8438 1340.8438,1420.9844 1340.8438,1421.4219 L1340.8438,1424 L1332.8438,1424 C1332.4531,1424 1332.2188,1423.9531 1332.0781,1423.8281 C1331.8594,1423.6719 1331.7188,1423.4219 1331.7188,1423.1563 C1331.7188,1422.8594 1331.875,1422.5938 1332.125,1422.4219 C1332.2813,1422.3125 1332.4375,1422.2969 1332.8438,1422.2969 L1333.0938,1422.2969 L1333.0938,1415.7813 L1332.8438,1415.7813 C1332.4219,1415.7813 1332.2344,1415.75 1332.0781,1415.6406 C1331.8594,1415.4688 1331.7188,1415.2188 1331.7188,1414.9375 C1331.7188,1414.6563 1331.875,1414.3594 1332.125,1414.2031 C1332.2813,1414.1094 1332.4063,1414.0938 1332.8438,1414.0938 L1340.4688,1414.0938 L1340.4688,1416.6406 C1340.4688,1417.1094 1340.4375,1417.25 1340.3281,1417.4219 C1340.1563,1417.6406 1339.8906,1417.7813 1339.625,1417.7813 C1339.3438,1417.7813 1339.0625,1417.625 1338.8906,1417.375 C1338.8125,1417.2188 1338.7813,1417.0469 1338.7813,1416.6406 L1338.7813,1415.7813 L1334.7969,1415.7813 L1334.7969,1418.1875 L1336.25,1418.1875 L1336.25,1418.0625 C1336.25,1417.6094 1336.2813,1417.4531 1336.3906,1417.2813 C1336.5625,1417.0625 1336.8281,1416.9219 1337.0781,1416.9219 C1337.5313,1416.9219 1337.8438,1417.2344 1337.9063,1417.7031 C1337.9219,1417.8594 1337.9219,1417.9063 1337.9219,1418.0625 L1337.9219,1419.9844 C1337.9219,1420.4375 1337.8906,1420.5938 1337.7656,1420.75 C1337.6094,1420.9688 1337.3438,1421.1094 1337.0938,1421.1094 C1336.7969,1421.1094 1336.5156,1420.9531 1336.3594,1420.7031 C1336.2813,1420.5469 1336.25,1420.3906 1336.25,1419.9844 L1336.25,1419.875 Z "/><text fill="#000000" font-family="sans-serif" font-size="12" lengthAdjust="spacingAndGlyphs" textLength="32" x="1350.5" y="1423.1543">Color</text><line style="stroke: #A80036; stroke-width: 1.5;" x1="1322.5" x2="1384.5" y1="1435" y2="1435"/><text fill="#000000" font-family="sans-serif" font-size="11" lengthAdjust="spacingAndGlyphs" textLength="34" x="1327.5" y="1449.2104">WHITE</text><text fill="#000000" font-family="sans-serif" font-size="11" lengthAdjust="spacingAndGlyphs" textLength="36" x="1327.5" y="1462.0151">BLACK</text><line style="stroke: #A80036; stroke-width: 1.5;" x1="1322.5" x2="1384.5" y1="1468.6094" y2="1468.6094"/><!--MD5=[167506e288131cdf3986fedef83acd94]
class StateValue--><rect fill="#FEFECE" filter="url(#f50rhhsvq0uqb)" height="99.2188" id="StateValue" style="stroke: #A80036; stroke-width: 1.5;" width="101" x="1295" y="396"/><ellipse cx="1310" cy="412" fill="#EB937F" rx="11" ry="11" style="stroke: #A80036; stroke-width: 1.0;"/><path d="M1308.2969,412.875 L1308.2969,415.2969 L1312.6563,415.2969 L1312.6563,414.4219 C1312.6563,413.9375 1312.6875,413.7969 1312.7969,413.6406 C1312.9688,413.3906 1313.2344,413.2813 1313.5,413.2813 C1313.7813,413.2813 1314.0625,413.4375 1314.2344,413.6875 C1314.3125,413.8438 1314.3438,413.9844 1314.3438,414.4219 L1314.3438,417 L1306.3438,417 C1305.9531,417 1305.7188,416.9531 1305.5781,416.8281 C1305.3594,416.6719 1305.2188,416.4219 1305.2188,416.1563 C1305.2188,415.8594 1305.375,415.5938 1305.625,415.4219 C1305.7813,415.3125 1305.9375,415.2969 1306.3438,415.2969 L1306.5938,415.2969 L1306.5938,408.7813 L1306.3438,408.7813 C1305.9219,408.7813 1305.7344,408.75 1305.5781,408.6406 C1305.3594,408.4688 1305.2188,408.2188 1305.2188,407.9375 C1305.2188,407.6563 1305.375,407.3594 1305.625,407.2031 C1305.7813,407.1094 1305.9063,407.0938 1306.3438,407.0938 L1313.9688,407.0938 L1313.9688,409.6406 C1313.9688,410.1094 1313.9375,410.25 1313.8281,410.4219 C1313.6563,410.6406 1313.3906,410.7813 1313.125,410.7813 C1312.8438,410.7813 1312.5625,410.625 1312.3906,410.375 C1312.3125,410.2188 1312.2813,410.0469 1312.2813,409.6406 L1312.2813,408.7813 L1308.2969,408.7813 L1308.2969,411.1875 L1309.75,411.1875 L1309.75,411.0625 C1309.75,410.6094 1309.7813,410.4531 1309.8906,410.2813 C1310.0625,410.0625 1310.3281,409.9219 1310.5781,409.9219 C1311.0313,409.9219 1311.3438,410.2344 1311.4063,410.7031 C1311.4219,410.8594 1311.4219,410.9063 1311.4219,411.0625 L1311.4219,412.9844 C1311.4219,413.4375 1311.3906,413.5938 1311.2656,413.75 C1311.1094,413.9688 1310.8438,414.1094 1310.5938,414.1094 C1310.2969,414.1094 1310.0156,413.9531 1309.8594,413.7031 C1309.7813,413.5469 1309.75,413.3906 1309.75,412.9844 L1309.75,412.875 Z "/><text fill="#000000" font-family="sans-serif" font-size="12" lengthAdjust="spacingAndGlyphs" textLength="69" x="1324" y="416.1543">StateValue</text><line style="stroke: #A80036; stroke-width: 1.5;" x1="1296" x2="1395" y1="428" y2="428"/><text fill="#000000" font-family="sans-serif" font-size="11" lengthAdjust="spacingAndGlyphs" textLength="37" x="1301" y="442.2104">INITIAL</text><text fill="#000000" font-family="sans-serif" font-size="11" lengthAdjust="spacingAndGlyphs" textLength="27" x="1301" y="455.0151">PLAY</text><text fill="#000000" font-family="sans-serif" font-size="11" lengthAdjust="spacingAndGlyphs" textLength="30" x="1301" y="467.8198">FINAL</text><text fill="#000000" font-family="sans-serif" font-size="11" lengthAdjust="spacingAndGlyphs" textLength="24" x="1301" y="480.6245">EXIT</text><line style="stroke: #A80036; stroke-width: 1.5;" x1="1296" x2="1395" y1="487.2188" y2="487.2188"/><!--MD5=[0df676fd1a7ae9c7044c26c3687b32a8]
link Draughts to Logic--><path d="M1002.0912,76.7091 C1002.0912,76.7091 1039.79,106.82 1057.07,120.62 " fill="none" id="Draughts-Logic" style="stroke: #A80036; stroke-width: 1.0;"/><polygon fill="#A80036" points="1067.5,128.95,1062.965,120.2074,1063.5935,125.8292,1057.9717,126.4578,1067.5,128.95" style="stroke: #A80036; stroke-width: 1.0;"/><line style="stroke: #A80036; stroke-width: 1.0;" x1="1063.5935" x2="1057.34" y1="125.8292" y2="120.835"/><polygon fill="#A80036" points="992.715,69.22,994.9067,76.09,1002.0912,76.7091,999.8995,69.8391,992.715,69.22" style="stroke: #A80036; stroke-width: 1.0;"/><!--MD5=[1a13faf993463737a95c2d78d36c6b2d]
link Draughts to View--><path d="M926.4799,79.1062 C926.4799,79.1062 858.54,186.21 842.5,250 C833.18,287.07 835.332,298.46 842.5,336 C846.854,358.8 855.922,382.93 864.614,402.62 " fill="none" id="Draughts-View" style="stroke: #A80036; stroke-width: 1.0;"/><polygon fill="#A80036" points="870.075,414.56,869.9739,404.7117,867.9975,410.012,862.6971,408.0357,870.075,414.56" style="stroke: #A80036; stroke-width: 1.0;"/><line style="stroke: #A80036; stroke-width: 1.0;" x1="867.9975" x2="864.6685" y1="410.012" y2="402.74"/><polygon fill="#A80036" points="933.325,69.25,926.617,71.8964,926.4799,79.1062,933.1878,76.4598,933.325,69.25" style="stroke: #A80036; stroke-width: 1.0;"/><!--MD5=[7658b38a0e8ae3fca15abd6e73018d92]
link ConsoleViewlol1157602 to ConsoleView--><path d="M390.5,450.7 C390.5,465.43 390.5,515.942 390.5,554.903 " fill="none" id="ConsoleViewlol1157602-ConsoleView" style="stroke: #A80036; stroke-width: 1.0;"/><!--MD5=[dbdcaab34fb81d463c2fea3758e8e729]
link ConsoleView to StartController--><path d="M410.559,654.215 C421.997,681.994 436.057,716.138 446.341,741.113 " fill="none" id="ConsoleView-&gt;StartController" style="stroke: #A80036; stroke-width: 1.0; stroke-dasharray: 7.0,7.0;"/><polygon fill="#A80036" points="448.345,745.981,448.6156,736.1359,446.4406,741.3579,441.2186,739.1829,448.345,745.981" style="stroke: #A80036; stroke-width: 1.0;"/><!--MD5=[5515b8ab97826024bd2d193b6e477e38]
link ConsoleView to PlayController--><path d="M473.316,654.215 C510.501,676.089 554.394,701.909 592.105,724.091 " fill="none" id="ConsoleView-&gt;PlayController" style="stroke: #A80036; stroke-width: 1.0; stroke-dasharray: 7.0,7.0;"/><polygon fill="#A80036" points="596.672,726.778,590.9433,718.7667,592.3625,724.2426,586.8866,725.6618,596.672,726.778" style="stroke: #A80036; stroke-width: 1.0;"/><!--MD5=[dc58898686e75d9ef652d104d9f3fb92]
link ConsoleView to ResumeController--><path d="M535.523,634.105 C619.531,652.681 726.531,679.806 818.5,714 C840.553,722.199 863.854,733.199 884.175,743.629 " fill="none" id="ConsoleView-&gt;ResumeController" style="stroke: #A80036; stroke-width: 1.0; stroke-dasharray: 7.0,7.0;"/><polygon fill="#A80036" points="888.732,745.984,882.5736,738.298,884.2903,743.6881,878.9002,745.4048,888.732,745.984" style="stroke: #A80036; stroke-width: 1.0;"/><!--MD5=[2b3d48df6f113d7f7650f0ea2726d5e1]
link ConsoleView to StartView--><path d="M233.9604,654.5783 C233.9604,654.5783 150.724,690.579 114.5,714 C102.1467,721.987 90.1776,732.661 80.0498,742.873 " fill="none" id="ConsoleView-StartView" style="stroke: #A80036; stroke-width: 1.0;"/><polygon fill="#A80036" points="70.9514,752.419,80.0562,748.6636,74.4009,748.7995,74.265,743.1443,70.9514,752.419" style="stroke: #A80036; stroke-width: 1.0;"/><line style="stroke: #A80036; stroke-width: 1.0;" x1="74.4009" x2="79.9206" y1="748.7995" y2="743.008"/><polygon fill="#A80036" points="245.146,650.233,238.1048,648.6771,233.9604,654.5783,241.0016,656.1342,245.146,650.233" style="stroke: #A80036; stroke-width: 1.0;"/><!--MD5=[d2479a754624c0a936f49074520406c3]
link ConsoleView to PlayView--><path d="M365.8727,665.3114 C365.8727,665.3114 343.839,718.819 335.048,740.17 " fill="none" id="ConsoleView-PlayView" style="stroke: #A80036; stroke-width: 1.0;"/><polygon fill="#A80036" points="330.08,752.235,337.2055,745.4359,331.9837,747.6116,329.808,742.3899,330.08,752.235" style="stroke: #A80036; stroke-width: 1.0;"/><line style="stroke: #A80036; stroke-width: 1.0;" x1="331.9837" x2="335.0295" y1="747.6116" y2="740.2145"/><polygon fill="#A80036" points="370.441,654.215,364.458,658.2404,365.8727,665.3114,371.8556,661.286,370.441,654.215" style="stroke: #A80036; stroke-width: 1.0;"/><!--MD5=[fa8503f33b2b65994679c53598b796d7]
link ConsoleView to ResumeView--><path d="M322.995,661.7396 C322.995,661.7396 280.45,697.272 260.5,714 C248.931,723.701 236.35,734.287 224.943,743.899 " fill="none" id="ConsoleView-ResumeView" style="stroke: #A80036; stroke-width: 1.0;"/><polygon fill="#A80036" points="214.86,752.399,224.3193,749.6563,218.6828,749.1762,219.1628,743.5398,214.86,752.399" style="stroke: #A80036; stroke-width: 1.0;"/><line style="stroke: #A80036; stroke-width: 1.0;" x1="218.6828" x2="224.7995" y1="749.1762" y2="744.0195"/><polygon fill="#A80036" points="332.21,654.053,325.0403,654.8247,322.995,661.7396,330.1647,660.968,332.21,654.053" style="stroke: #A80036; stroke-width: 1.0;"/><!--MD5=[2b5890793a76472eff4c2a6a4af43287]
link StartView to BoardView--><path d="M76.4388,810.1059 C76.4388,810.1059 136.943,889.209 160.897,920.527 " fill="none" id="StartView-BoardView" style="stroke: #A80036; stroke-width: 1.0;"/><polygon fill="#A80036" points="168.847,930.92,166.5568,921.3411,165.8095,926.9484,160.2022,926.2011,168.847,930.92" style="stroke: #A80036; stroke-width: 1.0;"/><line style="stroke: #A80036; stroke-width: 1.0;" x1="165.8095" x2="160.949" y1="926.9484" y2="920.594"/><polygon fill="#A80036" points="69.1489,800.574,69.6166,807.7699,76.4388,810.1059,75.9712,802.91,69.1489,800.574" style="stroke: #A80036; stroke-width: 1.0;"/><!--MD5=[df6dfd0189eff65051b97f6f6f0a9eb9]
link PlayView to BoardView--><path d="M295.7256,810.1314 C295.7256,810.1314 235.69,889.209 211.913,920.527 " fill="none" id="PlayView-BoardView" style="stroke: #A80036; stroke-width: 1.0;"/><polygon fill="#A80036" points="204.022,930.92,212.6497,926.17,207.0452,926.9375,206.2777,921.3329,204.022,930.92" style="stroke: #A80036; stroke-width: 1.0;"/><line style="stroke: #A80036; stroke-width: 1.0;" x1="207.0452" x2="211.883" y1="926.9375" y2="920.566"/><polygon fill="#A80036" points="302.982,800.574,296.168,802.9339,295.7256,810.1314,302.5396,807.7715,302.982,800.574" style="stroke: #A80036; stroke-width: 1.0;"/><!--MD5=[1da976b7dcb1fe206bce8dbcd0140d73]
link BoardView to SquareView--><path d="M186.5,979.177 C186.5,1012.636 186.5,1074.414 186.5,1110.579 " fill="none" id="BoardView-&gt;SquareView" style="stroke: #A80036; stroke-width: 1.0; stroke-dasharray: 7.0,7.0;"/><polygon fill="#A80036" points="186.5,1115.723,190.5,1106.723,186.5,1110.723,182.5,1106.723,186.5,1115.723" style="stroke: #A80036; stroke-width: 1.0;"/><!--MD5=[2a46801f3588ffd01d45d2691774a6d3]
link SquareView to PieceView--><path d="M186.5,1164.149 C186.5,1193.696 186.5,1244.789 186.5,1276.641 " fill="none" id="SquareView-&gt;PieceView" style="stroke: #A80036; stroke-width: 1.0; stroke-dasharray: 7.0,7.0;"/><polygon fill="#A80036" points="186.5,1281.968,190.5,1272.968,186.5,1276.968,182.5,1272.968,186.5,1281.968" style="stroke: #A80036; stroke-width: 1.0;"/><!--MD5=[57070e04af1ab79c5a79c6aefe469b18]
link View to Controller--><path d="M890.767,476.03 C895.464,502.371 902.346,540.96 907.307,568.773 " fill="none" id="View-&gt;Controller" style="stroke: #A80036; stroke-width: 1.0; stroke-dasharray: 7.0,7.0;"/><polygon fill="#A80036" points="908.21,573.835,910.5688,564.2728,907.3327,568.9126,902.6929,565.6765,908.21,573.835" style="stroke: #A80036; stroke-width: 1.0;"/><!--MD5=[8a26891d769070b6d3ad41ee85c79103]
reverse link AcceptController to View--><path d="M959.088,352.21 C942.001,373.64 923.363,397.01 909.119,414.88 " fill="none" id="AcceptController&lt;-View" style="stroke: #A80036; stroke-width: 1.0;"/><polygon fill="none" points="953.812,347.6,971.754,336.32,964.759,356.32,953.812,347.6" style="stroke: #A80036; stroke-width: 1.0;"/><!--MD5=[153babd62505a2f5355991eb7c8026e3]
link Logic to State--><path d="M1169.1237,195.7581 C1169.1237,195.7581 1228.06,227.92 1256.64,243.51 " fill="none" id="Logic-State" style="stroke: #A80036; stroke-width: 1.0;"/><polygon fill="#A80036" points="1268.29,249.87,1262.2982,242.0535,1263.8986,247.4792,1258.4729,249.0797,1268.29,249.87" style="stroke: #A80036; stroke-width: 1.0;"/><line style="stroke: #A80036; stroke-width: 1.0;" x1="1263.8986" x2="1256.875" y1="247.4792" y2="243.645"/><polygon fill="#A80036" points="1158.59,190.01,1161.9408,196.3953,1169.1237,195.7581,1165.7729,189.3728,1158.59,190.01" style="stroke: #A80036; stroke-width: 1.0;"/><!--MD5=[6741a2aa1692821dc3ed1fc83dbb2896]
link Logic to Game--><path d="M1138.8772,199.51 C1138.8772,199.51 1161.27,232.45 1167.5,250 C1221.76,402.95 1218.09,596.388 1210.73,700.669 " fill="none" id="Logic-Game" style="stroke: #A80036; stroke-width: 1.0;"/><polygon fill="#A80036" points="1209.75,713.857,1214.4088,705.1797,1210.1222,708.8709,1206.431,704.5842,1209.75,713.857" style="stroke: #A80036; stroke-width: 1.0;"/><line style="stroke: #A80036; stroke-width: 1.0;" x1="1210.1222" x2="1210.715" y1="708.8709" y2="700.8935"/><polygon fill="#A80036" points="1131.52,190.03,1132.0386,197.2224,1138.8772,199.51,1138.3586,192.3176,1131.52,190.03" style="stroke: #A80036; stroke-width: 1.0;"/><!--MD5=[8274c24dc463c9eebed4862afdd856c5]
link Logic to AcceptController--><path d="M1075.0652,199.5989 C1075.0652,199.5989 1054.98,226.27 1045.24,239.21 " fill="none" id="Logic-AcceptController" style="stroke: #A80036; stroke-width: 1.0;"/><polygon fill="#A80036" points="1037.22,249.87,1045.8274,245.0832,1040.2262,245.8746,1039.4348,240.2734,1037.22,249.87" style="stroke: #A80036; stroke-width: 1.0;"/><line style="stroke: #A80036; stroke-width: 1.0;" x1="1040.2262" x2="1045.035" y1="245.8746" y2="239.485"/><polygon fill="#A80036" points="1082.28,190.01,1075.4763,192.3995,1075.0652,199.5989,1081.8689,197.2094,1082.28,190.01" style="stroke: #A80036; stroke-width: 1.0;"/><!--MD5=[86bad62079e36fbeccb89c52e0edab6b]
link Controller to AcceptController--><path d="M931.972,573.712 C944.343,552.494 960.04,522.905 969.5,495 C986.8,443.97 996.248,382.68 1001.069,341.3 " fill="none" id="Controller-&gt;AcceptController" style="stroke: #A80036; stroke-width: 1.0; stroke-dasharray: 7.0,7.0;"/><polygon fill="#A80036" points="1001.662,336.1,996.6599,344.584,1001.0907,341.0673,1004.6075,345.4981,1001.662,336.1" style="stroke: #A80036; stroke-width: 1.0;"/><!--MD5=[354d6deacb49030493b7fd8cb23ebdce]
reverse link Controller to StartController--><path d="M796.995,627.646 C721.243,644.837 621.808,672.777 540.5,714 C523.781,722.476 507.062,734.611 493.264,745.865 " fill="none" id="Controller&lt;-StartController" style="stroke: #A80036; stroke-width: 1.0;"/><polygon fill="none" points="795.667,620.77,816.706,623.293,798.686,634.441,795.667,620.77" style="stroke: #A80036; stroke-width: 1.0;"/><!--MD5=[5099ef832410dfc1f0136dd1b887067e]
reverse link Controller to PlayController--><path d="M856.259,647.085 C823.05,671.212 781.06,701.717 746.34,726.941 " fill="none" id="Controller&lt;-PlayController" style="stroke: #A80036; stroke-width: 1.0;"/><polygon fill="none" points="852.445,641.204,872.74,635.112,860.674,652.53,852.445,641.204" style="stroke: #A80036; stroke-width: 1.0;"/><!--MD5=[dfabfd7c269c7ef3ab5bdd4c723fcdb8]
reverse link Controller to ResumeController--><path d="M921.667,655.083 C926.52,684.548 932.512,720.928 936.632,745.943 " fill="none" id="Controller&lt;-ResumeController" style="stroke: #A80036; stroke-width: 1.0;"/><polygon fill="none" points="914.721,655.984,918.377,635.112,928.535,653.708,914.721,655.984" style="stroke: #A80036; stroke-width: 1.0;"/><!--MD5=[af3c341f28b4ad1078e652ece2043f79]
link Controller to Game--><path d="M974.3662,641.1809 C974.3662,641.1809 1048.84,684.837 1087.1,707.267 " fill="none" id="Controller-Game" style="stroke: #A80036; stroke-width: 1.0;"/><polygon fill="#A80036" points="1098.34,713.856,1092.5968,705.855,1094.026,711.3283,1088.5526,712.7575,1098.34,713.856" style="stroke: #A80036; stroke-width: 1.0;"/><line style="stroke: #A80036; stroke-width: 1.0;" x1="1094.026" x2="1087.13" y1="711.3283" y2="707.2815"/><polygon fill="#FFFFFF" points="964.014,635.112,967.1671,641.5972,974.3662,641.1809,971.2131,634.6957,964.014,635.112" style="stroke: #A80036; stroke-width: 1.0;"/><!--MD5=[10e7a15d72d4dbff125a2050ab7515f4]
link PlayController to Coordinate--><path d="M619.078,826.197 C578.321,859.044 526.127,901.109 492.99,927.815 " fill="none" id="PlayController-&gt;Coordinate" style="stroke: #A80036; stroke-width: 1.0; stroke-dasharray: 7.0,7.0;"/><polygon fill="#A80036" points="489.045,930.994,498.5626,928.4612,492.9382,927.8566,493.5428,922.2322,489.045,930.994" style="stroke: #A80036; stroke-width: 1.0;"/><!--MD5=[951b5087c5691a61a9f8ccb8afb4a7d2]
link PlayView to Coordinate--><path d="M338.803,800.574 C364.585,833.079 411.51,892.237 438.946,926.827 " fill="none" id="PlayView-&gt;Coordinate" style="stroke: #A80036; stroke-width: 1.0; stroke-dasharray: 7.0,7.0;"/><polygon fill="#A80036" points="442.193,930.92,439.7338,921.3831,439.0858,927.0027,433.4661,926.3547,442.193,930.92" style="stroke: #A80036; stroke-width: 1.0;"/><!--MD5=[b94394660510484de355bb836dd48dea]
link PlayController to CancelController--><path d="M660.7541,837.6534 C660.7541,837.6534 644.478,889.89 637.669,911.741 " fill="none" id="PlayController-CancelController" style="stroke: #A80036; stroke-width: 1.0;"/><polygon fill="#A80036" points="633.765,924.268,640.2612,916.8653,635.2524,919.4944,632.6233,914.4855,633.765,924.268" style="stroke: #A80036; stroke-width: 1.0;"/><line style="stroke: #A80036; stroke-width: 1.0;" x1="635.2524" x2="637.633" y1="919.4944" y2="911.8565"/><polygon fill="#A80036" points="664.325,826.197,658.7208,830.7349,660.7541,837.6534,666.3584,833.1155,664.325,826.197" style="stroke: #A80036; stroke-width: 1.0;"/><!--MD5=[bc6967f4e83122b7de6ea8c688cbf195]
link PlayController to MoveController--><path d="M734.4257,834.8649 C734.4257,834.8649 788.637,891.48 810.907,914.738 " fill="none" id="PlayController-MoveController" style="stroke: #A80036; stroke-width: 1.0;"/><polygon fill="#A80036" points="820.032,924.268,816.6973,915.0009,816.5742,920.6564,810.9187,920.5333,820.032,924.268" style="stroke: #A80036; stroke-width: 1.0;"/><line style="stroke: #A80036; stroke-width: 1.0;" x1="816.5742" x2="811.0405" y1="920.6564" y2="914.8785"/><polygon fill="#A80036" points="726.127,826.197,727.387,833.2972,734.4257,834.8649,733.1656,827.7647,726.127,826.197" style="stroke: #A80036; stroke-width: 1.0;"/><!--MD5=[15c8f9ca3aac13d865864b4eb5314ef1]
link Game to Board--><path d="M1203.5,851.231 C1203.5,851.231 1203.5,874.694 1203.5,885.442 " fill="none" id="Game-Board" style="stroke: #A80036; stroke-width: 1.0;"/><polygon fill="#A80036" points="1203.5,898.786,1207.5,889.786,1203.5,893.786,1199.5,889.786,1203.5,898.786" style="stroke: #A80036; stroke-width: 1.0;"/><line style="stroke: #A80036; stroke-width: 1.0;" x1="1203.5" x2="1203.5" y1="893.786" y2="885.786"/><polygon fill="#A80036" points="1203.5,839.231,1199.5,845.231,1203.5,851.231,1207.5,845.231,1203.5,839.231" style="stroke: #A80036; stroke-width: 1.0;"/><!--MD5=[b9f1e39ad85d50fe6f3a071a4341c320]
link Game to Turn--><path d="M1303.2078,847.3187 C1303.2078,847.3187 1333,880.309 1342.5,899 C1401.93,1015.866 1394.19,1176.239 1385.38,1255.925 " fill="none" id="Game-Turn" style="stroke: #A80036; stroke-width: 1.0;"/><polygon fill="#A80036" points="1383.85,1268.921,1388.8728,1260.4492,1384.4334,1263.9551,1380.9274,1259.5158,1383.85,1268.921" style="stroke: #A80036; stroke-width: 1.0;"/><line style="stroke: #A80036; stroke-width: 1.0;" x1="1384.4334" x2="1385.37" y1="1263.9551" y2="1256.009"/><polygon fill="#A80036" points="1294.5,839.062,1296.1017,846.093,1303.2078,847.3187,1301.6062,840.2878,1294.5,839.062" style="stroke: #A80036; stroke-width: 1.0;"/><!--MD5=[1a0cf06120a956b80e7a42bb075f06c6]
link Game to Error--><path d="M1113.51,839.072 C1094.46,856.289 1076.5,876.523 1064.5,899 C1037.14,950.236 1030.29,1016.129 1029.78,1065.904 " fill="none" id="Game-&gt;Error" style="stroke: #A80036; stroke-width: 1.0; stroke-dasharray: 7.0,7.0;"/><polygon fill="#A80036" points="1029.75,1070.974,1033.8039,1061.9982,1029.78,1065.9741,1025.8041,1061.9502,1029.75,1070.974" style="stroke: #A80036; stroke-width: 1.0;"/><!--MD5=[4ad96441c8a01d959d4bf4f2a5e1a798]
link Board to Square--><path d="M1223.2461,1022.9124 C1223.2461,1022.9124 1238.65,1075.121 1245,1096.629 " fill="none" id="Board-Square" style="stroke: #A80036; stroke-width: 1.0;"/><polygon fill="#A80036" points="1248.73,1109.288,1250.0204,1099.524,1247.3155,1104.4923,1242.3472,1101.7873,1248.73,1109.288" style="stroke: #A80036; stroke-width: 1.0;"/><line style="stroke: #A80036; stroke-width: 1.0;" x1="1247.3155" x2="1245.055" y1="1104.4923" y2="1096.8195"/><polygon fill="#A80036" points="1219.85,1011.403,1217.7116,1018.2897,1223.2461,1022.9124,1225.3845,1016.0257,1219.85,1011.403" style="stroke: #A80036; stroke-width: 1.0;"/><text fill="#000000" font-family="sans-serif" font-size="13" lengthAdjust="spacingAndGlyphs" textLength="23" x="1221.5493" y="1098.5075">8x8</text><!--MD5=[0a810b5c09181f50bb8c28d8cc6d44bf]
link Board to Piece--><path d="M1186.5203,1023.1973 C1186.5203,1023.1973 1167.53,1147.499 1181.5,1209 C1185.74,1227.67 1194.08,1246.95 1202.51,1263.289 " fill="none" id="Board-Piece" style="stroke: #A80036; stroke-width: 1.0;"/><polygon fill="#A80036" points="1208.91,1275.151,1208.1594,1265.3308,1206.537,1270.75,1201.1178,1269.1276,1208.91,1275.151" style="stroke: #A80036; stroke-width: 1.0;"/><line style="stroke: #A80036; stroke-width: 1.0;" x1="1206.537" x2="1202.735" y1="1270.75" y2="1263.7085"/><polygon fill="#A80036" points="1188.97,1011.45,1183.8294,1016.5071,1186.5203,1023.1973,1191.6609,1018.1402,1188.97,1011.45" style="stroke: #A80036; stroke-width: 1.0;"/><text fill="#000000" font-family="sans-serif" font-size="13" lengthAdjust="spacingAndGlyphs" textLength="47" x="1153.2289" y="1264.3423">1..2x12</text><!--MD5=[7f34f2d425e9b3ee5350efe269b05f59]
link Board to Error--><path d="M1152.03,1011.403 C1133.17,1031.705 1111.69,1054.83 1092.24,1075.767 " fill="none" id="Board-&gt;Error" style="stroke: #A80036; stroke-width: 1.0; stroke-dasharray: 7.0,7.0;"/><polygon fill="#A80036" points="1088.63,1079.649,1097.6892,1075.7849,1092.036,1075.9885,1091.8324,1070.3353,1088.63,1079.649" style="stroke: #A80036; stroke-width: 1.0;"/><!--MD5=[f6467046f93aba88bed66e3f7374a456]
link Square to Piece--><path d="M1252.07,1170.699 C1246.94,1198.709 1239.26,1240.691 1233.86,1270.246 " fill="none" id="Square-&gt;Piece" style="stroke: #A80036; stroke-width: 1.0;"/><polygon fill="#A80036" points="1232.94,1275.245,1238.4959,1267.1128,1233.8407,1270.3268,1230.6267,1265.6717,1232.94,1275.245" style="stroke: #A80036; stroke-width: 1.0;"/><text fill="#000000" font-family="sans-serif" font-size="13" lengthAdjust="spacingAndGlyphs" textLength="24" x="1207.587" y="1264.4556">0..1</text><!--MD5=[b4762c98ff2891982c681cb2d4501c81]
reverse link Piece to Peon--><path d="M1196.57,1353.399 C1182.54,1374.442 1166.56,1398.4078 1155.09,1415.6184 " fill="none" id="Piece&lt;-Peon" style="stroke: #A80036; stroke-width: 1.0;"/><polygon fill="none" points="1190.83,1349.381,1207.75,1336.623,1202.48,1357.147,1190.83,1349.381" style="stroke: #A80036; stroke-width: 1.0;"/><!--MD5=[7227ae427f20c66f04de02db253370d8]
reverse link Piece to Dama--><path d="M1232.38,1356.576 C1234.38,1376.821 1236.59,1399.2683 1238.2,1415.6184 " fill="none" id="Piece&lt;-Dama" style="stroke: #A80036; stroke-width: 1.0;"/><polygon fill="none" points="1225.41,1357.213,1230.42,1336.623,1239.34,1355.841,1225.41,1357.213" style="stroke: #A80036; stroke-width: 1.0;"/><!--MD5=[2f378bb2f56593d68624f1790be1dbac]
link Piece to Color--><path d="M1264.0678,1345.3012 C1264.0678,1345.3012 1296.86,1379.6649 1312.11,1395.6405 " fill="none" id="Piece-Color" style="stroke: #A80036; stroke-width: 1.0;"/><polygon fill="#A80036" points="1321.32,1405.2878,1318.0044,1396.0138,1317.8697,1401.6691,1312.2144,1401.5343,1321.32,1405.2878" style="stroke: #A80036; stroke-width: 1.0;"/><line style="stroke: #A80036; stroke-width: 1.0;" x1="1317.8697" x2="1312.345" y1="1401.6691" y2="1395.8841"/><polygon fill="#A80036" points="1255.78,1336.623,1257.0312,1343.7247,1264.0678,1345.3012,1262.8167,1338.1995,1255.78,1336.623" style="stroke: #A80036; stroke-width: 1.0;"/><!--MD5=[154f2bb56f79ee09018871fe08a1e8f9]
link Turn to Color--><path d="M1369.4372,1354.8604 C1369.4372,1354.8604 1364.87,1378.9607 1362.79,1389.9702 " fill="none" id="Turn-Color" style="stroke: #A80036; stroke-width: 1.0;"/><polygon fill="#A80036" points="1360.32,1402.974,1365.9251,1394.8757,1361.2505,1398.0614,1358.0649,1393.3868,1360.32,1402.974" style="stroke: #A80036; stroke-width: 1.0;"/><line style="stroke: #A80036; stroke-width: 1.0;" x1="1361.2505" x2="1362.74" y1="1398.0614" y2="1390.2011"/><polygon fill="#A80036" points="1371.67,1343.07,1366.6235,1348.221,1369.4372,1354.8604,1374.4837,1349.7095,1371.67,1343.07" style="stroke: #A80036; stroke-width: 1.0;"/><!--MD5=[04ee8f1a549f099cd30b455604f649af]
link State to StateValue--><path d="M1345.5,348.32 C1345.5,348.32 1345.5,371.62 1345.5,382.66 " fill="none" id="State-StateValue" style="stroke: #A80036; stroke-width: 1.0;"/><polygon fill="#A80036" points="1345.5,395.86,1349.5,386.86,1345.5,390.86,1341.5,386.86,1345.5,395.86" style="stroke: #A80036; stroke-width: 1.0;"/><line style="stroke: #A80036; stroke-width: 1.0;" x1="1345.5" x2="1345.5" y1="390.86" y2="382.86"/><polygon fill="#A80036" points="1345.5,336.32,1341.5,342.32,1345.5,348.32,1349.5,342.32,1345.5,336.32" style="stroke: #A80036; stroke-width: 1.0;"/><!--MD5=[ca9d5d6e65318f7a079d659343840161]
@startuml
class Draughts {
+ play()
}
Draughts *-down-> Logic
Draughts *-down-> View

interface View {
+ interact(Controller)
}

class ConsoleView #orange {
+ interact(Controller)
+ visit(StartController startController):void 
+ visit(PlayController playController):void 
+ visit(ResumeController resumeController):void 
}

View ()- - ConsoleView
ConsoleView ..> StartController
ConsoleView ..> PlayController
ConsoleView ..> ResumeController

class StartView {
}

class PlayView {
}

class ResumeView {
}

ConsoleView *-down-> StartView
ConsoleView *-down-> PlayView
ConsoleView *-down-> ResumeView

StartView *-down-> BoardView
PlayView *-down-> BoardView
BoardView ..> SquareView
SquareView ..> PieceView

View ..> Controller
AcceptController <|-down- View

class Logic{
+ getController()
}

Logic *- -> State
Logic *- -> Game
Logic *-down-> AcceptController

abstract class Controller{
  + {abstract} accept(AcceptController):void 
}

interface AcceptController{
  + visit(StartController startController):void 
  + visit(PlayController playController):void 
  + visit(ResumeController resumeController):void 
}

Controller ..> AcceptController
Controller <|-down- StartController
Controller <|-down- PlayController
Controller <|-down- ResumeController
Controller o- -> Game

class StartController{
 + start():void
}

class MoveController{
  + move(Coordinate... coordinates):Error 
}

class CancelController{
  + cancel():void
}

class ResumeController{
 + resume(boolean newGame):void
}

class PlayController{
  + move(Coordinate... coordinates):Error
  + getPiece(Coordinate origin):Piece
  + getTurn():Turn
  + cancel():void
}
PlayController ..> Coordinate

PlayView ..> Coordinate

class Coordinate{
}

PlayController *-down-> CancelController
PlayController *-down-> MoveController


class Game{
  + move(Coordinate... coordinates):Error
  + getPiece(Coordinate origin):Piece
  + isFinished():boolean
  + isWinner():boolean
  + isTie():boolean
  + reset():void
}
Game *-down-> Board
Game *-down-> Turn
Game ..> Error

class Board{
  + move(Coordinate... coordinates):Error
  + getPiece(Coordinate origin):Piece
  + isMovementsAllowed():boolean
  + isMovementsAllowed(Color):boolean 
  + Contains(Color):boolean
}
Board *-down-> "8x8" Square
Board *-down-> "1..2x12" Piece
Board ..> Error

class Square{
  + getPiece():Piece
}
Square  - -> "0..1" Piece

abstract class Piece{
  + getColor():Color 
}
Piece <|-down- Peon
Piece <|-down- Dama
Piece *- -> Color 

class Peon{
}

class Dama{
}

enum Color{
    WHITE
    BLACK
}

class Turn{
  + next():void
  + getColor():Color 
}
Turn *- -> Color

class State{
  + next():void
  + reset():void
  + getValueState():StateValue
}
State *- -> StateValue

enum StateValue{
  INITIAL
  PLAY
  FINAL
  EXIT
}

enum Error{
  DISTANCE, 
	OCCUPED, 
	NO_PIECE, 
	COORDINATES, 
	BAD_MOVE, 
	CAPTURE_EXCED, 
	NO_TURN
}
@enduml

PlantUML version 1.2019.11(Sun Sep 22 10:02:15 UTC 2019)
(GPL source distribution)
Java Runtime: Java(TM) SE Runtime Environment
JVM: Java HotSpot(TM) 64-Bit Server VM
Java Version: 1.7.0_25-b15
Operating System: Linux
Default Encoding: UTF-8
Language: en
Country: US
--></g></svg>