<?xml version="1.0" encoding="UTF-8" standalone="no"?><svg xmlns="http://www.w3.org/2000/svg" xmlns:xlink="http://www.w3.org/1999/xlink" contentScriptType="application/ecmascript" contentStyleType="text/css" height="1601px" preserveAspectRatio="none" style="width:1580px;height:1601px;" version="1.1" viewBox="0 0 1580 1601" width="1580px" zoomAndPan="magnify"><defs><filter height="300%" id="f15whunlmv95u8" width="300%" x="-1" y="-1"><feGaussianBlur result="blurOut" stdDeviation="2.0"/><feColorMatrix in="blurOut" result="blurOut2" type="matrix" values="0 0 0 0 0 0 0 0 0 0 0 0 0 0 0 0 0 0 .4 0"/><feOffset dx="4.0" dy="4.0" in="blurOut2" result="blurOut3"/><feBlend in="SourceGraphic" in2="blurOut3" mode="normal"/></filter></defs><g><!--MD5=[d47d0f62a44c2fb80ffb26ee681928bb]
class Draughts--><rect fill="#FEFECE" filter="url(#f15whunlmv95u8)" height="60.8047" id="Draughts" style="stroke: #A80036; stroke-width: 1.5;" width="90" x="728" y="8"/><ellipse cx="743" cy="24" fill="#ADD1B2" rx="11" ry="11" style="stroke: #A80036; stroke-width: 1.0;"/><path d="M745.3438,19.6719 L745.5156,19.75 C745.7344,19.4375 745.9375,19.3438 746.2344,19.3438 C746.5313,19.3438 746.8125,19.4844 746.9688,19.75 C747.0625,19.9063 747.0781,20.0313 747.0781,20.4688 L747.0781,21.8906 C747.0781,22.3125 747.0469,22.5 746.9375,22.6563 C746.7656,22.875 746.5,23.0156 746.2344,23.0156 C746.0156,23.0156 745.7813,22.9063 745.6406,22.7656 C745.5,22.6406 745.4688,22.5156 745.4063,22.1094 C745.3125,21.7031 745.1406,21.4844 744.6563,21.2031 C744.1875,20.9531 743.5781,20.7969 743,20.7969 C741.2656,20.7969 740.0156,22.1094 740.0156,23.8906 L740.0156,24.9844 C740.0156,26.6875 741.3125,27.7813 743.3594,27.7813 C744.125,27.7813 744.8125,27.6563 745.2344,27.3906 C745.4219,27.2969 745.4219,27.2969 745.875,26.8125 C746.0625,26.625 746.2656,26.5469 746.4844,26.5469 C746.9531,26.5469 747.3438,26.9375 747.3438,27.3906 C747.3438,27.7813 747.0156,28.2344 746.4375,28.6406 C745.6875,29.1875 744.5313,29.4844 743.3125,29.4844 C740.4219,29.4844 738.3125,27.5938 738.3125,25.0156 L738.3125,23.8906 C738.3125,21.1719 740.3125,19.0938 742.9375,19.0938 C743.8125,19.0938 744.4063,19.2344 745.3438,19.6719 Z "/><text fill="#000000" font-family="sans-serif" font-size="12" lengthAdjust="spacingAndGlyphs" textLength="58" x="757" y="28.1543">Draughts</text><line style="stroke: #A80036; stroke-width: 1.5;" x1="729" x2="817" y1="40" y2="40"/><line style="stroke: #A80036; stroke-width: 1.5;" x1="729" x2="817" y1="48" y2="48"/><ellipse cx="739" cy="59" fill="#84BE84" rx="3" ry="3" style="stroke: #038048; stroke-width: 1.0;"/><text fill="#000000" font-family="sans-serif" font-size="11" lengthAdjust="spacingAndGlyphs" textLength="31" x="748" y="62.2104">play()</text><!--MD5=[42fa18dda7351a0ae87d9497de925436]
class Logic--><rect fill="#FEFECE" filter="url(#f15whunlmv95u8)" height="60.8047" id="Logic" style="stroke: #A80036; stroke-width: 1.5;" width="108" x="486" y="129"/><ellipse cx="520.8" cy="145" fill="#ADD1B2" rx="11" ry="11" style="stroke: #A80036; stroke-width: 1.0;"/><path d="M523.1438,140.6719 L523.3156,140.75 C523.5344,140.4375 523.7375,140.3438 524.0344,140.3438 C524.3313,140.3438 524.6125,140.4844 524.7688,140.75 C524.8625,140.9063 524.8781,141.0313 524.8781,141.4688 L524.8781,142.8906 C524.8781,143.3125 524.8469,143.5 524.7375,143.6563 C524.5656,143.875 524.3,144.0156 524.0344,144.0156 C523.8156,144.0156 523.5813,143.9063 523.4406,143.7656 C523.3,143.6406 523.2688,143.5156 523.2063,143.1094 C523.1125,142.7031 522.9406,142.4844 522.4563,142.2031 C521.9875,141.9531 521.3781,141.7969 520.8,141.7969 C519.0656,141.7969 517.8156,143.1094 517.8156,144.8906 L517.8156,145.9844 C517.8156,147.6875 519.1125,148.7813 521.1594,148.7813 C521.925,148.7813 522.6125,148.6563 523.0344,148.3906 C523.2219,148.2969 523.2219,148.2969 523.675,147.8125 C523.8625,147.625 524.0656,147.5469 524.2844,147.5469 C524.7531,147.5469 525.1438,147.9375 525.1438,148.3906 C525.1438,148.7813 524.8156,149.2344 524.2375,149.6406 C523.4875,150.1875 522.3313,150.4844 521.1125,150.4844 C518.2219,150.4844 516.1125,148.5938 516.1125,146.0156 L516.1125,144.8906 C516.1125,142.1719 518.1125,140.0938 520.7375,140.0938 C521.6125,140.0938 522.2063,140.2344 523.1438,140.6719 Z "/><text fill="#000000" font-family="sans-serif" font-size="12" lengthAdjust="spacingAndGlyphs" textLength="32" x="539.2" y="149.1543">Logic</text><line style="stroke: #A80036; stroke-width: 1.5;" x1="487" x2="593" y1="161" y2="161"/><line style="stroke: #A80036; stroke-width: 1.5;" x1="487" x2="593" y1="169" y2="169"/><ellipse cx="497" cy="180" fill="#84BE84" rx="3" ry="3" style="stroke: #038048; stroke-width: 1.0;"/><text fill="#000000" font-family="sans-serif" font-size="11" lengthAdjust="spacingAndGlyphs" textLength="82" x="506" y="183.2104">getController()</text><!--MD5=[c045e12321b83266d36d22b9096c24ea]
class View--><rect fill="#FEFECE" filter="url(#f15whunlmv95u8)" height="60.8047" id="View" style="stroke: #A80036; stroke-width: 1.5;" width="133" x="745.5" y="415"/><ellipse cx="793.25" cy="431" fill="#B4A7E5" rx="11" ry="11" style="stroke: #A80036; stroke-width: 1.0;"/><path d="M794.2031,427.7813 L794.2031,434.2969 L795.9219,434.2969 C796.375,434.2969 796.5156,434.3281 796.6875,434.4531 C796.9219,434.625 797.0313,434.875 797.0313,435.1563 C797.0313,435.7188 796.6719,436 795.9219,436 L790.7813,436 C790.375,436 790.1719,435.9531 790.0156,435.8281 C789.7969,435.6719 789.6563,435.4063 789.6563,435.1563 C789.6563,434.8594 789.8125,434.5781 790.0625,434.4219 C790.2188,434.3125 790.3438,434.2969 790.7813,434.2969 L792.5,434.2969 L792.5,427.7813 L790.7813,427.7813 C790.3594,427.7813 790.1719,427.75 790.0156,427.6406 C789.7969,427.4688 789.6563,427.2188 789.6563,426.9375 C789.6563,426.6563 789.8125,426.3594 790.0625,426.2031 C790.2188,426.1094 790.3438,426.0938 790.7813,426.0938 L795.9219,426.0938 C796.375,426.0938 796.5156,426.125 796.6875,426.2344 C796.9219,426.4063 797.0313,426.6719 797.0313,426.9375 C797.0313,427.2344 796.8906,427.5156 796.625,427.6719 C796.5,427.75 796.3125,427.7813 795.9219,427.7813 Z "/><text fill="#000000" font-family="sans-serif" font-size="12" font-style="italic" lengthAdjust="spacingAndGlyphs" textLength="29" x="813.75" y="435.1543">View</text><line style="stroke: #A80036; stroke-width: 1.5;" x1="746.5" x2="877.5" y1="447" y2="447"/><line style="stroke: #A80036; stroke-width: 1.5;" x1="746.5" x2="877.5" y1="455" y2="455"/><ellipse cx="756.5" cy="466" fill="#84BE84" rx="3" ry="3" style="stroke: #038048; stroke-width: 1.0;"/><text fill="#000000" font-family="sans-serif" font-size="11" lengthAdjust="spacingAndGlyphs" textLength="107" x="765.5" y="469.2104">interact(Controller)</text><!--MD5=[51d729737bd84a4c43136dd336c2eea1]
class ConsoleView--><rect fill="#FFA500" filter="url(#f15whunlmv95u8)" height="99.2188" id="ConsoleView" style="stroke: #A80036; stroke-width: 1.5;" width="290" x="1018" y="555"/><rect fill="#FFA500" height="32" style="stroke: #A80036; stroke-width: 1.5;" width="290" x="1018" y="555"/><ellipse cx="1119.75" cy="571" fill="#ADD1B2" rx="11" ry="11" style="stroke: #A80036; stroke-width: 1.0;"/><path d="M1122.0938,566.6719 L1122.2656,566.75 C1122.4844,566.4375 1122.6875,566.3438 1122.9844,566.3438 C1123.2813,566.3438 1123.5625,566.4844 1123.7188,566.75 C1123.8125,566.9063 1123.8281,567.0313 1123.8281,567.4688 L1123.8281,568.8906 C1123.8281,569.3125 1123.7969,569.5 1123.6875,569.6563 C1123.5156,569.875 1123.25,570.0156 1122.9844,570.0156 C1122.7656,570.0156 1122.5313,569.9063 1122.3906,569.7656 C1122.25,569.6406 1122.2188,569.5156 1122.1563,569.1094 C1122.0625,568.7031 1121.8906,568.4844 1121.4063,568.2031 C1120.9375,567.9531 1120.3281,567.7969 1119.75,567.7969 C1118.0156,567.7969 1116.7656,569.1094 1116.7656,570.8906 L1116.7656,571.9844 C1116.7656,573.6875 1118.0625,574.7813 1120.1094,574.7813 C1120.875,574.7813 1121.5625,574.6563 1121.9844,574.3906 C1122.1719,574.2969 1122.1719,574.2969 1122.625,573.8125 C1122.8125,573.625 1123.0156,573.5469 1123.2344,573.5469 C1123.7031,573.5469 1124.0938,573.9375 1124.0938,574.3906 C1124.0938,574.7813 1123.7656,575.2344 1123.1875,575.6406 C1122.4375,576.1875 1121.2813,576.4844 1120.0625,576.4844 C1117.1719,576.4844 1115.0625,574.5938 1115.0625,572.0156 L1115.0625,570.8906 C1115.0625,568.1719 1117.0625,566.0938 1119.6875,566.0938 C1120.5625,566.0938 1121.1563,566.2344 1122.0938,566.6719 Z "/><text fill="#000000" font-family="sans-serif" font-size="12" lengthAdjust="spacingAndGlyphs" textLength="78" x="1140.25" y="575.1543">ConsoleView</text><line style="stroke: #A80036; stroke-width: 1.5;" x1="1019" x2="1307" y1="587" y2="587"/><line style="stroke: #A80036; stroke-width: 1.5;" x1="1019" x2="1307" y1="595" y2="595"/><ellipse cx="1029" cy="606" fill="#84BE84" rx="3" ry="3" style="stroke: #038048; stroke-width: 1.0;"/><text fill="#000000" font-family="sans-serif" font-size="11" lengthAdjust="spacingAndGlyphs" textLength="107" x="1038" y="609.2104">interact(Controller)</text><ellipse cx="1029" cy="618.8047" fill="#84BE84" rx="3" ry="3" style="stroke: #038048; stroke-width: 1.0;"/><text fill="#000000" font-family="sans-serif" font-size="11" lengthAdjust="spacingAndGlyphs" textLength="229" x="1038" y="622.0151">visit(StartController startController):void</text><ellipse cx="1029" cy="631.6094" fill="#84BE84" rx="3" ry="3" style="stroke: #038048; stroke-width: 1.0;"/><text fill="#000000" font-family="sans-serif" font-size="11" lengthAdjust="spacingAndGlyphs" textLength="220" x="1038" y="634.8198">visit(PlayController playController):void</text><ellipse cx="1029" cy="644.4141" fill="#84BE84" rx="3" ry="3" style="stroke: #038048; stroke-width: 1.0;"/><text fill="#000000" font-family="sans-serif" font-size="11" lengthAdjust="spacingAndGlyphs" textLength="264" x="1038" y="647.6245">visit(ResumeController resumeController):void</text><ellipse cx="1163" cy="445.5" fill="#FEFECE" filter="url(#f15whunlmv95u8)" rx="5" ry="5" style="stroke: #A80036; stroke-width: 1.5;"/><text fill="#000000" font-family="sans-serif" font-size="12" lengthAdjust="spacingAndGlyphs" textLength="28" x="1149" y="461.6387">View</text><!--MD5=[47c371471411cfedeee61b1a5bdaee47]
class StartController--><rect fill="#FEFECE" filter="url(#f15whunlmv95u8)" height="60.8047" id="StartController" style="stroke: #A80036; stroke-width: 1.5;" width="124" x="468" y="739.5"/><ellipse cx="483" cy="755.5" fill="#ADD1B2" rx="11" ry="11" style="stroke: #A80036; stroke-width: 1.0;"/><path d="M485.3438,751.1719 L485.5156,751.25 C485.7344,750.9375 485.9375,750.8438 486.2344,750.8438 C486.5313,750.8438 486.8125,750.9844 486.9688,751.25 C487.0625,751.4063 487.0781,751.5313 487.0781,751.9688 L487.0781,753.3906 C487.0781,753.8125 487.0469,754 486.9375,754.1563 C486.7656,754.375 486.5,754.5156 486.2344,754.5156 C486.0156,754.5156 485.7813,754.4063 485.6406,754.2656 C485.5,754.1406 485.4688,754.0156 485.4063,753.6094 C485.3125,753.2031 485.1406,752.9844 484.6563,752.7031 C484.1875,752.4531 483.5781,752.2969 483,752.2969 C481.2656,752.2969 480.0156,753.6094 480.0156,755.3906 L480.0156,756.4844 C480.0156,758.1875 481.3125,759.2813 483.3594,759.2813 C484.125,759.2813 484.8125,759.1563 485.2344,758.8906 C485.4219,758.7969 485.4219,758.7969 485.875,758.3125 C486.0625,758.125 486.2656,758.0469 486.4844,758.0469 C486.9531,758.0469 487.3438,758.4375 487.3438,758.8906 C487.3438,759.2813 487.0156,759.7344 486.4375,760.1406 C485.6875,760.6875 484.5313,760.9844 483.3125,760.9844 C480.4219,760.9844 478.3125,759.0938 478.3125,756.5156 L478.3125,755.3906 C478.3125,752.6719 480.3125,750.5938 482.9375,750.5938 C483.8125,750.5938 484.4063,750.7344 485.3438,751.1719 Z "/><text fill="#000000" font-family="sans-serif" font-size="12" lengthAdjust="spacingAndGlyphs" textLength="92" x="497" y="759.6543">StartController</text><line style="stroke: #A80036; stroke-width: 1.5;" x1="469" x2="591" y1="771.5" y2="771.5"/><line style="stroke: #A80036; stroke-width: 1.5;" x1="469" x2="591" y1="779.5" y2="779.5"/><ellipse cx="479" cy="790.5" fill="#84BE84" rx="3" ry="3" style="stroke: #038048; stroke-width: 1.0;"/><text fill="#000000" font-family="sans-serif" font-size="11" lengthAdjust="spacingAndGlyphs" textLength="62" x="488" y="793.7104">start():void</text><!--MD5=[cc8600b868f8dfab2c8d497bce62f90a]
class PlayController--><rect fill="#FEFECE" filter="url(#f15whunlmv95u8)" height="112.0234" id="PlayController" style="stroke: #A80036; stroke-width: 1.5;" width="304" x="627" y="714"/><ellipse cx="731.75" cy="730" fill="#ADD1B2" rx="11" ry="11" style="stroke: #A80036; stroke-width: 1.0;"/><path d="M734.0938,725.6719 L734.2656,725.75 C734.4844,725.4375 734.6875,725.3438 734.9844,725.3438 C735.2813,725.3438 735.5625,725.4844 735.7188,725.75 C735.8125,725.9063 735.8281,726.0313 735.8281,726.4688 L735.8281,727.8906 C735.8281,728.3125 735.7969,728.5 735.6875,728.6563 C735.5156,728.875 735.25,729.0156 734.9844,729.0156 C734.7656,729.0156 734.5313,728.9063 734.3906,728.7656 C734.25,728.6406 734.2188,728.5156 734.1563,728.1094 C734.0625,727.7031 733.8906,727.4844 733.4063,727.2031 C732.9375,726.9531 732.3281,726.7969 731.75,726.7969 C730.0156,726.7969 728.7656,728.1094 728.7656,729.8906 L728.7656,730.9844 C728.7656,732.6875 730.0625,733.7813 732.1094,733.7813 C732.875,733.7813 733.5625,733.6563 733.9844,733.3906 C734.1719,733.2969 734.1719,733.2969 734.625,732.8125 C734.8125,732.625 735.0156,732.5469 735.2344,732.5469 C735.7031,732.5469 736.0938,732.9375 736.0938,733.3906 C736.0938,733.7813 735.7656,734.2344 735.1875,734.6406 C734.4375,735.1875 733.2813,735.4844 732.0625,735.4844 C729.1719,735.4844 727.0625,733.5938 727.0625,731.0156 L727.0625,729.8906 C727.0625,727.1719 729.0625,725.0938 731.6875,725.0938 C732.5625,725.0938 733.1563,725.2344 734.0938,725.6719 Z "/><text fill="#000000" font-family="sans-serif" font-size="12" lengthAdjust="spacingAndGlyphs" textLength="86" x="752.25" y="734.1543">PlayController</text><line style="stroke: #A80036; stroke-width: 1.5;" x1="628" x2="930" y1="746" y2="746"/><line style="stroke: #A80036; stroke-width: 1.5;" x1="628" x2="930" y1="754" y2="754"/><ellipse cx="638" cy="765" fill="#84BE84" rx="3" ry="3" style="stroke: #038048; stroke-width: 1.0;"/><text fill="#000000" font-family="sans-serif" font-size="11" lengthAdjust="spacingAndGlyphs" textLength="278" x="647" y="768.2104">move(Coordinate origin, Coordinate target):Error</text><ellipse cx="638" cy="777.8047" fill="#84BE84" rx="3" ry="3" style="stroke: #038048; stroke-width: 1.0;"/><text fill="#000000" font-family="sans-serif" font-size="11" lengthAdjust="spacingAndGlyphs" textLength="106" x="647" y="781.0151">printGame():String</text><ellipse cx="638" cy="790.6094" fill="#84BE84" rx="3" ry="3" style="stroke: #038048; stroke-width: 1.0;"/><text fill="#000000" font-family="sans-serif" font-size="11" lengthAdjust="spacingAndGlyphs" textLength="116" x="647" y="793.8198">getTurnColor():Color</text><ellipse cx="638" cy="803.4141" fill="#84BE84" rx="3" ry="3" style="stroke: #038048; stroke-width: 1.0;"/><text fill="#000000" font-family="sans-serif" font-size="11" lengthAdjust="spacingAndGlyphs" textLength="89" x="647" y="806.6245">nextState():void</text><ellipse cx="638" cy="816.2188" fill="#84BE84" rx="3" ry="3" style="stroke: #038048; stroke-width: 1.0;"/><text fill="#000000" font-family="sans-serif" font-size="11" lengthAdjust="spacingAndGlyphs" textLength="134" x="647" y="819.4292">isFinishGame():boolean</text><!--MD5=[1a47bbf44ccee225df9b18c5b6629853]
class ResumeController--><rect fill="#FEFECE" filter="url(#f15whunlmv95u8)" height="60.8047" id="ResumeController" style="stroke: #A80036; stroke-width: 1.5;" width="211" x="966.5" y="739.5"/><ellipse cx="1012.25" cy="755.5" fill="#ADD1B2" rx="11" ry="11" style="stroke: #A80036; stroke-width: 1.0;"/><path d="M1014.5938,751.1719 L1014.7656,751.25 C1014.9844,750.9375 1015.1875,750.8438 1015.4844,750.8438 C1015.7813,750.8438 1016.0625,750.9844 1016.2188,751.25 C1016.3125,751.4063 1016.3281,751.5313 1016.3281,751.9688 L1016.3281,753.3906 C1016.3281,753.8125 1016.2969,754 1016.1875,754.1563 C1016.0156,754.375 1015.75,754.5156 1015.4844,754.5156 C1015.2656,754.5156 1015.0313,754.4063 1014.8906,754.2656 C1014.75,754.1406 1014.7188,754.0156 1014.6563,753.6094 C1014.5625,753.2031 1014.3906,752.9844 1013.9063,752.7031 C1013.4375,752.4531 1012.8281,752.2969 1012.25,752.2969 C1010.5156,752.2969 1009.2656,753.6094 1009.2656,755.3906 L1009.2656,756.4844 C1009.2656,758.1875 1010.5625,759.2813 1012.6094,759.2813 C1013.375,759.2813 1014.0625,759.1563 1014.4844,758.8906 C1014.6719,758.7969 1014.6719,758.7969 1015.125,758.3125 C1015.3125,758.125 1015.5156,758.0469 1015.7344,758.0469 C1016.2031,758.0469 1016.5938,758.4375 1016.5938,758.8906 C1016.5938,759.2813 1016.2656,759.7344 1015.6875,760.1406 C1014.9375,760.6875 1013.7813,760.9844 1012.5625,760.9844 C1009.6719,760.9844 1007.5625,759.0938 1007.5625,756.5156 L1007.5625,755.3906 C1007.5625,752.6719 1009.5625,750.5938 1012.1875,750.5938 C1013.0625,750.5938 1013.6563,750.7344 1014.5938,751.1719 Z "/><text fill="#000000" font-family="sans-serif" font-size="12" lengthAdjust="spacingAndGlyphs" textLength="111" x="1032.75" y="759.6543">ResumeController</text><line style="stroke: #A80036; stroke-width: 1.5;" x1="967.5" x2="1176.5" y1="771.5" y2="771.5"/><line style="stroke: #A80036; stroke-width: 1.5;" x1="967.5" x2="1176.5" y1="779.5" y2="779.5"/><ellipse cx="977.5" cy="790.5" fill="#84BE84" rx="3" ry="3" style="stroke: #038048; stroke-width: 1.0;"/><text fill="#000000" font-family="sans-serif" font-size="11" lengthAdjust="spacingAndGlyphs" textLength="185" x="986.5" y="793.7104">resume(boolean newGame):void</text><!--MD5=[443c52daef265809fdf31be84fc8ae4a]
class StartView--><rect fill="#FEFECE" filter="url(#f15whunlmv95u8)" height="48" id="StartView" style="stroke: #A80036; stroke-width: 1.5;" width="91" x="1478.5" y="746"/><ellipse cx="1493.5" cy="762" fill="#ADD1B2" rx="11" ry="11" style="stroke: #A80036; stroke-width: 1.0;"/><path d="M1495.8438,757.6719 L1496.0156,757.75 C1496.2344,757.4375 1496.4375,757.3438 1496.7344,757.3438 C1497.0313,757.3438 1497.3125,757.4844 1497.4688,757.75 C1497.5625,757.9063 1497.5781,758.0313 1497.5781,758.4688 L1497.5781,759.8906 C1497.5781,760.3125 1497.5469,760.5 1497.4375,760.6563 C1497.2656,760.875 1497,761.0156 1496.7344,761.0156 C1496.5156,761.0156 1496.2813,760.9063 1496.1406,760.7656 C1496,760.6406 1495.9688,760.5156 1495.9063,760.1094 C1495.8125,759.7031 1495.6406,759.4844 1495.1563,759.2031 C1494.6875,758.9531 1494.0781,758.7969 1493.5,758.7969 C1491.7656,758.7969 1490.5156,760.1094 1490.5156,761.8906 L1490.5156,762.9844 C1490.5156,764.6875 1491.8125,765.7813 1493.8594,765.7813 C1494.625,765.7813 1495.3125,765.6563 1495.7344,765.3906 C1495.9219,765.2969 1495.9219,765.2969 1496.375,764.8125 C1496.5625,764.625 1496.7656,764.5469 1496.9844,764.5469 C1497.4531,764.5469 1497.8438,764.9375 1497.8438,765.3906 C1497.8438,765.7813 1497.5156,766.2344 1496.9375,766.6406 C1496.1875,767.1875 1495.0313,767.4844 1493.8125,767.4844 C1490.9219,767.4844 1488.8125,765.5938 1488.8125,763.0156 L1488.8125,761.8906 C1488.8125,759.1719 1490.8125,757.0938 1493.4375,757.0938 C1494.3125,757.0938 1494.9063,757.2344 1495.8438,757.6719 Z "/><text fill="#000000" font-family="sans-serif" font-size="12" lengthAdjust="spacingAndGlyphs" textLength="59" x="1507.5" y="766.1543">StartView</text><line style="stroke: #A80036; stroke-width: 1.5;" x1="1479.5" x2="1568.5" y1="778" y2="778"/><line style="stroke: #A80036; stroke-width: 1.5;" x1="1479.5" x2="1568.5" y1="786" y2="786"/><!--MD5=[49feb4884a66ed250f9a27795111a05a]
class MessageView--><rect fill="#FEFECE" filter="url(#f15whunlmv95u8)" height="48" id="MessageView" style="stroke: #A80036; stroke-width: 1.5;" width="116" x="1336" y="956.5"/><ellipse cx="1351" cy="972.5" fill="#ADD1B2" rx="11" ry="11" style="stroke: #A80036; stroke-width: 1.0;"/><path d="M1353.3438,968.1719 L1353.5156,968.25 C1353.7344,967.9375 1353.9375,967.8438 1354.2344,967.8438 C1354.5313,967.8438 1354.8125,967.9844 1354.9688,968.25 C1355.0625,968.4063 1355.0781,968.5313 1355.0781,968.9688 L1355.0781,970.3906 C1355.0781,970.8125 1355.0469,971 1354.9375,971.1563 C1354.7656,971.375 1354.5,971.5156 1354.2344,971.5156 C1354.0156,971.5156 1353.7813,971.4063 1353.6406,971.2656 C1353.5,971.1406 1353.4688,971.0156 1353.4063,970.6094 C1353.3125,970.2031 1353.1406,969.9844 1352.6563,969.7031 C1352.1875,969.4531 1351.5781,969.2969 1351,969.2969 C1349.2656,969.2969 1348.0156,970.6094 1348.0156,972.3906 L1348.0156,973.4844 C1348.0156,975.1875 1349.3125,976.2813 1351.3594,976.2813 C1352.125,976.2813 1352.8125,976.1563 1353.2344,975.8906 C1353.4219,975.7969 1353.4219,975.7969 1353.875,975.3125 C1354.0625,975.125 1354.2656,975.0469 1354.4844,975.0469 C1354.9531,975.0469 1355.3438,975.4375 1355.3438,975.8906 C1355.3438,976.2813 1355.0156,976.7344 1354.4375,977.1406 C1353.6875,977.6875 1352.5313,977.9844 1351.3125,977.9844 C1348.4219,977.9844 1346.3125,976.0938 1346.3125,973.5156 L1346.3125,972.3906 C1346.3125,969.6719 1348.3125,967.5938 1350.9375,967.5938 C1351.8125,967.5938 1352.4063,967.7344 1353.3438,968.1719 Z "/><text fill="#000000" font-family="sans-serif" font-size="12" lengthAdjust="spacingAndGlyphs" textLength="84" x="1365" y="976.6543">MessageView</text><line style="stroke: #A80036; stroke-width: 1.5;" x1="1337" x2="1451" y1="988.5" y2="988.5"/><line style="stroke: #A80036; stroke-width: 1.5;" x1="1337" x2="1451" y1="996.5" y2="996.5"/><!--MD5=[7d098cfea779bb374973991beab6ed3b]
class PlayView--><rect fill="#FEFECE" filter="url(#f15whunlmv95u8)" height="48" id="PlayView" style="stroke: #A80036; stroke-width: 1.5;" width="85" x="1212.5" y="746"/><ellipse cx="1227.5" cy="762" fill="#ADD1B2" rx="11" ry="11" style="stroke: #A80036; stroke-width: 1.0;"/><path d="M1229.8438,757.6719 L1230.0156,757.75 C1230.2344,757.4375 1230.4375,757.3438 1230.7344,757.3438 C1231.0313,757.3438 1231.3125,757.4844 1231.4688,757.75 C1231.5625,757.9063 1231.5781,758.0313 1231.5781,758.4688 L1231.5781,759.8906 C1231.5781,760.3125 1231.5469,760.5 1231.4375,760.6563 C1231.2656,760.875 1231,761.0156 1230.7344,761.0156 C1230.5156,761.0156 1230.2813,760.9063 1230.1406,760.7656 C1230,760.6406 1229.9688,760.5156 1229.9063,760.1094 C1229.8125,759.7031 1229.6406,759.4844 1229.1563,759.2031 C1228.6875,758.9531 1228.0781,758.7969 1227.5,758.7969 C1225.7656,758.7969 1224.5156,760.1094 1224.5156,761.8906 L1224.5156,762.9844 C1224.5156,764.6875 1225.8125,765.7813 1227.8594,765.7813 C1228.625,765.7813 1229.3125,765.6563 1229.7344,765.3906 C1229.9219,765.2969 1229.9219,765.2969 1230.375,764.8125 C1230.5625,764.625 1230.7656,764.5469 1230.9844,764.5469 C1231.4531,764.5469 1231.8438,764.9375 1231.8438,765.3906 C1231.8438,765.7813 1231.5156,766.2344 1230.9375,766.6406 C1230.1875,767.1875 1229.0313,767.4844 1227.8125,767.4844 C1224.9219,767.4844 1222.8125,765.5938 1222.8125,763.0156 L1222.8125,761.8906 C1222.8125,759.1719 1224.8125,757.0938 1227.4375,757.0938 C1228.3125,757.0938 1228.9063,757.2344 1229.8438,757.6719 Z "/><text fill="#000000" font-family="sans-serif" font-size="12" lengthAdjust="spacingAndGlyphs" textLength="53" x="1241.5" y="766.1543">PlayView</text><line style="stroke: #A80036; stroke-width: 1.5;" x1="1213.5" x2="1296.5" y1="778" y2="778"/><line style="stroke: #A80036; stroke-width: 1.5;" x1="1213.5" x2="1296.5" y1="786" y2="786"/><!--MD5=[5c0d2bf114541dffca76af5edd55a1b5]
class ColorView--><rect fill="#FEFECE" filter="url(#f15whunlmv95u8)" height="48" id="ColorView" style="stroke: #A80036; stroke-width: 1.5;" width="92" x="1209" y="956.5"/><ellipse cx="1224" cy="972.5" fill="#ADD1B2" rx="11" ry="11" style="stroke: #A80036; stroke-width: 1.0;"/><path d="M1226.3438,968.1719 L1226.5156,968.25 C1226.7344,967.9375 1226.9375,967.8438 1227.2344,967.8438 C1227.5313,967.8438 1227.8125,967.9844 1227.9688,968.25 C1228.0625,968.4063 1228.0781,968.5313 1228.0781,968.9688 L1228.0781,970.3906 C1228.0781,970.8125 1228.0469,971 1227.9375,971.1563 C1227.7656,971.375 1227.5,971.5156 1227.2344,971.5156 C1227.0156,971.5156 1226.7813,971.4063 1226.6406,971.2656 C1226.5,971.1406 1226.4688,971.0156 1226.4063,970.6094 C1226.3125,970.2031 1226.1406,969.9844 1225.6563,969.7031 C1225.1875,969.4531 1224.5781,969.2969 1224,969.2969 C1222.2656,969.2969 1221.0156,970.6094 1221.0156,972.3906 L1221.0156,973.4844 C1221.0156,975.1875 1222.3125,976.2813 1224.3594,976.2813 C1225.125,976.2813 1225.8125,976.1563 1226.2344,975.8906 C1226.4219,975.7969 1226.4219,975.7969 1226.875,975.3125 C1227.0625,975.125 1227.2656,975.0469 1227.4844,975.0469 C1227.9531,975.0469 1228.3438,975.4375 1228.3438,975.8906 C1228.3438,976.2813 1228.0156,976.7344 1227.4375,977.1406 C1226.6875,977.6875 1225.5313,977.9844 1224.3125,977.9844 C1221.4219,977.9844 1219.3125,976.0938 1219.3125,973.5156 L1219.3125,972.3906 C1219.3125,969.6719 1221.3125,967.5938 1223.9375,967.5938 C1224.8125,967.5938 1225.4063,967.7344 1226.3438,968.1719 Z "/><text fill="#000000" font-family="sans-serif" font-size="12" lengthAdjust="spacingAndGlyphs" textLength="60" x="1238" y="976.6543">ColorView</text><line style="stroke: #A80036; stroke-width: 1.5;" x1="1210" x2="1300" y1="988.5" y2="988.5"/><line style="stroke: #A80036; stroke-width: 1.5;" x1="1210" x2="1300" y1="996.5" y2="996.5"/><!--MD5=[86cec68673cafdfc1c204348d5b2cca6]
class ErrorView--><rect fill="#FEFECE" filter="url(#f15whunlmv95u8)" height="48" id="ErrorView" style="stroke: #A80036; stroke-width: 1.5;" width="91" x="1082.5" y="956.5"/><ellipse cx="1097.5" cy="972.5" fill="#ADD1B2" rx="11" ry="11" style="stroke: #A80036; stroke-width: 1.0;"/><path d="M1099.8438,968.1719 L1100.0156,968.25 C1100.2344,967.9375 1100.4375,967.8438 1100.7344,967.8438 C1101.0313,967.8438 1101.3125,967.9844 1101.4688,968.25 C1101.5625,968.4063 1101.5781,968.5313 1101.5781,968.9688 L1101.5781,970.3906 C1101.5781,970.8125 1101.5469,971 1101.4375,971.1563 C1101.2656,971.375 1101,971.5156 1100.7344,971.5156 C1100.5156,971.5156 1100.2813,971.4063 1100.1406,971.2656 C1100,971.1406 1099.9688,971.0156 1099.9063,970.6094 C1099.8125,970.2031 1099.6406,969.9844 1099.1563,969.7031 C1098.6875,969.4531 1098.0781,969.2969 1097.5,969.2969 C1095.7656,969.2969 1094.5156,970.6094 1094.5156,972.3906 L1094.5156,973.4844 C1094.5156,975.1875 1095.8125,976.2813 1097.8594,976.2813 C1098.625,976.2813 1099.3125,976.1563 1099.7344,975.8906 C1099.9219,975.7969 1099.9219,975.7969 1100.375,975.3125 C1100.5625,975.125 1100.7656,975.0469 1100.9844,975.0469 C1101.4531,975.0469 1101.8438,975.4375 1101.8438,975.8906 C1101.8438,976.2813 1101.5156,976.7344 1100.9375,977.1406 C1100.1875,977.6875 1099.0313,977.9844 1097.8125,977.9844 C1094.9219,977.9844 1092.8125,976.0938 1092.8125,973.5156 L1092.8125,972.3906 C1092.8125,969.6719 1094.8125,967.5938 1097.4375,967.5938 C1098.3125,967.5938 1098.9063,967.7344 1099.8438,968.1719 Z "/><text fill="#000000" font-family="sans-serif" font-size="12" lengthAdjust="spacingAndGlyphs" textLength="59" x="1111.5" y="976.6543">ErrorView</text><line style="stroke: #A80036; stroke-width: 1.5;" x1="1083.5" x2="1172.5" y1="988.5" y2="988.5"/><line style="stroke: #A80036; stroke-width: 1.5;" x1="1083.5" x2="1172.5" y1="996.5" y2="996.5"/><!--MD5=[19088a99a8c1f36e582d33ac2f8fc6dd]
class ResumeView--><rect fill="#FEFECE" filter="url(#f15whunlmv95u8)" height="48" id="ResumeView" style="stroke: #A80036; stroke-width: 1.5;" width="110" x="1333" y="746"/><ellipse cx="1348" cy="762" fill="#ADD1B2" rx="11" ry="11" style="stroke: #A80036; stroke-width: 1.0;"/><path d="M1350.3438,757.6719 L1350.5156,757.75 C1350.7344,757.4375 1350.9375,757.3438 1351.2344,757.3438 C1351.5313,757.3438 1351.8125,757.4844 1351.9688,757.75 C1352.0625,757.9063 1352.0781,758.0313 1352.0781,758.4688 L1352.0781,759.8906 C1352.0781,760.3125 1352.0469,760.5 1351.9375,760.6563 C1351.7656,760.875 1351.5,761.0156 1351.2344,761.0156 C1351.0156,761.0156 1350.7813,760.9063 1350.6406,760.7656 C1350.5,760.6406 1350.4688,760.5156 1350.4063,760.1094 C1350.3125,759.7031 1350.1406,759.4844 1349.6563,759.2031 C1349.1875,758.9531 1348.5781,758.7969 1348,758.7969 C1346.2656,758.7969 1345.0156,760.1094 1345.0156,761.8906 L1345.0156,762.9844 C1345.0156,764.6875 1346.3125,765.7813 1348.3594,765.7813 C1349.125,765.7813 1349.8125,765.6563 1350.2344,765.3906 C1350.4219,765.2969 1350.4219,765.2969 1350.875,764.8125 C1351.0625,764.625 1351.2656,764.5469 1351.4844,764.5469 C1351.9531,764.5469 1352.3438,764.9375 1352.3438,765.3906 C1352.3438,765.7813 1352.0156,766.2344 1351.4375,766.6406 C1350.6875,767.1875 1349.5313,767.4844 1348.3125,767.4844 C1345.4219,767.4844 1343.3125,765.5938 1343.3125,763.0156 L1343.3125,761.8906 C1343.3125,759.1719 1345.3125,757.0938 1347.9375,757.0938 C1348.8125,757.0938 1349.4063,757.2344 1350.3438,757.6719 Z "/><text fill="#000000" font-family="sans-serif" font-size="12" lengthAdjust="spacingAndGlyphs" textLength="78" x="1362" y="766.1543">ResumeView</text><line style="stroke: #A80036; stroke-width: 1.5;" x1="1334" x2="1442" y1="778" y2="778"/><line style="stroke: #A80036; stroke-width: 1.5;" x1="1334" x2="1442" y1="786" y2="786"/><!--MD5=[1d7ba1c7002d54515419844fbd155368]
class Controller--><rect fill="#FEFECE" filter="url(#f15whunlmv95u8)" height="60.8047" id="Controller" style="stroke: #A80036; stroke-width: 1.5;" width="193" x="638.5" y="574"/><ellipse cx="700.25" cy="590" fill="#A9DCDF" rx="11" ry="11" style="stroke: #A80036; stroke-width: 1.0;"/><path d="M701.8281,591.8125 L697.7813,591.8125 L697.3906,592.7969 L697.7813,592.7969 C698.2344,592.7969 698.375,592.8281 698.5469,592.9531 C698.7656,593.125 698.8906,593.375 698.8906,593.6563 C698.8906,593.9375 698.75,594.2344 698.4844,594.375 C698.3594,594.4688 698.1406,594.5 697.7813,594.5 L695.5156,594.5 C694.7656,594.5 694.3906,594.2188 694.3906,593.6563 C694.3906,593.3594 694.5469,593.0781 694.7969,592.9219 C694.9531,592.8125 695.1094,592.7969 695.5313,592.7969 L698.1719,586.2813 L697.0938,586.2813 C696.6563,586.2813 696.4844,586.25 696.3125,586.1406 C696.0938,585.9688 695.9531,585.7188 695.9531,585.4375 C695.9531,585.1563 696.1094,584.875 696.3594,584.7031 C696.5156,584.6094 696.6406,584.5938 697.0938,584.5938 L700.7656,584.5938 L704.1563,592.7969 C704.625,592.7969 704.7813,592.8281 704.9531,592.9688 C705.1719,593.125 705.3125,593.375 705.3125,593.6563 C705.3125,593.9375 705.1563,594.2344 704.9063,594.375 C704.7656,594.4688 704.5469,594.5 704.1875,594.5 L701.8281,594.5 C701.4063,594.5 701.2031,594.4531 701.0625,594.3281 C700.8438,594.1719 700.7031,593.9219 700.7031,593.6563 C700.7031,593.3594 700.8594,593.0781 701.1094,592.9219 C701.2656,592.8125 701.375,592.7969 701.8281,592.7969 L702.2188,592.7969 Z M701.125,590.1094 L699.7969,586.8438 L698.4531,590.1094 Z "/><text fill="#000000" font-family="sans-serif" font-size="12" font-style="italic" lengthAdjust="spacingAndGlyphs" textLength="61" x="720.75" y="594.1543">Controller</text><line style="stroke: #A80036; stroke-width: 1.5;" x1="639.5" x2="830.5" y1="606" y2="606"/><line style="stroke: #A80036; stroke-width: 1.5;" x1="639.5" x2="830.5" y1="614" y2="614"/><ellipse cx="649.5" cy="625" fill="#84BE84" rx="3" ry="3" style="stroke: #038048; stroke-width: 1.0;"/><text fill="#000000" font-family="sans-serif" font-size="11" font-style="italic" lengthAdjust="spacingAndGlyphs" textLength="167" x="658.5" y="628.2104">accept(AcceptController):void</text><!--MD5=[b33739c3e536261369b4ffef6d5359a5]
class AcceptController--><rect fill="#FEFECE" filter="url(#f15whunlmv95u8)" height="86.4141" id="AcceptController" style="stroke: #A80036; stroke-width: 1.5;" width="290" x="547" y="250"/><ellipse cx="635.75" cy="266" fill="#B4A7E5" rx="11" ry="11" style="stroke: #A80036; stroke-width: 1.0;"/><path d="M636.7031,262.7813 L636.7031,269.2969 L638.4219,269.2969 C638.875,269.2969 639.0156,269.3281 639.1875,269.4531 C639.4219,269.625 639.5313,269.875 639.5313,270.1563 C639.5313,270.7188 639.1719,271 638.4219,271 L633.2813,271 C632.875,271 632.6719,270.9531 632.5156,270.8281 C632.2969,270.6719 632.1563,270.4063 632.1563,270.1563 C632.1563,269.8594 632.3125,269.5781 632.5625,269.4219 C632.7188,269.3125 632.8438,269.2969 633.2813,269.2969 L635,269.2969 L635,262.7813 L633.2813,262.7813 C632.8594,262.7813 632.6719,262.75 632.5156,262.6406 C632.2969,262.4688 632.1563,262.2188 632.1563,261.9375 C632.1563,261.6563 632.3125,261.3594 632.5625,261.2031 C632.7188,261.1094 632.8438,261.0938 633.2813,261.0938 L638.4219,261.0938 C638.875,261.0938 639.0156,261.125 639.1875,261.2344 C639.4219,261.4063 639.5313,261.6719 639.5313,261.9375 C639.5313,262.2344 639.3906,262.5156 639.125,262.6719 C639,262.75 638.8125,262.7813 638.4219,262.7813 Z "/><text fill="#000000" font-family="sans-serif" font-size="12" font-style="italic" lengthAdjust="spacingAndGlyphs" textLength="104" x="656.25" y="270.1543">AcceptController</text><line style="stroke: #A80036; stroke-width: 1.5;" x1="548" x2="836" y1="282" y2="282"/><line style="stroke: #A80036; stroke-width: 1.5;" x1="548" x2="836" y1="290" y2="290"/><ellipse cx="558" cy="301" fill="#84BE84" rx="3" ry="3" style="stroke: #038048; stroke-width: 1.0;"/><text fill="#000000" font-family="sans-serif" font-size="11" lengthAdjust="spacingAndGlyphs" textLength="229" x="567" y="304.2104">visit(StartController startController):void</text><ellipse cx="558" cy="313.8047" fill="#84BE84" rx="3" ry="3" style="stroke: #038048; stroke-width: 1.0;"/><text fill="#000000" font-family="sans-serif" font-size="11" lengthAdjust="spacingAndGlyphs" textLength="220" x="567" y="317.0151">visit(PlayController playController):void</text><ellipse cx="558" cy="326.6094" fill="#84BE84" rx="3" ry="3" style="stroke: #038048; stroke-width: 1.0;"/><text fill="#000000" font-family="sans-serif" font-size="11" lengthAdjust="spacingAndGlyphs" textLength="264" x="567" y="329.8198">visit(ResumeController resumeController):void</text><!--MD5=[60d6b92408f98aed8df94d5c6e04aa63]
class State--><rect fill="#FEFECE" filter="url(#f15whunlmv95u8)" height="86.4141" id="State" style="stroke: #A80036; stroke-width: 1.5;" width="178" x="334" y="250"/><ellipse cx="401.75" cy="266" fill="#ADD1B2" rx="11" ry="11" style="stroke: #A80036; stroke-width: 1.0;"/><path d="M404.0938,261.6719 L404.2656,261.75 C404.4844,261.4375 404.6875,261.3438 404.9844,261.3438 C405.2813,261.3438 405.5625,261.4844 405.7188,261.75 C405.8125,261.9063 405.8281,262.0313 405.8281,262.4688 L405.8281,263.8906 C405.8281,264.3125 405.7969,264.5 405.6875,264.6563 C405.5156,264.875 405.25,265.0156 404.9844,265.0156 C404.7656,265.0156 404.5313,264.9063 404.3906,264.7656 C404.25,264.6406 404.2188,264.5156 404.1563,264.1094 C404.0625,263.7031 403.8906,263.4844 403.4063,263.2031 C402.9375,262.9531 402.3281,262.7969 401.75,262.7969 C400.0156,262.7969 398.7656,264.1094 398.7656,265.8906 L398.7656,266.9844 C398.7656,268.6875 400.0625,269.7813 402.1094,269.7813 C402.875,269.7813 403.5625,269.6563 403.9844,269.3906 C404.1719,269.2969 404.1719,269.2969 404.625,268.8125 C404.8125,268.625 405.0156,268.5469 405.2344,268.5469 C405.7031,268.5469 406.0938,268.9375 406.0938,269.3906 C406.0938,269.7813 405.7656,270.2344 405.1875,270.6406 C404.4375,271.1875 403.2813,271.4844 402.0625,271.4844 C399.1719,271.4844 397.0625,269.5938 397.0625,267.0156 L397.0625,265.8906 C397.0625,263.1719 399.0625,261.0938 401.6875,261.0938 C402.5625,261.0938 403.1563,261.2344 404.0938,261.6719 Z "/><text fill="#000000" font-family="sans-serif" font-size="12" lengthAdjust="spacingAndGlyphs" textLength="34" x="422.25" y="270.1543">State</text><line style="stroke: #A80036; stroke-width: 1.5;" x1="335" x2="511" y1="282" y2="282"/><line style="stroke: #A80036; stroke-width: 1.5;" x1="335" x2="511" y1="290" y2="290"/><ellipse cx="345" cy="301" fill="#84BE84" rx="3" ry="3" style="stroke: #038048; stroke-width: 1.0;"/><text fill="#000000" font-family="sans-serif" font-size="11" lengthAdjust="spacingAndGlyphs" textLength="59" x="354" y="304.2104">next():void</text><ellipse cx="345" cy="313.8047" fill="#84BE84" rx="3" ry="3" style="stroke: #038048; stroke-width: 1.0;"/><text fill="#000000" font-family="sans-serif" font-size="11" lengthAdjust="spacingAndGlyphs" textLength="65" x="354" y="317.0151">reset():void</text><ellipse cx="345" cy="326.6094" fill="#84BE84" rx="3" ry="3" style="stroke: #038048; stroke-width: 1.0;"/><text fill="#000000" font-family="sans-serif" font-size="11" lengthAdjust="spacingAndGlyphs" textLength="152" x="354" y="329.8198">getValueState():StateValue</text><!--MD5=[b6dcce5e5ef3c84b0b048d11301373dd]
class Game--><rect fill="#FEFECE" filter="url(#f15whunlmv95u8)" height="112.0234" id="Game" style="stroke: #A80036; stroke-width: 1.5;" width="304" x="129" y="714"/><ellipse cx="258.75" cy="730" fill="#ADD1B2" rx="11" ry="11" style="stroke: #A80036; stroke-width: 1.0;"/><path d="M261.0938,725.6719 L261.2656,725.75 C261.4844,725.4375 261.6875,725.3438 261.9844,725.3438 C262.2813,725.3438 262.5625,725.4844 262.7188,725.75 C262.8125,725.9063 262.8281,726.0313 262.8281,726.4688 L262.8281,727.8906 C262.8281,728.3125 262.7969,728.5 262.6875,728.6563 C262.5156,728.875 262.25,729.0156 261.9844,729.0156 C261.7656,729.0156 261.5313,728.9063 261.3906,728.7656 C261.25,728.6406 261.2188,728.5156 261.1563,728.1094 C261.0625,727.7031 260.8906,727.4844 260.4063,727.2031 C259.9375,726.9531 259.3281,726.7969 258.75,726.7969 C257.0156,726.7969 255.7656,728.1094 255.7656,729.8906 L255.7656,730.9844 C255.7656,732.6875 257.0625,733.7813 259.1094,733.7813 C259.875,733.7813 260.5625,733.6563 260.9844,733.3906 C261.1719,733.2969 261.1719,733.2969 261.625,732.8125 C261.8125,732.625 262.0156,732.5469 262.2344,732.5469 C262.7031,732.5469 263.0938,732.9375 263.0938,733.3906 C263.0938,733.7813 262.7656,734.2344 262.1875,734.6406 C261.4375,735.1875 260.2813,735.4844 259.0625,735.4844 C256.1719,735.4844 254.0625,733.5938 254.0625,731.0156 L254.0625,729.8906 C254.0625,727.1719 256.0625,725.0938 258.6875,725.0938 C259.5625,725.0938 260.1563,725.2344 261.0938,725.6719 Z "/><text fill="#000000" font-family="sans-serif" font-size="12" lengthAdjust="spacingAndGlyphs" textLength="36" x="279.25" y="734.1543">Game</text><line style="stroke: #A80036; stroke-width: 1.5;" x1="130" x2="432" y1="746" y2="746"/><line style="stroke: #A80036; stroke-width: 1.5;" x1="130" x2="432" y1="754" y2="754"/><ellipse cx="140" cy="765" fill="#84BE84" rx="3" ry="3" style="stroke: #038048; stroke-width: 1.0;"/><text fill="#000000" font-family="sans-serif" font-size="11" lengthAdjust="spacingAndGlyphs" textLength="278" x="149" y="768.2104">move(Coordinate origin, Coordinate target):Error</text><ellipse cx="140" cy="777.8047" fill="#84BE84" rx="3" ry="3" style="stroke: #038048; stroke-width: 1.0;"/><text fill="#000000" font-family="sans-serif" font-size="11" lengthAdjust="spacingAndGlyphs" textLength="116" x="149" y="781.0151">getTurnColor():Color</text><ellipse cx="140" cy="790.6094" fill="#84BE84" rx="3" ry="3" style="stroke: #038048; stroke-width: 1.0;"/><text fill="#000000" font-family="sans-serif" font-size="11" lengthAdjust="spacingAndGlyphs" textLength="114" x="149" y="793.8198">isFinished():boolean</text><ellipse cx="140" cy="803.4141" fill="#84BE84" rx="3" ry="3" style="stroke: #038048; stroke-width: 1.0;"/><text fill="#000000" font-family="sans-serif" font-size="11" lengthAdjust="spacingAndGlyphs" textLength="91" x="149" y="806.6245">toString():String</text><ellipse cx="140" cy="816.2188" fill="#84BE84" rx="3" ry="3" style="stroke: #038048; stroke-width: 1.0;"/><text fill="#000000" font-family="sans-serif" font-size="11" lengthAdjust="spacingAndGlyphs" textLength="65" x="149" y="819.4292">reset():void</text><!--MD5=[8c7d7abc12e214c3cc12c9ab70edee11]
class Coordinate--><rect fill="#FEFECE" filter="url(#f15whunlmv95u8)" height="188.8516" id="Coordinate" style="stroke: #A80036; stroke-width: 1.5;" width="323" x="671.5" y="886"/><ellipse cx="794.25" cy="902" fill="#ADD1B2" rx="11" ry="11" style="stroke: #A80036; stroke-width: 1.0;"/><path d="M796.5938,897.6719 L796.7656,897.75 C796.9844,897.4375 797.1875,897.3438 797.4844,897.3438 C797.7813,897.3438 798.0625,897.4844 798.2188,897.75 C798.3125,897.9063 798.3281,898.0313 798.3281,898.4688 L798.3281,899.8906 C798.3281,900.3125 798.2969,900.5 798.1875,900.6563 C798.0156,900.875 797.75,901.0156 797.4844,901.0156 C797.2656,901.0156 797.0313,900.9063 796.8906,900.7656 C796.75,900.6406 796.7188,900.5156 796.6563,900.1094 C796.5625,899.7031 796.3906,899.4844 795.9063,899.2031 C795.4375,898.9531 794.8281,898.7969 794.25,898.7969 C792.5156,898.7969 791.2656,900.1094 791.2656,901.8906 L791.2656,902.9844 C791.2656,904.6875 792.5625,905.7813 794.6094,905.7813 C795.375,905.7813 796.0625,905.6563 796.4844,905.3906 C796.6719,905.2969 796.6719,905.2969 797.125,904.8125 C797.3125,904.625 797.5156,904.5469 797.7344,904.5469 C798.2031,904.5469 798.5938,904.9375 798.5938,905.3906 C798.5938,905.7813 798.2656,906.2344 797.6875,906.6406 C796.9375,907.1875 795.7813,907.4844 794.5625,907.4844 C791.6719,907.4844 789.5625,905.5938 789.5625,903.0156 L789.5625,901.8906 C789.5625,899.1719 791.5625,897.0938 794.1875,897.0938 C795.0625,897.0938 795.6563,897.2344 796.5938,897.6719 Z "/><text fill="#000000" font-family="sans-serif" font-size="12" lengthAdjust="spacingAndGlyphs" textLength="69" x="814.75" y="906.1543">Coordinate</text><line style="stroke: #A80036; stroke-width: 1.5;" x1="672.5" x2="993.5" y1="918" y2="918"/><line style="stroke: #A80036; stroke-width: 1.5;" x1="672.5" x2="993.5" y1="926" y2="926"/><ellipse cx="682.5" cy="937" fill="#84BE84" rx="3" ry="3" style="stroke: #038048; stroke-width: 1.0;"/><text fill="#000000" font-family="sans-serif" font-size="11" lengthAdjust="spacingAndGlyphs" textLength="176" x="691.5" y="940.2104">Coordinate(int row, int column)</text><ellipse cx="682.5" cy="949.8047" fill="#84BE84" rx="3" ry="3" style="stroke: #038048; stroke-width: 1.0;"/><text fill="#000000" font-family="sans-serif" font-size="11" lengthAdjust="spacingAndGlyphs" textLength="94" x="691.5" y="953.0151">isValid():boolean</text><ellipse cx="682.5" cy="962.6094" fill="#84BE84" rx="3" ry="3" style="stroke: #038048; stroke-width: 1.0;"/><text fill="#000000" font-family="sans-serif" font-size="11" lengthAdjust="spacingAndGlyphs" textLength="242" x="691.5" y="965.8198">isDiagonal(Coordinate coordinate):boolean</text><ellipse cx="682.5" cy="975.4141" fill="#84BE84" rx="3" ry="3" style="stroke: #038048; stroke-width: 1.0;"/><text fill="#000000" font-family="sans-serif" font-size="11" lengthAdjust="spacingAndGlyphs" textLength="249" x="691.5" y="978.6245">diagonalDistance(Coordinate coordinate):int</text><ellipse cx="682.5" cy="988.2188" fill="#84BE84" rx="3" ry="3" style="stroke: #038048; stroke-width: 1.0;"/><text fill="#000000" font-family="sans-serif" font-size="11" lengthAdjust="spacingAndGlyphs" textLength="297" x="691.5" y="991.4292">betweenDiagonal(Coordinate coordinate):Coordinate</text><ellipse cx="682.5" cy="1001.0234" fill="#84BE84" rx="3" ry="3" style="stroke: #038048; stroke-width: 1.0;"/><text fill="#000000" font-family="sans-serif" font-size="11" lengthAdjust="spacingAndGlyphs" textLength="97" x="691.5" y="1004.2339">isBlack():boolean</text><ellipse cx="682.5" cy="1013.8281" fill="#84BE84" rx="3" ry="3" style="stroke: #038048; stroke-width: 1.0;"/><text fill="#000000" font-family="sans-serif" font-size="11" lengthAdjust="spacingAndGlyphs" textLength="91" x="691.5" y="1017.0386">toString():String</text><ellipse cx="682.5" cy="1026.6328" fill="#84BE84" rx="3" ry="3" style="stroke: #038048; stroke-width: 1.0;"/><text fill="#000000" font-family="sans-serif" font-size="11" lengthAdjust="spacingAndGlyphs" textLength="83" x="691.5" y="1029.8433">hashCode():int</text><ellipse cx="682.5" cy="1039.4375" fill="#84BE84" rx="3" ry="3" style="stroke: #038048; stroke-width: 1.0;"/><text fill="#000000" font-family="sans-serif" font-size="11" lengthAdjust="spacingAndGlyphs" textLength="152" x="691.5" y="1042.6479">equals(Object obj):boolean</text><polygon fill="#4177AF" points="682.5,1048.2422,678.5,1054.2422,686.5,1054.2422" style="stroke: #1963A0; stroke-width: 1.0;"/><text fill="#000000" font-family="sans-serif" font-size="11" lengthAdjust="spacingAndGlyphs" textLength="67" x="691.5" y="1055.4526">getRow():int</text><polygon fill="#4177AF" points="682.5,1061.0469,678.5,1067.0469,686.5,1067.0469" style="stroke: #1963A0; stroke-width: 1.0;"/><text fill="#000000" font-family="sans-serif" font-size="11" lengthAdjust="spacingAndGlyphs" textLength="87" x="691.5" y="1068.2573">getColumn():int</text><!--MD5=[9563755d011c5cec7ec66dc53565a59e]
class Board--><rect fill="#FEFECE" filter="url(#f15whunlmv95u8)" height="124.8281" id="Board" style="stroke: #A80036; stroke-width: 1.5;" width="304" x="129" y="918"/><ellipse cx="258.25" cy="934" fill="#ADD1B2" rx="11" ry="11" style="stroke: #A80036; stroke-width: 1.0;"/><path d="M260.5938,929.6719 L260.7656,929.75 C260.9844,929.4375 261.1875,929.3438 261.4844,929.3438 C261.7813,929.3438 262.0625,929.4844 262.2188,929.75 C262.3125,929.9063 262.3281,930.0313 262.3281,930.4688 L262.3281,931.8906 C262.3281,932.3125 262.2969,932.5 262.1875,932.6563 C262.0156,932.875 261.75,933.0156 261.4844,933.0156 C261.2656,933.0156 261.0313,932.9063 260.8906,932.7656 C260.75,932.6406 260.7188,932.5156 260.6563,932.1094 C260.5625,931.7031 260.3906,931.4844 259.9063,931.2031 C259.4375,930.9531 258.8281,930.7969 258.25,930.7969 C256.5156,930.7969 255.2656,932.1094 255.2656,933.8906 L255.2656,934.9844 C255.2656,936.6875 256.5625,937.7813 258.6094,937.7813 C259.375,937.7813 260.0625,937.6563 260.4844,937.3906 C260.6719,937.2969 260.6719,937.2969 261.125,936.8125 C261.3125,936.625 261.5156,936.5469 261.7344,936.5469 C262.2031,936.5469 262.5938,936.9375 262.5938,937.3906 C262.5938,937.7813 262.2656,938.2344 261.6875,938.6406 C260.9375,939.1875 259.7813,939.4844 258.5625,939.4844 C255.6719,939.4844 253.5625,937.5938 253.5625,935.0156 L253.5625,933.8906 C253.5625,931.1719 255.5625,929.0938 258.1875,929.0938 C259.0625,929.0938 259.6563,929.2344 260.5938,929.6719 Z "/><text fill="#000000" font-family="sans-serif" font-size="12" lengthAdjust="spacingAndGlyphs" textLength="37" x="278.75" y="938.1543">Board</text><line style="stroke: #A80036; stroke-width: 1.5;" x1="130" x2="432" y1="950" y2="950"/><line style="stroke: #A80036; stroke-width: 1.5;" x1="130" x2="432" y1="958" y2="958"/><ellipse cx="140" cy="969" fill="#84BE84" rx="3" ry="3" style="stroke: #038048; stroke-width: 1.0;"/><text fill="#000000" font-family="sans-serif" font-size="11" lengthAdjust="spacingAndGlyphs" textLength="278" x="149" y="972.2104">move(Coordinate origin, Coordinate target):Error</text><ellipse cx="140" cy="981.8047" fill="#84BE84" rx="3" ry="3" style="stroke: #038048; stroke-width: 1.0;"/><text fill="#000000" font-family="sans-serif" font-size="11" lengthAdjust="spacingAndGlyphs" textLength="216" x="149" y="985.0151">getPiece(Coordinate coordinate):Piece</text><ellipse cx="140" cy="994.6094" fill="#84BE84" rx="3" ry="3" style="stroke: #038048; stroke-width: 1.0;"/><text fill="#000000" font-family="sans-serif" font-size="11" lengthAdjust="spacingAndGlyphs" textLength="228" x="149" y="997.8198">isEmpty(Coordinate coordinate):boolean</text><ellipse cx="140" cy="1007.4141" fill="#84BE84" rx="3" ry="3" style="stroke: #038048; stroke-width: 1.0;"/><text fill="#000000" font-family="sans-serif" font-size="11" lengthAdjust="spacingAndGlyphs" textLength="204" x="149" y="1010.6245">remove(Coordinate coordinate):void</text><ellipse cx="140" cy="1020.2188" fill="#84BE84" rx="3" ry="3" style="stroke: #038048; stroke-width: 1.0;"/><text fill="#000000" font-family="sans-serif" font-size="11" lengthAdjust="spacingAndGlyphs" textLength="172" x="149" y="1023.4292">containsPieces(Color):boolean</text><ellipse cx="140" cy="1033.0234" fill="#84BE84" rx="3" ry="3" style="stroke: #038048; stroke-width: 1.0;"/><text fill="#000000" font-family="sans-serif" font-size="11" lengthAdjust="spacingAndGlyphs" textLength="91" x="149" y="1036.2339">toString():String</text><!--MD5=[dd91eae41778c45e12552e5329e240e8]
class Turn--><rect fill="#FEFECE" filter="url(#f15whunlmv95u8)" height="86.4141" id="Turn" style="stroke: #A80036; stroke-width: 1.5;" width="185" x="410.5" y="1364.5"/><ellipse cx="484.75" cy="1380.5" fill="#ADD1B2" rx="11" ry="11" style="stroke: #A80036; stroke-width: 1.0;"/><path d="M487.0938,1376.1719 L487.2656,1376.25 C487.4844,1375.9375 487.6875,1375.8438 487.9844,1375.8438 C488.2813,1375.8438 488.5625,1375.9844 488.7188,1376.25 C488.8125,1376.4063 488.8281,1376.5313 488.8281,1376.9688 L488.8281,1378.3906 C488.8281,1378.8125 488.7969,1379 488.6875,1379.1563 C488.5156,1379.375 488.25,1379.5156 487.9844,1379.5156 C487.7656,1379.5156 487.5313,1379.4063 487.3906,1379.2656 C487.25,1379.1406 487.2188,1379.0156 487.1563,1378.6094 C487.0625,1378.2031 486.8906,1377.9844 486.4063,1377.7031 C485.9375,1377.4531 485.3281,1377.2969 484.75,1377.2969 C483.0156,1377.2969 481.7656,1378.6094 481.7656,1380.3906 L481.7656,1381.4844 C481.7656,1383.1875 483.0625,1384.2813 485.1094,1384.2813 C485.875,1384.2813 486.5625,1384.1563 486.9844,1383.8906 C487.1719,1383.7969 487.1719,1383.7969 487.625,1383.3125 C487.8125,1383.125 488.0156,1383.0469 488.2344,1383.0469 C488.7031,1383.0469 489.0938,1383.4375 489.0938,1383.8906 C489.0938,1384.2813 488.7656,1384.7344 488.1875,1385.1406 C487.4375,1385.6875 486.2813,1385.9844 485.0625,1385.9844 C482.1719,1385.9844 480.0625,1384.0938 480.0625,1381.5156 L480.0625,1380.3906 C480.0625,1377.6719 482.0625,1375.5938 484.6875,1375.5938 C485.5625,1375.5938 486.1563,1375.7344 487.0938,1376.1719 Z "/><text fill="#000000" font-family="sans-serif" font-size="12" lengthAdjust="spacingAndGlyphs" textLength="28" x="505.25" y="1384.6543">Turn</text><line style="stroke: #A80036; stroke-width: 1.5;" x1="411.5" x2="594.5" y1="1396.5" y2="1396.5"/><line style="stroke: #A80036; stroke-width: 1.5;" x1="411.5" x2="594.5" y1="1404.5" y2="1404.5"/><ellipse cx="421.5" cy="1415.5" fill="#84BE84" rx="3" ry="3" style="stroke: #038048; stroke-width: 1.0;"/><text fill="#000000" font-family="sans-serif" font-size="11" lengthAdjust="spacingAndGlyphs" textLength="76" x="430.5" y="1418.7104">change():void</text><ellipse cx="421.5" cy="1428.3047" fill="#84BE84" rx="3" ry="3" style="stroke: #038048; stroke-width: 1.0;"/><text fill="#000000" font-family="sans-serif" font-size="11" lengthAdjust="spacingAndGlyphs" textLength="159" x="430.5" y="1431.5151">isColor(Color color):boolean</text><ellipse cx="421.5" cy="1441.1094" fill="#84BE84" rx="3" ry="3" style="stroke: #038048; stroke-width: 1.0;"/><text fill="#000000" font-family="sans-serif" font-size="11" lengthAdjust="spacingAndGlyphs" textLength="90" x="430.5" y="1444.3198">getColor():Color</text><!--MD5=[b8cfd8c4119a3b0a7a46bfc5fc780f85]
class Error--><rect fill="#FEFECE" filter="url(#f15whunlmv95u8)" height="163.2422" id="Error" style="stroke: #A80036; stroke-width: 1.5;" width="140" x="6" y="1135"/><ellipse cx="56.25" cy="1151" fill="#EB937F" rx="11" ry="11" style="stroke: #A80036; stroke-width: 1.0;"/><path d="M54.5469,1151.875 L54.5469,1154.2969 L58.9063,1154.2969 L58.9063,1153.4219 C58.9063,1152.9375 58.9375,1152.7969 59.0469,1152.6406 C59.2188,1152.3906 59.4844,1152.2813 59.75,1152.2813 C60.0313,1152.2813 60.3125,1152.4375 60.4844,1152.6875 C60.5625,1152.8438 60.5938,1152.9844 60.5938,1153.4219 L60.5938,1156 L52.5938,1156 C52.2031,1156 51.9688,1155.9531 51.8281,1155.8281 C51.6094,1155.6719 51.4688,1155.4219 51.4688,1155.1563 C51.4688,1154.8594 51.625,1154.5938 51.875,1154.4219 C52.0313,1154.3125 52.1875,1154.2969 52.5938,1154.2969 L52.8438,1154.2969 L52.8438,1147.7813 L52.5938,1147.7813 C52.1719,1147.7813 51.9844,1147.75 51.8281,1147.6406 C51.6094,1147.4688 51.4688,1147.2188 51.4688,1146.9375 C51.4688,1146.6563 51.625,1146.3594 51.875,1146.2031 C52.0313,1146.1094 52.1563,1146.0938 52.5938,1146.0938 L60.2188,1146.0938 L60.2188,1148.6406 C60.2188,1149.1094 60.1875,1149.25 60.0781,1149.4219 C59.9063,1149.6406 59.6406,1149.7813 59.375,1149.7813 C59.0938,1149.7813 58.8125,1149.625 58.6406,1149.375 C58.5625,1149.2188 58.5313,1149.0469 58.5313,1148.6406 L58.5313,1147.7813 L54.5469,1147.7813 L54.5469,1150.1875 L56,1150.1875 L56,1150.0625 C56,1149.6094 56.0313,1149.4531 56.1406,1149.2813 C56.3125,1149.0625 56.5781,1148.9219 56.8281,1148.9219 C57.2813,1148.9219 57.5938,1149.2344 57.6563,1149.7031 C57.6719,1149.8594 57.6719,1149.9063 57.6719,1150.0625 L57.6719,1151.9844 C57.6719,1152.4375 57.6406,1152.5938 57.5156,1152.75 C57.3594,1152.9688 57.0938,1153.1094 56.8438,1153.1094 C56.5469,1153.1094 56.2656,1152.9531 56.1094,1152.7031 C56.0313,1152.5469 56,1152.3906 56,1151.9844 L56,1151.875 Z "/><text fill="#000000" font-family="sans-serif" font-size="12" lengthAdjust="spacingAndGlyphs" textLength="31" x="76.75" y="1155.1543">Error</text><line style="stroke: #A80036; stroke-width: 1.5;" x1="7" x2="145" y1="1167" y2="1167"/><text fill="#000000" font-family="sans-serif" font-size="11" lengthAdjust="spacingAndGlyphs" textLength="107" x="12" y="1181.2104">OUT_COORDINATE,</text><text fill="#000000" font-family="sans-serif" font-size="11" lengthAdjust="spacingAndGlyphs" textLength="86" x="12" y="1194.0151">EMPTY_ORIGIN,</text><text fill="#000000" font-family="sans-serif" font-size="11" lengthAdjust="spacingAndGlyphs" textLength="99" x="12" y="1206.8198">OPPOSITE_PIECE,</text><text fill="#000000" font-family="sans-serif" font-size="11" lengthAdjust="spacingAndGlyphs" textLength="91" x="12" y="1219.6245">NOT_DIAGONAL,</text><text fill="#000000" font-family="sans-serif" font-size="11" lengthAdjust="spacingAndGlyphs" textLength="121" x="12" y="1232.4292">NOT_EMPTY_TARGET,</text><text fill="#000000" font-family="sans-serif" font-size="11" lengthAdjust="spacingAndGlyphs" textLength="88" x="12" y="1245.2339">EATING_EMPTY,</text><text fill="#000000" font-family="sans-serif" font-size="11" lengthAdjust="spacingAndGlyphs" textLength="94" x="12" y="1258.0386">NOT_ADVANCED,</text><text fill="#000000" font-family="sans-serif" font-size="11" lengthAdjust="spacingAndGlyphs" textLength="89" x="12" y="1270.8433">BAD_DISTANCE,</text><text fill="#000000" font-family="sans-serif" font-size="11" lengthAdjust="spacingAndGlyphs" textLength="128" x="12" y="1283.6479">INCORRECT_COMMAND</text><line style="stroke: #A80036; stroke-width: 1.5;" x1="7" x2="145" y1="1290.2422" y2="1290.2422"/><!--MD5=[5655ee3e2a0d028d03fe20f829576392]
class Square--><rect fill="#FEFECE" filter="url(#f15whunlmv95u8)" height="112.0234" id="Square" style="stroke: #A80036; stroke-width: 1.5;" width="128" x="252" y="1160.5"/><ellipse cx="289.95" cy="1176.5" fill="#ADD1B2" rx="11" ry="11" style="stroke: #A80036; stroke-width: 1.0;"/><path d="M292.2938,1172.1719 L292.4656,1172.25 C292.6844,1171.9375 292.8875,1171.8438 293.1844,1171.8438 C293.4813,1171.8438 293.7625,1171.9844 293.9188,1172.25 C294.0125,1172.4063 294.0281,1172.5313 294.0281,1172.9688 L294.0281,1174.3906 C294.0281,1174.8125 293.9969,1175 293.8875,1175.1563 C293.7156,1175.375 293.45,1175.5156 293.1844,1175.5156 C292.9656,1175.5156 292.7313,1175.4063 292.5906,1175.2656 C292.45,1175.1406 292.4188,1175.0156 292.3563,1174.6094 C292.2625,1174.2031 292.0906,1173.9844 291.6063,1173.7031 C291.1375,1173.4531 290.5281,1173.2969 289.95,1173.2969 C288.2156,1173.2969 286.9656,1174.6094 286.9656,1176.3906 L286.9656,1177.4844 C286.9656,1179.1875 288.2625,1180.2813 290.3094,1180.2813 C291.075,1180.2813 291.7625,1180.1563 292.1844,1179.8906 C292.3719,1179.7969 292.3719,1179.7969 292.825,1179.3125 C293.0125,1179.125 293.2156,1179.0469 293.4344,1179.0469 C293.9031,1179.0469 294.2938,1179.4375 294.2938,1179.8906 C294.2938,1180.2813 293.9656,1180.7344 293.3875,1181.1406 C292.6375,1181.6875 291.4813,1181.9844 290.2625,1181.9844 C287.3719,1181.9844 285.2625,1180.0938 285.2625,1177.5156 L285.2625,1176.3906 C285.2625,1173.6719 287.2625,1171.5938 289.8875,1171.5938 C290.7625,1171.5938 291.3563,1171.7344 292.2938,1172.1719 Z "/><text fill="#000000" font-family="sans-serif" font-size="12" lengthAdjust="spacingAndGlyphs" textLength="45" x="309.05" y="1180.6543">Square</text><line style="stroke: #A80036; stroke-width: 1.5;" x1="253" x2="379" y1="1192.5" y2="1192.5"/><text fill="#000000" font-family="sans-serif" font-size="11" lengthAdjust="spacingAndGlyphs" textLength="9" x="258" y="1206.7104">+</text><line style="stroke: #A80036; stroke-width: 1.5;" x1="253" x2="379" y1="1213.3047" y2="1213.3047"/><polygon fill="#4177AF" points="263,1220.3047,259,1226.3047,267,1226.3047" style="stroke: #1963A0; stroke-width: 1.0;"/><text fill="#000000" font-family="sans-serif" font-size="11" lengthAdjust="spacingAndGlyphs" textLength="90" x="272" y="1227.5151">put(Piece piece)</text><polygon fill="#4177AF" points="263,1233.1094,259,1239.1094,267,1239.1094" style="stroke: #1963A0; stroke-width: 1.0;"/><text fill="#000000" font-family="sans-serif" font-size="11" lengthAdjust="spacingAndGlyphs" textLength="90" x="272" y="1240.3198">getPiece():Piece</text><polygon fill="#4177AF" points="263,1245.9141,259,1251.9141,267,1251.9141" style="stroke: #1963A0; stroke-width: 1.0;"/><text fill="#000000" font-family="sans-serif" font-size="11" lengthAdjust="spacingAndGlyphs" textLength="85" x="272" y="1253.1245">remove():Piece</text><ellipse cx="263" cy="1262.7188" fill="#84BE84" rx="3" ry="3" style="stroke: #038048; stroke-width: 1.0;"/><text fill="#000000" font-family="sans-serif" font-size="11" lengthAdjust="spacingAndGlyphs" textLength="102" x="272" y="1265.9292">isEmpty():boolean</text><!--MD5=[e05bacf3ff4416a0580578814d41bbf6]
class Piece--><rect fill="#FEFECE" filter="url(#f15whunlmv95u8)" height="99.2188" id="Piece" style="stroke: #A80036; stroke-width: 1.5;" width="353" x="22.5" y="1358"/><ellipse cx="177.75" cy="1374" fill="#ADD1B2" rx="11" ry="11" style="stroke: #A80036; stroke-width: 1.0;"/><path d="M180.0938,1369.6719 L180.2656,1369.75 C180.4844,1369.4375 180.6875,1369.3438 180.9844,1369.3438 C181.2813,1369.3438 181.5625,1369.4844 181.7188,1369.75 C181.8125,1369.9063 181.8281,1370.0313 181.8281,1370.4688 L181.8281,1371.8906 C181.8281,1372.3125 181.7969,1372.5 181.6875,1372.6563 C181.5156,1372.875 181.25,1373.0156 180.9844,1373.0156 C180.7656,1373.0156 180.5313,1372.9063 180.3906,1372.7656 C180.25,1372.6406 180.2188,1372.5156 180.1563,1372.1094 C180.0625,1371.7031 179.8906,1371.4844 179.4063,1371.2031 C178.9375,1370.9531 178.3281,1370.7969 177.75,1370.7969 C176.0156,1370.7969 174.7656,1372.1094 174.7656,1373.8906 L174.7656,1374.9844 C174.7656,1376.6875 176.0625,1377.7813 178.1094,1377.7813 C178.875,1377.7813 179.5625,1377.6563 179.9844,1377.3906 C180.1719,1377.2969 180.1719,1377.2969 180.625,1376.8125 C180.8125,1376.625 181.0156,1376.5469 181.2344,1376.5469 C181.7031,1376.5469 182.0938,1376.9375 182.0938,1377.3906 C182.0938,1377.7813 181.7656,1378.2344 181.1875,1378.6406 C180.4375,1379.1875 179.2813,1379.4844 178.0625,1379.4844 C175.1719,1379.4844 173.0625,1377.5938 173.0625,1375.0156 L173.0625,1373.8906 C173.0625,1371.1719 175.0625,1369.0938 177.6875,1369.0938 C178.5625,1369.0938 179.1563,1369.2344 180.0938,1369.6719 Z "/><text fill="#000000" font-family="sans-serif" font-size="12" lengthAdjust="spacingAndGlyphs" textLength="34" x="198.25" y="1378.1543">Piece</text><line style="stroke: #A80036; stroke-width: 1.5;" x1="23.5" x2="374.5" y1="1390" y2="1390"/><line style="stroke: #A80036; stroke-width: 1.5;" x1="23.5" x2="374.5" y1="1398" y2="1398"/><polygon fill="#4177AF" points="33.5,1405,29.5,1411,37.5,1411" style="stroke: #1963A0; stroke-width: 1.0;"/><text fill="#000000" font-family="sans-serif" font-size="11" lengthAdjust="spacingAndGlyphs" textLength="100" x="42.5" y="1412.2104">Piece(Color color)</text><ellipse cx="33.5" cy="1421.8047" fill="#84BE84" rx="3" ry="3" style="stroke: #038048; stroke-width: 1.0;"/><text fill="#000000" font-family="sans-serif" font-size="11" lengthAdjust="spacingAndGlyphs" textLength="90" x="42.5" y="1425.0151">getColor():Color</text><ellipse cx="33.5" cy="1434.6094" fill="#84BE84" rx="3" ry="3" style="stroke: #038048; stroke-width: 1.0;"/><text fill="#000000" font-family="sans-serif" font-size="11" lengthAdjust="spacingAndGlyphs" textLength="97" x="42.5" y="1437.8198">isBlack():boolean</text><ellipse cx="33.5" cy="1447.4141" fill="#84BE84" rx="3" ry="3" style="stroke: #038048; stroke-width: 1.0;"/><text fill="#000000" font-family="sans-serif" font-size="11" lengthAdjust="spacingAndGlyphs" textLength="327" x="42.5" y="1450.6245">isAdvanced(Coordinate origin, Coordinate target):boolean</text><!--MD5=[18eee71c88ab61f27581b8cbdd3ef5ee]
class Color--><rect fill="#FEFECE" filter="url(#f15whunlmv95u8)" height="73.6094" id="Color" style="stroke: #A80036; stroke-width: 1.5;" width="64" x="319" y="1517"/><ellipse cx="334" cy="1533" fill="#EB937F" rx="11" ry="11" style="stroke: #A80036; stroke-width: 1.0;"/><path d="M332.2969,1533.875 L332.2969,1536.2969 L336.6563,1536.2969 L336.6563,1535.4219 C336.6563,1534.9375 336.6875,1534.7969 336.7969,1534.6406 C336.9688,1534.3906 337.2344,1534.2813 337.5,1534.2813 C337.7813,1534.2813 338.0625,1534.4375 338.2344,1534.6875 C338.3125,1534.8438 338.3438,1534.9844 338.3438,1535.4219 L338.3438,1538 L330.3438,1538 C329.9531,1538 329.7188,1537.9531 329.5781,1537.8281 C329.3594,1537.6719 329.2188,1537.4219 329.2188,1537.1563 C329.2188,1536.8594 329.375,1536.5938 329.625,1536.4219 C329.7813,1536.3125 329.9375,1536.2969 330.3438,1536.2969 L330.5938,1536.2969 L330.5938,1529.7813 L330.3438,1529.7813 C329.9219,1529.7813 329.7344,1529.75 329.5781,1529.6406 C329.3594,1529.4688 329.2188,1529.2188 329.2188,1528.9375 C329.2188,1528.6563 329.375,1528.3594 329.625,1528.2031 C329.7813,1528.1094 329.9063,1528.0938 330.3438,1528.0938 L337.9688,1528.0938 L337.9688,1530.6406 C337.9688,1531.1094 337.9375,1531.25 337.8281,1531.4219 C337.6563,1531.6406 337.3906,1531.7813 337.125,1531.7813 C336.8438,1531.7813 336.5625,1531.625 336.3906,1531.375 C336.3125,1531.2188 336.2813,1531.0469 336.2813,1530.6406 L336.2813,1529.7813 L332.2969,1529.7813 L332.2969,1532.1875 L333.75,1532.1875 L333.75,1532.0625 C333.75,1531.6094 333.7813,1531.4531 333.8906,1531.2813 C334.0625,1531.0625 334.3281,1530.9219 334.5781,1530.9219 C335.0313,1530.9219 335.3438,1531.2344 335.4063,1531.7031 C335.4219,1531.8594 335.4219,1531.9063 335.4219,1532.0625 L335.4219,1533.9844 C335.4219,1534.4375 335.3906,1534.5938 335.2656,1534.75 C335.1094,1534.9688 334.8438,1535.1094 334.5938,1535.1094 C334.2969,1535.1094 334.0156,1534.9531 333.8594,1534.7031 C333.7813,1534.5469 333.75,1534.3906 333.75,1533.9844 L333.75,1533.875 Z "/><text fill="#000000" font-family="sans-serif" font-size="12" lengthAdjust="spacingAndGlyphs" textLength="32" x="348" y="1537.1543">Color</text><line style="stroke: #A80036; stroke-width: 1.5;" x1="320" x2="382" y1="1549" y2="1549"/><text fill="#000000" font-family="sans-serif" font-size="11" lengthAdjust="spacingAndGlyphs" textLength="34" x="325" y="1563.2104">WHITE</text><text fill="#000000" font-family="sans-serif" font-size="11" lengthAdjust="spacingAndGlyphs" textLength="36" x="325" y="1576.0151">BLACK</text><line style="stroke: #A80036; stroke-width: 1.5;" x1="320" x2="382" y1="1582.6094" y2="1582.6094"/><!--MD5=[167506e288131cdf3986fedef83acd94]
class StateValue--><rect fill="#FEFECE" filter="url(#f15whunlmv95u8)" height="99.2188" id="StateValue" style="stroke: #A80036; stroke-width: 1.5;" width="101" x="372.5" y="396"/><ellipse cx="387.5" cy="412" fill="#EB937F" rx="11" ry="11" style="stroke: #A80036; stroke-width: 1.0;"/><path d="M385.7969,412.875 L385.7969,415.2969 L390.1563,415.2969 L390.1563,414.4219 C390.1563,413.9375 390.1875,413.7969 390.2969,413.6406 C390.4688,413.3906 390.7344,413.2813 391,413.2813 C391.2813,413.2813 391.5625,413.4375 391.7344,413.6875 C391.8125,413.8438 391.8438,413.9844 391.8438,414.4219 L391.8438,417 L383.8438,417 C383.4531,417 383.2188,416.9531 383.0781,416.8281 C382.8594,416.6719 382.7188,416.4219 382.7188,416.1563 C382.7188,415.8594 382.875,415.5938 383.125,415.4219 C383.2813,415.3125 383.4375,415.2969 383.8438,415.2969 L384.0938,415.2969 L384.0938,408.7813 L383.8438,408.7813 C383.4219,408.7813 383.2344,408.75 383.0781,408.6406 C382.8594,408.4688 382.7188,408.2188 382.7188,407.9375 C382.7188,407.6563 382.875,407.3594 383.125,407.2031 C383.2813,407.1094 383.4063,407.0938 383.8438,407.0938 L391.4688,407.0938 L391.4688,409.6406 C391.4688,410.1094 391.4375,410.25 391.3281,410.4219 C391.1563,410.6406 390.8906,410.7813 390.625,410.7813 C390.3438,410.7813 390.0625,410.625 389.8906,410.375 C389.8125,410.2188 389.7813,410.0469 389.7813,409.6406 L389.7813,408.7813 L385.7969,408.7813 L385.7969,411.1875 L387.25,411.1875 L387.25,411.0625 C387.25,410.6094 387.2813,410.4531 387.3906,410.2813 C387.5625,410.0625 387.8281,409.9219 388.0781,409.9219 C388.5313,409.9219 388.8438,410.2344 388.9063,410.7031 C388.9219,410.8594 388.9219,410.9063 388.9219,411.0625 L388.9219,412.9844 C388.9219,413.4375 388.8906,413.5938 388.7656,413.75 C388.6094,413.9688 388.3438,414.1094 388.0938,414.1094 C387.7969,414.1094 387.5156,413.9531 387.3594,413.7031 C387.2813,413.5469 387.25,413.3906 387.25,412.9844 L387.25,412.875 Z "/><text fill="#000000" font-family="sans-serif" font-size="12" lengthAdjust="spacingAndGlyphs" textLength="69" x="401.5" y="416.1543">StateValue</text><line style="stroke: #A80036; stroke-width: 1.5;" x1="373.5" x2="472.5" y1="428" y2="428"/><text fill="#000000" font-family="sans-serif" font-size="11" lengthAdjust="spacingAndGlyphs" textLength="37" x="378.5" y="442.2104">INITIAL</text><text fill="#000000" font-family="sans-serif" font-size="11" lengthAdjust="spacingAndGlyphs" textLength="27" x="378.5" y="455.0151">PLAY</text><text fill="#000000" font-family="sans-serif" font-size="11" lengthAdjust="spacingAndGlyphs" textLength="30" x="378.5" y="467.8198">FINAL</text><text fill="#000000" font-family="sans-serif" font-size="11" lengthAdjust="spacingAndGlyphs" textLength="24" x="378.5" y="480.6245">EXIT</text><line style="stroke: #A80036; stroke-width: 1.5;" x1="373.5" x2="472.5" y1="487.2188" y2="487.2188"/><!--MD5=[bb7705407f7518d73e589f3804ed87b3]
link Draughts to Logic--><path d="M717.1132,68.0503 C717.1132,68.0503 640.747,107.05 606.024,124.78 " fill="none" id="Draughts-Logic" style="stroke: #A80036; stroke-width: 1.0;"/><polygon fill="#A80036" points="594.078,130.88,603.9124,130.3467,598.5304,128.6049,600.2722,123.2229,594.078,130.88" style="stroke: #A80036; stroke-width: 1.0;"/><line style="stroke: #A80036; stroke-width: 1.0;" x1="598.5304" x2="605.6555" y1="128.6049" y2="124.97"/><polygon fill="#A80036" points="727.799,62.59,720.636,61.7582,717.1132,68.0503,724.2762,68.8821,727.799,62.59" style="stroke: #A80036; stroke-width: 1.0;"/><!--MD5=[62d592ca4655d572533b220eef9afd54]
link Draughts to View--><path d="M793.71,79.9294 C793.71,79.9294 842.634,188.81 854,250 C860.981,287.58 861.018,298.43 854,336 C849.72,358.91 840.766,383.21 832.22,403 " fill="none" id="Draughts-View" style="stroke: #A80036; stroke-width: 1.0;"/><polygon fill="#A80036" points="826.857,414.98,834.1863,408.4012,828.9007,410.4168,826.8851,405.1312,826.857,414.98" style="stroke: #A80036; stroke-width: 1.0;"/><line style="stroke: #A80036; stroke-width: 1.0;" x1="828.9007" x2="832.167" y1="410.4168" y2="403.11"/><polygon fill="#A80036" points="788.437,69.15,787.4804,76.2974,793.71,79.9294,794.6666,72.782,788.437,69.15" style="stroke: #A80036; stroke-width: 1.0;"/><!--MD5=[c7c35d8815f214446cddf1956c3435bb]
link ConsoleViewlol27388 to ConsoleView--><path d="M1163,450.7 C1163,465.43 1163,515.94 1163,554.9 " fill="none" id="ConsoleViewlol27388-ConsoleView" style="stroke: #A80036; stroke-width: 1.0;"/><!--MD5=[dbdcaab34fb81d463c2fea3758e8e729]
link ConsoleView to StartController--><path d="M1017.84,626.976 C879.241,648.729 681.136,683.434 609,714 C595.57,719.691 582.114,727.894 570.212,736.236 " fill="none" id="ConsoleView-&gt;StartController" style="stroke: #A80036; stroke-width: 1.0; stroke-dasharray: 7.0,7.0;"/><polygon fill="#A80036" points="565.9,739.311,575.5499,737.3415,569.9707,736.4076,570.9046,730.8284,565.9,739.311" style="stroke: #A80036; stroke-width: 1.0;"/><!--MD5=[5515b8ab97826024bd2d193b6e477e38]
link ConsoleView to PlayController--><path d="M1049.09,654.002 C1006.42,672.17 957.547,692.978 913.21,711.856 " fill="none" id="ConsoleView-&gt;PlayController" style="stroke: #A80036; stroke-width: 1.0; stroke-dasharray: 7.0,7.0;"/><polygon fill="#A80036" points="908.382,713.912,918.2296,714.0666,912.9824,711.9533,915.0957,706.706,908.382,713.912" style="stroke: #A80036; stroke-width: 1.0;"/><!--MD5=[dc58898686e75d9ef652d104d9f3fb92]
link ConsoleView to ResumeController--><path d="M1135.94,654.113 C1121.5,680.058 1104.08,711.363 1091.07,734.739 " fill="none" id="ConsoleView-&gt;ResumeController" style="stroke: #A80036; stroke-width: 1.0; stroke-dasharray: 7.0,7.0;"/><polygon fill="#A80036" points="1088.53,739.304,1096.4004,733.3831,1090.9604,734.9344,1089.4091,729.4945,1088.53,739.304" style="stroke: #A80036; stroke-width: 1.0;"/><!--MD5=[0b016e28cb8bdd50f0718b285d4c418b]
link StartView to MessageView--><path d="M1503.2395,804.2919 C1503.2395,804.2919 1439.57,906.412 1415.45,945.097 " fill="none" id="StartView-MessageView" style="stroke: #A80036; stroke-width: 1.0;"/><polygon fill="#A80036" points="1408.47,956.287,1416.6268,950.7674,1411.116,952.0445,1409.8389,946.5337,1408.47,956.287" style="stroke: #A80036; stroke-width: 1.0;"/><line style="stroke: #A80036; stroke-width: 1.0;" x1="1411.116" x2="1415.35" y1="952.0445" y2="945.2555"/><polygon fill="#A80036" points="1509.59,794.11,1503.0208,797.0841,1503.2395,804.2919,1509.8087,801.3178,1509.59,794.11" style="stroke: #A80036; stroke-width: 1.0;"/><!--MD5=[4c9efdaa74d9a680f2d97bfd9f6596b6]
link PlayView to ColorView--><path d="M1255,806.11 C1255,806.11 1255,904.879 1255,943.037 " fill="none" id="PlayView-ColorView" style="stroke: #A80036; stroke-width: 1.0;"/><polygon fill="#A80036" points="1255,956.287,1259,947.287,1255,951.287,1251,947.287,1255,956.287" style="stroke: #A80036; stroke-width: 1.0;"/><line style="stroke: #A80036; stroke-width: 1.0;" x1="1255" x2="1255" y1="951.287" y2="943.287"/><polygon fill="#A80036" points="1255,794.11,1251,800.11,1255,806.11,1259,800.11,1255,794.11" style="stroke: #A80036; stroke-width: 1.0;"/><!--MD5=[e91f71408f4e5982b16e709f001dc04b]
link PlayView to ErrorView--><path d="M1234.6822,804.3613 C1234.6822,804.3613 1172.52,906.412 1148.96,945.097 " fill="none" id="PlayView-ErrorView" style="stroke: #A80036; stroke-width: 1.0;"/><polygon fill="#A80036" points="1142.14,956.287,1150.2387,950.6824,1144.7415,952.0171,1143.4068,946.52,1142.14,956.287" style="stroke: #A80036; stroke-width: 1.0;"/><line style="stroke: #A80036; stroke-width: 1.0;" x1="1144.7415" x2="1148.905" y1="952.0171" y2="945.184"/><polygon fill="#A80036" points="1240.92,794.11,1234.384,797.1564,1234.6822,804.3613,1241.2182,801.3149,1240.92,794.11" style="stroke: #A80036; stroke-width: 1.0;"/><!--MD5=[692c3fb330796c69385dbff3264d2f14]
link PlayView to MessageView--><path d="M1277.0667,804.0944 C1277.0667,804.0944 1345.2,906.294 1371.05,945.071 " fill="none" id="PlayView-MessageView" style="stroke: #A80036; stroke-width: 1.0;"/><polygon fill="#A80036" points="1378.52,956.287,1376.8547,946.5799,1375.746,952.1271,1370.1989,951.0184,1378.52,956.287" style="stroke: #A80036; stroke-width: 1.0;"/><line style="stroke: #A80036; stroke-width: 1.0;" x1="1375.746" x2="1371.315" y1="952.1271" y2="945.47"/><polygon fill="#A80036" points="1270.41,794.11,1270.4102,801.3211,1277.0667,804.0944,1277.0665,796.8833,1270.41,794.11" style="stroke: #A80036; stroke-width: 1.0;"/><!--MD5=[0247de9441edb48dbdd46825e4853bf2]
link ResumeView to MessageView--><path d="M1389.0154,806.105 C1389.0154,806.105 1391.86,905.141 1392.96,943.289 " fill="none" id="ResumeView-MessageView" style="stroke: #A80036; stroke-width: 1.0;"/><polygon fill="#A80036" points="1393.33,956.287,1397.0693,947.1756,1393.1861,951.2891,1389.0726,947.4058,1393.33,956.287" style="stroke: #A80036; stroke-width: 1.0;"/><line style="stroke: #A80036; stroke-width: 1.0;" x1="1393.1861" x2="1392.96" y1="951.2891" y2="943.292"/><polygon fill="#A80036" points="1388.67,794.11,1384.8443,800.2226,1389.0154,806.105,1392.841,799.9924,1388.67,794.11" style="stroke: #A80036; stroke-width: 1.0;"/><!--MD5=[2b3d48df6f113d7f7650f0ea2726d5e1]
link ConsoleView to StartView--><path d="M1319.3795,650.2919 C1319.3795,650.2919 1417.7,688.428 1461,714 C1471.83,720.398 1482.55,728.766 1491.99,737.038 " fill="none" id="ConsoleView-StartView" style="stroke: #A80036; stroke-width: 1.0;"/><polygon fill="#A80036" points="1501.68,745.879,1497.7259,736.8587,1497.9858,742.5096,1492.3349,742.7695,1501.68,745.879" style="stroke: #A80036; stroke-width: 1.0;"/><line style="stroke: #A80036; stroke-width: 1.0;" x1="1497.9858" x2="1492.075" y1="742.5096" y2="737.1145"/><polygon fill="#A80036" points="1308.05,646.337,1312.3965,652.091,1319.3795,650.2919,1315.0331,644.5379,1308.05,646.337" style="stroke: #A80036; stroke-width: 1.0;"/><!--MD5=[d2479a754624c0a936f49074520406c3]
link ConsoleView to PlayView--><path d="M1196.2355,664.5706 C1196.2355,664.5706 1224.24,714.328 1235.43,734.215 " fill="none" id="ConsoleView-PlayView" style="stroke: #A80036; stroke-width: 1.0;"/><polygon fill="#A80036" points="1241.95,745.801,1241.0217,735.996,1239.4977,741.4437,1234.05,739.9197,1241.95,745.801" style="stroke: #A80036; stroke-width: 1.0;"/><line style="stroke: #A80036; stroke-width: 1.0;" x1="1239.4977" x2="1235.575" y1="741.4437" y2="734.4715"/><polygon fill="#A80036" points="1190.35,654.113,1189.8069,661.3036,1196.2355,664.5706,1196.7786,657.3799,1190.35,654.113" style="stroke: #A80036; stroke-width: 1.0;"/><!--MD5=[fa8503f33b2b65994679c53598b796d7]
link ConsoleView to ResumeView--><path d="M1241.5237,660.9704 C1241.5237,660.9704 1291.53,696.79 1315,714 C1325.45,721.662 1336.65,730.03 1347.08,737.876 " fill="none" id="ConsoleView-ResumeView" style="stroke: #A80036; stroke-width: 1.0;"/><polygon fill="#A80036" points="1357.59,745.81,1352.8148,737.1962,1353.5987,742.7985,1347.9964,743.5824,1357.59,745.81" style="stroke: #A80036; stroke-width: 1.0;"/><line style="stroke: #A80036; stroke-width: 1.0;" x1="1353.5987" x2="1347.21" y1="742.7985" y2="737.9775"/><polygon fill="#A80036" points="1231.75,654.008,1234.3161,660.7471,1241.5237,660.9704,1238.9576,654.2313,1231.75,654.008" style="stroke: #A80036; stroke-width: 1.0;"/><!--MD5=[57070e04af1ab79c5a79c6aefe469b18]
link View to Controller--><path d="M797.517,476.03 C784.545,502.48 765.515,541.28 751.862,569.12 " fill="none" id="View-&gt;Controller" style="stroke: #A80036; stroke-width: 1.0; stroke-dasharray: 7.0,7.0;"/><polygon fill="#A80036" points="749.549,573.84,757.101,567.518,751.749,569.35,749.917,563.998,749.549,573.84" style="stroke: #A80036; stroke-width: 1.0;"/><!--MD5=[8a26891d769070b6d3ad41ee85c79103]
reverse link AcceptController to View--><path d="M738.412,352.21 C755.499,373.64 774.137,397.01 788.381,414.88 " fill="none" id="AcceptController&lt;-View" style="stroke: #A80036; stroke-width: 1.0;"/><polygon fill="none" points="732.741,356.32,725.746,336.32,743.688,347.6,732.741,356.32" style="stroke: #A80036; stroke-width: 1.0;"/><!--MD5=[153babd62505a2f5355991eb7c8026e3]
link Logic to State--><path d="M505.7659,198.9747 C505.7659,198.9747 481.197,226.59 469.365,239.89 " fill="none" id="Logic-State" style="stroke: #A80036; stroke-width: 1.0;"/><polygon fill="#A80036" points="460.485,249.87,469.4561,245.8055,463.8088,246.1347,463.4796,240.4874,460.485,249.87" style="stroke: #A80036; stroke-width: 1.0;"/><line style="stroke: #A80036; stroke-width: 1.0;" x1="463.8088" x2="469.1265" y1="246.1347" y2="240.155"/><polygon fill="#A80036" points="513.743,190.01,506.7662,191.8333,505.7659,198.9747,512.7427,197.1514,513.743,190.01" style="stroke: #A80036; stroke-width: 1.0;"/><!--MD5=[6741a2aa1692821dc3ed1fc83dbb2896]
link Logic to Game--><path d="M473.9346,168.0225 C473.9346,168.0225 352.265,200.16 316,250 C218.198,384.42 242.946,593.862 264.574,700.944 " fill="none" id="Logic-Game" style="stroke: #A80036; stroke-width: 1.0;"/><polygon fill="#A80036" points="267.255,713.796,269.3321,704.1687,266.2336,708.9014,261.5008,705.803,267.255,713.796" style="stroke: #A80036; stroke-width: 1.0;"/><line style="stroke: #A80036; stroke-width: 1.0;" x1="266.2336" x2="264.6" y1="708.9014" y2="701.0695"/><polygon fill="#A80036" points="485.756,165.96,479.1578,163.0508,473.9346,168.0225,480.5328,170.9317,485.756,165.96" style="stroke: #A80036; stroke-width: 1.0;"/><!--MD5=[8274c24dc463c9eebed4862afdd856c5]
link Logic to AcceptController--><path d="M583.1859,197.8626 C583.1859,197.8626 616.922,227.05 633.287,241.21 " fill="none" id="Logic-AcceptController" style="stroke: #A80036; stroke-width: 1.0;"/><polygon fill="#A80036" points="643.301,249.87,639.1131,240.9559,639.5202,246.5981,633.878,247.0052,643.301,249.87" style="stroke: #A80036; stroke-width: 1.0;"/><line style="stroke: #A80036; stroke-width: 1.0;" x1="639.5202" x2="633.47" y1="246.5981" y2="241.36"/><polygon fill="#A80036" points="574.112,190.01,576.0314,196.961,583.1859,197.8626,581.2665,190.9117,574.112,190.01" style="stroke: #A80036; stroke-width: 1.0;"/><!--MD5=[86bad62079e36fbeccb89c52e0edab6b]
link Controller to AcceptController--><path d="M730.848,573.61 C723.363,519.74 707.557,405.97 698.584,341.39 " fill="none" id="Controller-&gt;AcceptController" style="stroke: #A80036; stroke-width: 1.0; stroke-dasharray: 7.0,7.0;"/><polygon fill="#A80036" points="697.844,336.06,695.1432,345.5313,698.5439,341.0108,703.0644,344.4115,697.844,336.06" style="stroke: #A80036; stroke-width: 1.0;"/><!--MD5=[354d6deacb49030493b7fd8cb23ebdce]
reverse link Controller to StartController--><path d="M682.176,647.63 C646.153,676.361 599.333,713.703 567.194,739.336 " fill="none" id="Controller&lt;-StartController" style="stroke: #A80036; stroke-width: 1.0;"/><polygon fill="none" points="677.875,642.107,697.876,635.109,686.605,653.052,677.875,642.107" style="stroke: #A80036; stroke-width: 1.0;"/><!--MD5=[5099ef832410dfc1f0136dd1b887067e]
reverse link Controller to PlayController--><path d="M748.17,654.437 C753.202,673.136 758.973,694.581 764.151,713.823 " fill="none" id="Controller&lt;-PlayController" style="stroke: #A80036; stroke-width: 1.0;"/><polygon fill="none" points="741.406,656.241,742.968,635.109,754.925,652.602,741.406,656.241" style="stroke: #A80036; stroke-width: 1.0;"/><!--MD5=[dfabfd7c269c7ef3ab5bdd4c723fcdb8]
reverse link Controller to ResumeController--><path d="M814.365,644.005 C874.555,673.207 956.051,712.746 1011.14,739.474 " fill="none" id="Controller&lt;-ResumeController" style="stroke: #A80036; stroke-width: 1.0;"/><polygon fill="none" points="810.967,650.137,796.028,635.109,817.078,637.541,810.967,650.137" style="stroke: #A80036; stroke-width: 1.0;"/><!--MD5=[af3c341f28b4ad1078e652ece2043f79]
link Controller to Game--><path d="M641.7571,639.0806 C641.7571,639.0806 511.133,686.122 445.576,709.731 " fill="none" id="Controller-Game" style="stroke: #A80036; stroke-width: 1.0;"/><polygon fill="#A80036" points="433.001,714.26,442.8239,714.9744,437.7053,712.5661,440.1136,707.4475,433.001,714.26" style="stroke: #A80036; stroke-width: 1.0;"/><line style="stroke: #A80036; stroke-width: 1.0;" x1="437.7053" x2="445.2315" y1="712.5661" y2="709.855"/><polygon fill="#FFFFFF" points="653.047,635.014,646.0465,633.284,641.7571,639.0806,648.7576,640.8106,653.047,635.014" style="stroke: #A80036; stroke-width: 1.0;"/><!--MD5=[10e7a15d72d4dbff125a2050ab7515f4]
link PlayController to Coordinate--><path d="M793.258,826.054 C797.6,842.816 802.512,861.781 807.364,880.518 " fill="none" id="PlayController-&gt;Coordinate" style="stroke: #A80036; stroke-width: 1.0; stroke-dasharray: 7.0,7.0;"/><polygon fill="#A80036" points="808.731,885.795,810.348,876.0798,807.478,880.9545,802.6033,878.0846,808.731,885.795" style="stroke: #A80036; stroke-width: 1.0;"/><!--MD5=[951b5087c5691a61a9f8ccb8afb4a7d2]
link PlayView to Coordinate--><path d="M1233.44,794.127 C1222.63,804.801 1208.91,817.057 1195,826 C1176.58,837.845 1085.67,876.385 999.568,911.881 " fill="none" id="PlayView-&gt;Coordinate" style="stroke: #A80036; stroke-width: 1.0; stroke-dasharray: 7.0,7.0;"/><polygon fill="#A80036" points="994.69,913.89,1004.5351,914.1606,999.3131,911.9856,1001.4881,906.7636,994.69,913.89" style="stroke: #A80036; stroke-width: 1.0;"/><!--MD5=[15c8f9ca3aac13d865864b4eb5314ef1]
link Game to Board--><path d="M281,838.054 C281,838.054 281,883.486 281,904.849 " fill="none" id="Game-Board" style="stroke: #A80036; stroke-width: 1.0;"/><polygon fill="#A80036" points="281,917.881,285,908.881,281,912.881,277,908.881,281,917.881" style="stroke: #A80036; stroke-width: 1.0;"/><line style="stroke: #A80036; stroke-width: 1.0;" x1="281" x2="281" y1="912.881" y2="904.881"/><polygon fill="#A80036" points="281,826.054,277,832.054,281,838.054,285,832.054,281,826.054" style="stroke: #A80036; stroke-width: 1.0;"/><!--MD5=[b9f1e39ad85d50fe6f3a071a4341c320]
link Game to Turn--><path d="M401.9543,833.5321 C401.9543,833.5321 438.121,866.065 450,886 C538.683,1034.827 524.64,1250.816 511.715,1351.276 " fill="none" id="Game-Turn" style="stroke: #A80036; stroke-width: 1.0;"/><polygon fill="#A80036" points="509.95,1364.378,515.1158,1355.9926,510.6175,1359.4228,507.1874,1354.9245,509.95,1364.378" style="stroke: #A80036; stroke-width: 1.0;"/><line style="stroke: #A80036; stroke-width: 1.0;" x1="510.6175" x2="511.6855" y1="1359.4228" y2="1351.4945"/><polygon fill="#A80036" points="392.377,826.302,394.7556,833.1095,401.9543,833.5321,399.5757,826.7246,392.377,826.302" style="stroke: #A80036; stroke-width: 1.0;"/><!--MD5=[1a0cf06120a956b80e7a42bb075f06c6]
link Game to Error--><path d="M169.048,826.235 C146.41,842.448 125.22,862.327 111,886 C66.8122,959.561 62.2368,1059.271 66.1131,1129.68 " fill="none" id="Game-&gt;Error" style="stroke: #A80036; stroke-width: 1.0; stroke-dasharray: 7.0,7.0;"/><polygon fill="#A80036" points="66.4063,1134.698,69.8723,1125.4792,66.1134,1129.7066,61.886,1125.9477,66.4063,1134.698" style="stroke: #A80036; stroke-width: 1.0;"/><!--MD5=[4ad96441c8a01d959d4bf4f2a5e1a798]
link Board to Square--><path d="M292.0169,1055.155 C292.0169,1055.155 301.505,1118.588 305.76,1147.036 " fill="none" id="Board-Square" style="stroke: #A80036; stroke-width: 1.0;"/><polygon fill="#A80036" points="307.724,1160.168,310.3488,1150.6754,306.9844,1155.223,302.4368,1151.8586,307.724,1160.168" style="stroke: #A80036; stroke-width: 1.0;"/><line style="stroke: #A80036; stroke-width: 1.0;" x1="306.9844" x2="305.801" y1="1155.223" y2="1147.311"/><polygon fill="#A80036" points="290.242,1043.287,287.1735,1049.8126,292.0169,1055.155,295.0855,1048.6294,290.242,1043.287" style="stroke: #A80036; stroke-width: 1.0;"/><text fill="#000000" font-family="sans-serif" font-size="13" lengthAdjust="spacingAndGlyphs" textLength="23" x="282.3138" y="1149.462">8x8</text><!--MD5=[0a810b5c09181f50bb8c28d8cc6d44bf]
link Board to Piece--><path d="M255.8461,1054.6661 C255.8461,1054.6661 239.636,1108.901 234,1135 C218.663,1206.026 209.162,1289.056 203.996,1344.417 " fill="none" id="Board-Piece" style="stroke: #A80036; stroke-width: 1.0;"/><polygon fill="#A80036" points="202.805,1357.524,207.6025,1348.9226,203.2572,1352.5445,199.6353,1348.1991,202.805,1357.524" style="stroke: #A80036; stroke-width: 1.0;"/><line style="stroke: #A80036; stroke-width: 1.0;" x1="203.2572" x2="203.9815" y1="1352.5445" y2="1344.5775"/><polygon fill="#A80036" points="259.491,1043.233,253.8575,1047.7346,255.8461,1054.6661,261.4796,1050.1645,259.491,1043.233" style="stroke: #A80036; stroke-width: 1.0;"/><text fill="#000000" font-family="sans-serif" font-size="13" lengthAdjust="spacingAndGlyphs" textLength="47" x="153.1585" y="1346.8618">1..2x12</text><!--MD5=[7f34f2d425e9b3ee5350efe269b05f59]
link Board to Error--><path d="M226.871,1043.287 C203.257,1070.241 175.199,1102.268 149.723,1131.348 " fill="none" id="Board-&gt;Error" style="stroke: #A80036; stroke-width: 1.0; stroke-dasharray: 7.0,7.0;"/><polygon fill="#A80036" points="146.307,1135.247,155.2457,1131.1119,149.6012,1131.4856,149.2275,1125.8411,146.307,1135.247" style="stroke: #A80036; stroke-width: 1.0;"/><!--MD5=[f6467046f93aba88bed66e3f7374a456]
link Square to Piece--><path d="M281.844,1272.675 C266.095,1298.115 247.481,1328.184 231.891,1353.369 " fill="none" id="Square-&gt;Piece" style="stroke: #A80036; stroke-width: 1.0;"/><polygon fill="#A80036" points="229.217,1357.689,237.3549,1352.1415,231.8485,1353.4375,230.5525,1347.9311,229.217,1357.689" style="stroke: #A80036; stroke-width: 1.0;"/><text fill="#000000" font-family="sans-serif" font-size="13" lengthAdjust="spacingAndGlyphs" textLength="24" x="207.6649" y="1347.049">0..1</text><!--MD5=[2f378bb2f56593d68624f1790be1dbac]
link Piece to Color--><path d="M258.7339,1465.2863 C258.7339,1465.2863 293.871,1498.6902 309.206,1513.2684 " fill="none" id="Piece-Color" style="stroke: #A80036; stroke-width: 1.0;"/><polygon fill="#A80036" points="318.91,1522.4932,315.1432,1513.3931,315.2862,1519.0482,309.6312,1519.1912,318.91,1522.4932" style="stroke: #A80036; stroke-width: 1.0;"/><line style="stroke: #A80036; stroke-width: 1.0;" x1="315.2862" x2="309.488" y1="1519.0482" y2="1513.5362"/><polygon fill="#A80036" points="250.037,1457.018,251.6293,1464.0511,258.7339,1465.2863,257.1415,1458.2532,250.037,1457.018" style="stroke: #A80036; stroke-width: 1.0;"/><!--MD5=[154f2bb56f79ee09018871fe08a1e8f9]
link Turn to Color--><path d="M449.9295,1458.9516 C449.9295,1458.9516 410.279,1496.6462 392.935,1513.1344 " fill="none" id="Turn-Color" style="stroke: #A80036; stroke-width: 1.0;"/><polygon fill="#A80036" points="383.105,1522.4795,392.3838,1519.1775,386.7288,1519.0345,386.8718,1513.3794,383.105,1522.4795" style="stroke: #A80036; stroke-width: 1.0;"/><line style="stroke: #A80036; stroke-width: 1.0;" x1="386.7288" x2="392.527" y1="1519.0345" y2="1513.5224"/><polygon fill="#A80036" points="458.627,1450.684,451.5224,1451.9186,449.9295,1458.9516,457.0341,1457.717,458.627,1450.684" style="stroke: #A80036; stroke-width: 1.0;"/><!--MD5=[04ee8f1a549f099cd30b455604f649af]
link State to StateValue--><path d="M423,348.32 C423,348.32 423,371.62 423,382.66 " fill="none" id="State-StateValue" style="stroke: #A80036; stroke-width: 1.0;"/><polygon fill="#A80036" points="423,395.86,427,386.86,423,390.86,419,386.86,423,395.86" style="stroke: #A80036; stroke-width: 1.0;"/><line style="stroke: #A80036; stroke-width: 1.0;" x1="423" x2="423" y1="390.86" y2="382.86"/><polygon fill="#A80036" points="423,336.32,419,342.32,423,348.32,427,342.32,423,336.32" style="stroke: #A80036; stroke-width: 1.0;"/><!--MD5=[c88916db85024215ce49f65a009c4f02]
@startuml
class Draughts {
+ play()
}
Draughts *-down-> Logic
Draughts *-down-> View

interface View {
+ interact(Controller)
}

class ConsoleView #orange {
+ interact(Controller)
+ visit(StartController startController):void 
+ visit(PlayController playController):void 
+ visit(ResumeController resumeController):void 
}

View ()- - ConsoleView
ConsoleView ..> StartController
ConsoleView ..> PlayController
ConsoleView ..> ResumeController

class StartView {
}
StartView *-down-> MessageView

class PlayView {
}
PlayView *-down-> ColorView
PlayView *-down-> ErrorView
PlayView *-down-> MessageView

class ResumeView {
}
ResumeView *-down-> MessageView

ConsoleView *-down-> StartView
ConsoleView *-down-> PlayView
ConsoleView *-down-> ResumeView

View ..> Controller
AcceptController <|-down- View

class Logic{
+ getController()
}

Logic *- -> State
Logic *- -> Game
Logic *-down-> AcceptController

abstract class Controller{
  + {abstract} accept(AcceptController):void 
}

interface AcceptController{
  + visit(StartController startController):void 
  + visit(PlayController playController):void 
  + visit(ResumeController resumeController):void 
}

Controller ..> AcceptController
Controller <|-down- StartController
Controller <|-down- PlayController
Controller <|-down- ResumeController
Controller o- -> Game

class StartController{
 + start():void
}

class ResumeController{
 + resume(boolean newGame):void
}

class PlayController{
  + move(Coordinate origin, Coordinate target):Error
  + printGame():String
  + getTurnColor():Color
  + nextState():void
  + isFinishGame():boolean
}
PlayController ..> Coordinate

PlayView ..> Coordinate

class Coordinate{
  + Coordinate(int row, int column)
  + isValid():boolean
  + isDiagonal(Coordinate coordinate):boolean
  + diagonalDistance(Coordinate coordinate):int
  + betweenDiagonal(Coordinate coordinate):Coordinate
  + isBlack():boolean 
  + toString():String
  + hashCode():int
  + equals(Object obj):boolean
  ~ getRow():int
  ~ getColumn():int
}

class Game{
  + move(Coordinate origin, Coordinate target):Error
  + getTurnColor():Color
  + isFinished():boolean
  + toString():String
  + reset():void
}
Game *-down-> Board
Game *-down-> Turn
Game ..> Error

class Board{
  + move(Coordinate origin, Coordinate target):Error
  + getPiece(Coordinate coordinate):Piece
  + isEmpty(Coordinate coordinate):boolean
  + remove(Coordinate coordinate):void
  + containsPieces(Color):boolean
  + toString():String
}
Board *-down-> "8x8" Square
Board *-down-> "1..2x12" Piece
Board ..> Error

class Square{
  ~ put(Piece piece)
  ~ getPiece():Piece
  ~ remove():Piece
  + isEmpty():boolean
  + 
}
Square  - -> "0..1" Piece

class Piece{
  ~ Piece(Color color)
  + getColor():Color 
  + isBlack():boolean
  + isAdvanced(Coordinate origin, Coordinate target):boolean
}
Piece *- -> Color 

enum Color{
    WHITE
    BLACK
}

class Turn{
  + change():void
  + isColor(Color color):boolean
  + getColor():Color 
}
Turn *- -> Color

class State{
  + next():void
  + reset():void
  + getValueState():StateValue
}
State *- -> StateValue

enum StateValue{
  INITIAL
  PLAY
  FINAL
  EXIT
}

enum Error{
  OUT_COORDINATE, 
  EMPTY_ORIGIN, 
  OPPOSITE_PIECE, 
  NOT_DIAGONAL,
  NOT_EMPTY_TARGET, 
  EATING_EMPTY,
  NOT_ADVANCED,
  BAD_DISTANCE, 
  INCORRECT_COMMAND
}
@enduml

PlantUML version 1.2019.12beta6(Unknown compile time)
(GPL source distribution)
Java Runtime: Java(TM) SE Runtime Environment
JVM: Java HotSpot(TM) 64-Bit Server VM
Java Version: 1.7.0_25-b15
Operating System: Linux
Default Encoding: UTF-8
Language: en
Country: US
--></g></svg>